%TF.GenerationSoftware,KiCad,Pcbnew,7.0.10*%
%TF.CreationDate,2024-08-19T14:49:08+08:00*%
%TF.ProjectId,TPS61230_Booster_5V_Layout-240812_JLCPCB,54505336-3132-4333-905f-426f6f737465,rev?*%
%TF.SameCoordinates,Original*%
%TF.FileFunction,Legend,Bot*%
%TF.FilePolarity,Positive*%
%FSLAX46Y46*%
G04 Gerber Fmt 4.6, Leading zero omitted, Abs format (unit mm)*
G04 Created by KiCad (PCBNEW 7.0.10) date 2024-08-19 14:49:08*
%MOMM*%
%LPD*%
G01*
G04 APERTURE LIST*
%ADD10C,0.101600*%
%ADD11R,1.500000X1.500000*%
G04 APERTURE END LIST*
D10*
X143867700Y-58486985D02*
X143776986Y-58517223D01*
X143776986Y-58517223D02*
X143746748Y-58547461D01*
X143746748Y-58547461D02*
X143716510Y-58607937D01*
X143716510Y-58607937D02*
X143716510Y-58698651D01*
X143716510Y-58698651D02*
X143746748Y-58759127D01*
X143746748Y-58759127D02*
X143776986Y-58789366D01*
X143776986Y-58789366D02*
X143837462Y-58819604D01*
X143837462Y-58819604D02*
X144079367Y-58819604D01*
X144079367Y-58819604D02*
X144079367Y-58184604D01*
X144079367Y-58184604D02*
X143867700Y-58184604D01*
X143867700Y-58184604D02*
X143807224Y-58214842D01*
X143807224Y-58214842D02*
X143776986Y-58245080D01*
X143776986Y-58245080D02*
X143746748Y-58305556D01*
X143746748Y-58305556D02*
X143746748Y-58366032D01*
X143746748Y-58366032D02*
X143776986Y-58426508D01*
X143776986Y-58426508D02*
X143807224Y-58456746D01*
X143807224Y-58456746D02*
X143867700Y-58486985D01*
X143867700Y-58486985D02*
X144079367Y-58486985D01*
X143172224Y-58819604D02*
X143172224Y-58486985D01*
X143172224Y-58486985D02*
X143202462Y-58426508D01*
X143202462Y-58426508D02*
X143262938Y-58396270D01*
X143262938Y-58396270D02*
X143383891Y-58396270D01*
X143383891Y-58396270D02*
X143444367Y-58426508D01*
X143172224Y-58789366D02*
X143232700Y-58819604D01*
X143232700Y-58819604D02*
X143383891Y-58819604D01*
X143383891Y-58819604D02*
X143444367Y-58789366D01*
X143444367Y-58789366D02*
X143474605Y-58728889D01*
X143474605Y-58728889D02*
X143474605Y-58668413D01*
X143474605Y-58668413D02*
X143444367Y-58607937D01*
X143444367Y-58607937D02*
X143383891Y-58577699D01*
X143383891Y-58577699D02*
X143232700Y-58577699D01*
X143232700Y-58577699D02*
X143172224Y-58547461D01*
X142900081Y-58789366D02*
X142839605Y-58819604D01*
X142839605Y-58819604D02*
X142718653Y-58819604D01*
X142718653Y-58819604D02*
X142658176Y-58789366D01*
X142658176Y-58789366D02*
X142627938Y-58728889D01*
X142627938Y-58728889D02*
X142627938Y-58698651D01*
X142627938Y-58698651D02*
X142658176Y-58638175D01*
X142658176Y-58638175D02*
X142718653Y-58607937D01*
X142718653Y-58607937D02*
X142809367Y-58607937D01*
X142809367Y-58607937D02*
X142869843Y-58577699D01*
X142869843Y-58577699D02*
X142900081Y-58517223D01*
X142900081Y-58517223D02*
X142900081Y-58486985D01*
X142900081Y-58486985D02*
X142869843Y-58426508D01*
X142869843Y-58426508D02*
X142809367Y-58396270D01*
X142809367Y-58396270D02*
X142718653Y-58396270D01*
X142718653Y-58396270D02*
X142658176Y-58426508D01*
X142113890Y-58789366D02*
X142174366Y-58819604D01*
X142174366Y-58819604D02*
X142295319Y-58819604D01*
X142295319Y-58819604D02*
X142355795Y-58789366D01*
X142355795Y-58789366D02*
X142386033Y-58728889D01*
X142386033Y-58728889D02*
X142386033Y-58486985D01*
X142386033Y-58486985D02*
X142355795Y-58426508D01*
X142355795Y-58426508D02*
X142295319Y-58396270D01*
X142295319Y-58396270D02*
X142174366Y-58396270D01*
X142174366Y-58396270D02*
X142113890Y-58426508D01*
X142113890Y-58426508D02*
X142083652Y-58486985D01*
X142083652Y-58486985D02*
X142083652Y-58547461D01*
X142083652Y-58547461D02*
X142386033Y-58607937D01*
X141539366Y-58819604D02*
X141539366Y-58184604D01*
X141539366Y-58789366D02*
X141599842Y-58819604D01*
X141599842Y-58819604D02*
X141720795Y-58819604D01*
X141720795Y-58819604D02*
X141781271Y-58789366D01*
X141781271Y-58789366D02*
X141811509Y-58759127D01*
X141811509Y-58759127D02*
X141841747Y-58698651D01*
X141841747Y-58698651D02*
X141841747Y-58517223D01*
X141841747Y-58517223D02*
X141811509Y-58456746D01*
X141811509Y-58456746D02*
X141781271Y-58426508D01*
X141781271Y-58426508D02*
X141720795Y-58396270D01*
X141720795Y-58396270D02*
X141599842Y-58396270D01*
X141599842Y-58396270D02*
X141539366Y-58426508D01*
X140662461Y-58819604D02*
X140722937Y-58789366D01*
X140722937Y-58789366D02*
X140753175Y-58759127D01*
X140753175Y-58759127D02*
X140783413Y-58698651D01*
X140783413Y-58698651D02*
X140783413Y-58517223D01*
X140783413Y-58517223D02*
X140753175Y-58456746D01*
X140753175Y-58456746D02*
X140722937Y-58426508D01*
X140722937Y-58426508D02*
X140662461Y-58396270D01*
X140662461Y-58396270D02*
X140571746Y-58396270D01*
X140571746Y-58396270D02*
X140511270Y-58426508D01*
X140511270Y-58426508D02*
X140481032Y-58456746D01*
X140481032Y-58456746D02*
X140450794Y-58517223D01*
X140450794Y-58517223D02*
X140450794Y-58698651D01*
X140450794Y-58698651D02*
X140481032Y-58759127D01*
X140481032Y-58759127D02*
X140511270Y-58789366D01*
X140511270Y-58789366D02*
X140571746Y-58819604D01*
X140571746Y-58819604D02*
X140662461Y-58819604D01*
X140178651Y-58396270D02*
X140178651Y-58819604D01*
X140178651Y-58456746D02*
X140148413Y-58426508D01*
X140148413Y-58426508D02*
X140087937Y-58396270D01*
X140087937Y-58396270D02*
X139997222Y-58396270D01*
X139997222Y-58396270D02*
X139936746Y-58426508D01*
X139936746Y-58426508D02*
X139906508Y-58486985D01*
X139906508Y-58486985D02*
X139906508Y-58819604D01*
X144170081Y-59206954D02*
X143807224Y-59206954D01*
X143988653Y-59841954D02*
X143988653Y-59206954D01*
X143595557Y-59841954D02*
X143595557Y-59206954D01*
X143595557Y-59206954D02*
X143353652Y-59206954D01*
X143353652Y-59206954D02*
X143293176Y-59237192D01*
X143293176Y-59237192D02*
X143262938Y-59267430D01*
X143262938Y-59267430D02*
X143232700Y-59327906D01*
X143232700Y-59327906D02*
X143232700Y-59418620D01*
X143232700Y-59418620D02*
X143262938Y-59479096D01*
X143262938Y-59479096D02*
X143293176Y-59509335D01*
X143293176Y-59509335D02*
X143353652Y-59539573D01*
X143353652Y-59539573D02*
X143595557Y-59539573D01*
X142990795Y-59811716D02*
X142900081Y-59841954D01*
X142900081Y-59841954D02*
X142748890Y-59841954D01*
X142748890Y-59841954D02*
X142688414Y-59811716D01*
X142688414Y-59811716D02*
X142658176Y-59781477D01*
X142658176Y-59781477D02*
X142627938Y-59721001D01*
X142627938Y-59721001D02*
X142627938Y-59660525D01*
X142627938Y-59660525D02*
X142658176Y-59600049D01*
X142658176Y-59600049D02*
X142688414Y-59569811D01*
X142688414Y-59569811D02*
X142748890Y-59539573D01*
X142748890Y-59539573D02*
X142869843Y-59509335D01*
X142869843Y-59509335D02*
X142930319Y-59479096D01*
X142930319Y-59479096D02*
X142960557Y-59448858D01*
X142960557Y-59448858D02*
X142990795Y-59388382D01*
X142990795Y-59388382D02*
X142990795Y-59327906D01*
X142990795Y-59327906D02*
X142960557Y-59267430D01*
X142960557Y-59267430D02*
X142930319Y-59237192D01*
X142930319Y-59237192D02*
X142869843Y-59206954D01*
X142869843Y-59206954D02*
X142718652Y-59206954D01*
X142718652Y-59206954D02*
X142627938Y-59237192D01*
X142083652Y-59206954D02*
X142204605Y-59206954D01*
X142204605Y-59206954D02*
X142265081Y-59237192D01*
X142265081Y-59237192D02*
X142295319Y-59267430D01*
X142295319Y-59267430D02*
X142355795Y-59358144D01*
X142355795Y-59358144D02*
X142386033Y-59479096D01*
X142386033Y-59479096D02*
X142386033Y-59721001D01*
X142386033Y-59721001D02*
X142355795Y-59781477D01*
X142355795Y-59781477D02*
X142325557Y-59811716D01*
X142325557Y-59811716D02*
X142265081Y-59841954D01*
X142265081Y-59841954D02*
X142144128Y-59841954D01*
X142144128Y-59841954D02*
X142083652Y-59811716D01*
X142083652Y-59811716D02*
X142053414Y-59781477D01*
X142053414Y-59781477D02*
X142023176Y-59721001D01*
X142023176Y-59721001D02*
X142023176Y-59569811D01*
X142023176Y-59569811D02*
X142053414Y-59509335D01*
X142053414Y-59509335D02*
X142083652Y-59479096D01*
X142083652Y-59479096D02*
X142144128Y-59448858D01*
X142144128Y-59448858D02*
X142265081Y-59448858D01*
X142265081Y-59448858D02*
X142325557Y-59479096D01*
X142325557Y-59479096D02*
X142355795Y-59509335D01*
X142355795Y-59509335D02*
X142386033Y-59569811D01*
X141418414Y-59841954D02*
X141781271Y-59841954D01*
X141599843Y-59841954D02*
X141599843Y-59206954D01*
X141599843Y-59206954D02*
X141660319Y-59297668D01*
X141660319Y-59297668D02*
X141720795Y-59358144D01*
X141720795Y-59358144D02*
X141781271Y-59388382D01*
X141176509Y-59267430D02*
X141146271Y-59237192D01*
X141146271Y-59237192D02*
X141085795Y-59206954D01*
X141085795Y-59206954D02*
X140934604Y-59206954D01*
X140934604Y-59206954D02*
X140874128Y-59237192D01*
X140874128Y-59237192D02*
X140843890Y-59267430D01*
X140843890Y-59267430D02*
X140813652Y-59327906D01*
X140813652Y-59327906D02*
X140813652Y-59388382D01*
X140813652Y-59388382D02*
X140843890Y-59479096D01*
X140843890Y-59479096D02*
X141206747Y-59841954D01*
X141206747Y-59841954D02*
X140813652Y-59841954D01*
X140601985Y-59206954D02*
X140208890Y-59206954D01*
X140208890Y-59206954D02*
X140420557Y-59448858D01*
X140420557Y-59448858D02*
X140329842Y-59448858D01*
X140329842Y-59448858D02*
X140269366Y-59479096D01*
X140269366Y-59479096D02*
X140239128Y-59509335D01*
X140239128Y-59509335D02*
X140208890Y-59569811D01*
X140208890Y-59569811D02*
X140208890Y-59721001D01*
X140208890Y-59721001D02*
X140239128Y-59781477D01*
X140239128Y-59781477D02*
X140269366Y-59811716D01*
X140269366Y-59811716D02*
X140329842Y-59841954D01*
X140329842Y-59841954D02*
X140511271Y-59841954D01*
X140511271Y-59841954D02*
X140571747Y-59811716D01*
X140571747Y-59811716D02*
X140601985Y-59781477D01*
X139815795Y-59206954D02*
X139755318Y-59206954D01*
X139755318Y-59206954D02*
X139694842Y-59237192D01*
X139694842Y-59237192D02*
X139664604Y-59267430D01*
X139664604Y-59267430D02*
X139634366Y-59327906D01*
X139634366Y-59327906D02*
X139604128Y-59448858D01*
X139604128Y-59448858D02*
X139604128Y-59600049D01*
X139604128Y-59600049D02*
X139634366Y-59721001D01*
X139634366Y-59721001D02*
X139664604Y-59781477D01*
X139664604Y-59781477D02*
X139694842Y-59811716D01*
X139694842Y-59811716D02*
X139755318Y-59841954D01*
X139755318Y-59841954D02*
X139815795Y-59841954D01*
X139815795Y-59841954D02*
X139876271Y-59811716D01*
X139876271Y-59811716D02*
X139906509Y-59781477D01*
X139906509Y-59781477D02*
X139936747Y-59721001D01*
X139936747Y-59721001D02*
X139966985Y-59600049D01*
X139966985Y-59600049D02*
X139966985Y-59448858D01*
X139966985Y-59448858D02*
X139936747Y-59327906D01*
X139936747Y-59327906D02*
X139906509Y-59267430D01*
X139906509Y-59267430D02*
X139876271Y-59237192D01*
X139876271Y-59237192D02*
X139815795Y-59206954D01*
X139331985Y-59509335D02*
X139120318Y-59509335D01*
X139029604Y-59841954D02*
X139331985Y-59841954D01*
X139331985Y-59841954D02*
X139331985Y-59206954D01*
X139331985Y-59206954D02*
X139029604Y-59206954D01*
X138848175Y-59206954D02*
X138636509Y-59841954D01*
X138636509Y-59841954D02*
X138424842Y-59206954D01*
X138213175Y-59841954D02*
X138213175Y-59206954D01*
X138213175Y-59206954D02*
X138001508Y-59660525D01*
X138001508Y-59660525D02*
X137789842Y-59206954D01*
X137789842Y-59206954D02*
X137789842Y-59841954D01*
X137487461Y-59600049D02*
X137003652Y-59600049D01*
X136580319Y-59206954D02*
X136519842Y-59206954D01*
X136519842Y-59206954D02*
X136459366Y-59237192D01*
X136459366Y-59237192D02*
X136429128Y-59267430D01*
X136429128Y-59267430D02*
X136398890Y-59327906D01*
X136398890Y-59327906D02*
X136368652Y-59448858D01*
X136368652Y-59448858D02*
X136368652Y-59600049D01*
X136368652Y-59600049D02*
X136398890Y-59721001D01*
X136398890Y-59721001D02*
X136429128Y-59781477D01*
X136429128Y-59781477D02*
X136459366Y-59811716D01*
X136459366Y-59811716D02*
X136519842Y-59841954D01*
X136519842Y-59841954D02*
X136580319Y-59841954D01*
X136580319Y-59841954D02*
X136640795Y-59811716D01*
X136640795Y-59811716D02*
X136671033Y-59781477D01*
X136671033Y-59781477D02*
X136701271Y-59721001D01*
X136701271Y-59721001D02*
X136731509Y-59600049D01*
X136731509Y-59600049D02*
X136731509Y-59448858D01*
X136731509Y-59448858D02*
X136701271Y-59327906D01*
X136701271Y-59327906D02*
X136671033Y-59267430D01*
X136671033Y-59267430D02*
X136640795Y-59237192D01*
X136640795Y-59237192D02*
X136580319Y-59206954D01*
X136005795Y-59479096D02*
X136066271Y-59448858D01*
X136066271Y-59448858D02*
X136096509Y-59418620D01*
X136096509Y-59418620D02*
X136126747Y-59358144D01*
X136126747Y-59358144D02*
X136126747Y-59327906D01*
X136126747Y-59327906D02*
X136096509Y-59267430D01*
X136096509Y-59267430D02*
X136066271Y-59237192D01*
X136066271Y-59237192D02*
X136005795Y-59206954D01*
X136005795Y-59206954D02*
X135884842Y-59206954D01*
X135884842Y-59206954D02*
X135824366Y-59237192D01*
X135824366Y-59237192D02*
X135794128Y-59267430D01*
X135794128Y-59267430D02*
X135763890Y-59327906D01*
X135763890Y-59327906D02*
X135763890Y-59358144D01*
X135763890Y-59358144D02*
X135794128Y-59418620D01*
X135794128Y-59418620D02*
X135824366Y-59448858D01*
X135824366Y-59448858D02*
X135884842Y-59479096D01*
X135884842Y-59479096D02*
X136005795Y-59479096D01*
X136005795Y-59479096D02*
X136066271Y-59509335D01*
X136066271Y-59509335D02*
X136096509Y-59539573D01*
X136096509Y-59539573D02*
X136126747Y-59600049D01*
X136126747Y-59600049D02*
X136126747Y-59721001D01*
X136126747Y-59721001D02*
X136096509Y-59781477D01*
X136096509Y-59781477D02*
X136066271Y-59811716D01*
X136066271Y-59811716D02*
X136005795Y-59841954D01*
X136005795Y-59841954D02*
X135884842Y-59841954D01*
X135884842Y-59841954D02*
X135824366Y-59811716D01*
X135824366Y-59811716D02*
X135794128Y-59781477D01*
X135794128Y-59781477D02*
X135763890Y-59721001D01*
X135763890Y-59721001D02*
X135763890Y-59600049D01*
X135763890Y-59600049D02*
X135794128Y-59539573D01*
X135794128Y-59539573D02*
X135824366Y-59509335D01*
X135824366Y-59509335D02*
X135884842Y-59479096D01*
X135461509Y-59841954D02*
X135340557Y-59841954D01*
X135340557Y-59841954D02*
X135280080Y-59811716D01*
X135280080Y-59811716D02*
X135249842Y-59781477D01*
X135249842Y-59781477D02*
X135189366Y-59690763D01*
X135189366Y-59690763D02*
X135159128Y-59569811D01*
X135159128Y-59569811D02*
X135159128Y-59327906D01*
X135159128Y-59327906D02*
X135189366Y-59267430D01*
X135189366Y-59267430D02*
X135219604Y-59237192D01*
X135219604Y-59237192D02*
X135280080Y-59206954D01*
X135280080Y-59206954D02*
X135401033Y-59206954D01*
X135401033Y-59206954D02*
X135461509Y-59237192D01*
X135461509Y-59237192D02*
X135491747Y-59267430D01*
X135491747Y-59267430D02*
X135521985Y-59327906D01*
X135521985Y-59327906D02*
X135521985Y-59479096D01*
X135521985Y-59479096D02*
X135491747Y-59539573D01*
X135491747Y-59539573D02*
X135461509Y-59569811D01*
X135461509Y-59569811D02*
X135401033Y-59600049D01*
X135401033Y-59600049D02*
X135280080Y-59600049D01*
X135280080Y-59600049D02*
X135219604Y-59569811D01*
X135219604Y-59569811D02*
X135189366Y-59539573D01*
X135189366Y-59539573D02*
X135159128Y-59479096D01*
X144079367Y-60864304D02*
X144079367Y-60229304D01*
X144079367Y-60229304D02*
X143837462Y-60229304D01*
X143837462Y-60229304D02*
X143776986Y-60259542D01*
X143776986Y-60259542D02*
X143746748Y-60289780D01*
X143746748Y-60289780D02*
X143716510Y-60350256D01*
X143716510Y-60350256D02*
X143716510Y-60440970D01*
X143716510Y-60440970D02*
X143746748Y-60501446D01*
X143746748Y-60501446D02*
X143776986Y-60531685D01*
X143776986Y-60531685D02*
X143837462Y-60561923D01*
X143837462Y-60561923D02*
X144079367Y-60561923D01*
X143504843Y-60229304D02*
X143353653Y-60864304D01*
X143353653Y-60864304D02*
X143232700Y-60410732D01*
X143232700Y-60410732D02*
X143111748Y-60864304D01*
X143111748Y-60864304D02*
X142960558Y-60229304D01*
X142355796Y-60864304D02*
X142567463Y-60561923D01*
X142718653Y-60864304D02*
X142718653Y-60229304D01*
X142718653Y-60229304D02*
X142476748Y-60229304D01*
X142476748Y-60229304D02*
X142416272Y-60259542D01*
X142416272Y-60259542D02*
X142386034Y-60289780D01*
X142386034Y-60289780D02*
X142355796Y-60350256D01*
X142355796Y-60350256D02*
X142355796Y-60440970D01*
X142355796Y-60440970D02*
X142386034Y-60501446D01*
X142386034Y-60501446D02*
X142416272Y-60531685D01*
X142416272Y-60531685D02*
X142476748Y-60561923D01*
X142476748Y-60561923D02*
X142718653Y-60561923D01*
X141962701Y-60229304D02*
X141902224Y-60229304D01*
X141902224Y-60229304D02*
X141841748Y-60259542D01*
X141841748Y-60259542D02*
X141811510Y-60289780D01*
X141811510Y-60289780D02*
X141781272Y-60350256D01*
X141781272Y-60350256D02*
X141751034Y-60471208D01*
X141751034Y-60471208D02*
X141751034Y-60622399D01*
X141751034Y-60622399D02*
X141781272Y-60743351D01*
X141781272Y-60743351D02*
X141811510Y-60803827D01*
X141811510Y-60803827D02*
X141841748Y-60834066D01*
X141841748Y-60834066D02*
X141902224Y-60864304D01*
X141902224Y-60864304D02*
X141962701Y-60864304D01*
X141962701Y-60864304D02*
X142023177Y-60834066D01*
X142023177Y-60834066D02*
X142053415Y-60803827D01*
X142053415Y-60803827D02*
X142083653Y-60743351D01*
X142083653Y-60743351D02*
X142113891Y-60622399D01*
X142113891Y-60622399D02*
X142113891Y-60471208D01*
X142113891Y-60471208D02*
X142083653Y-60350256D01*
X142083653Y-60350256D02*
X142053415Y-60289780D01*
X142053415Y-60289780D02*
X142023177Y-60259542D01*
X142023177Y-60259542D02*
X141962701Y-60229304D01*
X141388177Y-60501446D02*
X141448653Y-60471208D01*
X141448653Y-60471208D02*
X141478891Y-60440970D01*
X141478891Y-60440970D02*
X141509129Y-60380494D01*
X141509129Y-60380494D02*
X141509129Y-60350256D01*
X141509129Y-60350256D02*
X141478891Y-60289780D01*
X141478891Y-60289780D02*
X141448653Y-60259542D01*
X141448653Y-60259542D02*
X141388177Y-60229304D01*
X141388177Y-60229304D02*
X141267224Y-60229304D01*
X141267224Y-60229304D02*
X141206748Y-60259542D01*
X141206748Y-60259542D02*
X141176510Y-60289780D01*
X141176510Y-60289780D02*
X141146272Y-60350256D01*
X141146272Y-60350256D02*
X141146272Y-60380494D01*
X141146272Y-60380494D02*
X141176510Y-60440970D01*
X141176510Y-60440970D02*
X141206748Y-60471208D01*
X141206748Y-60471208D02*
X141267224Y-60501446D01*
X141267224Y-60501446D02*
X141388177Y-60501446D01*
X141388177Y-60501446D02*
X141448653Y-60531685D01*
X141448653Y-60531685D02*
X141478891Y-60561923D01*
X141478891Y-60561923D02*
X141509129Y-60622399D01*
X141509129Y-60622399D02*
X141509129Y-60743351D01*
X141509129Y-60743351D02*
X141478891Y-60803827D01*
X141478891Y-60803827D02*
X141448653Y-60834066D01*
X141448653Y-60834066D02*
X141388177Y-60864304D01*
X141388177Y-60864304D02*
X141267224Y-60864304D01*
X141267224Y-60864304D02*
X141206748Y-60834066D01*
X141206748Y-60834066D02*
X141176510Y-60803827D01*
X141176510Y-60803827D02*
X141146272Y-60743351D01*
X141146272Y-60743351D02*
X141146272Y-60622399D01*
X141146272Y-60622399D02*
X141176510Y-60561923D01*
X141176510Y-60561923D02*
X141206748Y-60531685D01*
X141206748Y-60531685D02*
X141267224Y-60501446D01*
X140843891Y-60864304D02*
X140722939Y-60864304D01*
X140722939Y-60864304D02*
X140662462Y-60834066D01*
X140662462Y-60834066D02*
X140632224Y-60803827D01*
X140632224Y-60803827D02*
X140571748Y-60713113D01*
X140571748Y-60713113D02*
X140541510Y-60592161D01*
X140541510Y-60592161D02*
X140541510Y-60350256D01*
X140541510Y-60350256D02*
X140571748Y-60289780D01*
X140571748Y-60289780D02*
X140601986Y-60259542D01*
X140601986Y-60259542D02*
X140662462Y-60229304D01*
X140662462Y-60229304D02*
X140783415Y-60229304D01*
X140783415Y-60229304D02*
X140843891Y-60259542D01*
X140843891Y-60259542D02*
X140874129Y-60289780D01*
X140874129Y-60289780D02*
X140904367Y-60350256D01*
X140904367Y-60350256D02*
X140904367Y-60501446D01*
X140904367Y-60501446D02*
X140874129Y-60561923D01*
X140874129Y-60561923D02*
X140843891Y-60592161D01*
X140843891Y-60592161D02*
X140783415Y-60622399D01*
X140783415Y-60622399D02*
X140662462Y-60622399D01*
X140662462Y-60622399D02*
X140601986Y-60592161D01*
X140601986Y-60592161D02*
X140571748Y-60561923D01*
X140571748Y-60561923D02*
X140541510Y-60501446D01*
X139422700Y-60864304D02*
X139634367Y-60561923D01*
X139785557Y-60864304D02*
X139785557Y-60229304D01*
X139785557Y-60229304D02*
X139543652Y-60229304D01*
X139543652Y-60229304D02*
X139483176Y-60259542D01*
X139483176Y-60259542D02*
X139452938Y-60289780D01*
X139452938Y-60289780D02*
X139422700Y-60350256D01*
X139422700Y-60350256D02*
X139422700Y-60440970D01*
X139422700Y-60440970D02*
X139452938Y-60501446D01*
X139452938Y-60501446D02*
X139483176Y-60531685D01*
X139483176Y-60531685D02*
X139543652Y-60561923D01*
X139543652Y-60561923D02*
X139785557Y-60561923D01*
X138908652Y-60834066D02*
X138969128Y-60864304D01*
X138969128Y-60864304D02*
X139090081Y-60864304D01*
X139090081Y-60864304D02*
X139150557Y-60834066D01*
X139150557Y-60834066D02*
X139180795Y-60773589D01*
X139180795Y-60773589D02*
X139180795Y-60531685D01*
X139180795Y-60531685D02*
X139150557Y-60471208D01*
X139150557Y-60471208D02*
X139090081Y-60440970D01*
X139090081Y-60440970D02*
X138969128Y-60440970D01*
X138969128Y-60440970D02*
X138908652Y-60471208D01*
X138908652Y-60471208D02*
X138878414Y-60531685D01*
X138878414Y-60531685D02*
X138878414Y-60592161D01*
X138878414Y-60592161D02*
X139180795Y-60652637D01*
X138666747Y-60440970D02*
X138515557Y-60864304D01*
X138515557Y-60864304D02*
X138364366Y-60440970D01*
X138122461Y-60803827D02*
X138092223Y-60834066D01*
X138092223Y-60834066D02*
X138122461Y-60864304D01*
X138122461Y-60864304D02*
X138152699Y-60834066D01*
X138152699Y-60834066D02*
X138122461Y-60803827D01*
X138122461Y-60803827D02*
X138122461Y-60864304D01*
X137850318Y-60682875D02*
X137547937Y-60682875D01*
X137910794Y-60864304D02*
X137699128Y-60229304D01*
X137699128Y-60229304D02*
X137487461Y-60864304D01*
X144170081Y-61251654D02*
X143807224Y-61251654D01*
X143988653Y-61886654D02*
X143988653Y-61251654D01*
X143595557Y-61886654D02*
X143595557Y-61251654D01*
X143595557Y-61251654D02*
X143353652Y-61251654D01*
X143353652Y-61251654D02*
X143293176Y-61281892D01*
X143293176Y-61281892D02*
X143262938Y-61312130D01*
X143262938Y-61312130D02*
X143232700Y-61372606D01*
X143232700Y-61372606D02*
X143232700Y-61463320D01*
X143232700Y-61463320D02*
X143262938Y-61523796D01*
X143262938Y-61523796D02*
X143293176Y-61554035D01*
X143293176Y-61554035D02*
X143353652Y-61584273D01*
X143353652Y-61584273D02*
X143595557Y-61584273D01*
X142990795Y-61856416D02*
X142900081Y-61886654D01*
X142900081Y-61886654D02*
X142748890Y-61886654D01*
X142748890Y-61886654D02*
X142688414Y-61856416D01*
X142688414Y-61856416D02*
X142658176Y-61826177D01*
X142658176Y-61826177D02*
X142627938Y-61765701D01*
X142627938Y-61765701D02*
X142627938Y-61705225D01*
X142627938Y-61705225D02*
X142658176Y-61644749D01*
X142658176Y-61644749D02*
X142688414Y-61614511D01*
X142688414Y-61614511D02*
X142748890Y-61584273D01*
X142748890Y-61584273D02*
X142869843Y-61554035D01*
X142869843Y-61554035D02*
X142930319Y-61523796D01*
X142930319Y-61523796D02*
X142960557Y-61493558D01*
X142960557Y-61493558D02*
X142990795Y-61433082D01*
X142990795Y-61433082D02*
X142990795Y-61372606D01*
X142990795Y-61372606D02*
X142960557Y-61312130D01*
X142960557Y-61312130D02*
X142930319Y-61281892D01*
X142930319Y-61281892D02*
X142869843Y-61251654D01*
X142869843Y-61251654D02*
X142718652Y-61251654D01*
X142718652Y-61251654D02*
X142627938Y-61281892D01*
X142083652Y-61251654D02*
X142204605Y-61251654D01*
X142204605Y-61251654D02*
X142265081Y-61281892D01*
X142265081Y-61281892D02*
X142295319Y-61312130D01*
X142295319Y-61312130D02*
X142355795Y-61402844D01*
X142355795Y-61402844D02*
X142386033Y-61523796D01*
X142386033Y-61523796D02*
X142386033Y-61765701D01*
X142386033Y-61765701D02*
X142355795Y-61826177D01*
X142355795Y-61826177D02*
X142325557Y-61856416D01*
X142325557Y-61856416D02*
X142265081Y-61886654D01*
X142265081Y-61886654D02*
X142144128Y-61886654D01*
X142144128Y-61886654D02*
X142083652Y-61856416D01*
X142083652Y-61856416D02*
X142053414Y-61826177D01*
X142053414Y-61826177D02*
X142023176Y-61765701D01*
X142023176Y-61765701D02*
X142023176Y-61614511D01*
X142023176Y-61614511D02*
X142053414Y-61554035D01*
X142053414Y-61554035D02*
X142083652Y-61523796D01*
X142083652Y-61523796D02*
X142144128Y-61493558D01*
X142144128Y-61493558D02*
X142265081Y-61493558D01*
X142265081Y-61493558D02*
X142325557Y-61523796D01*
X142325557Y-61523796D02*
X142355795Y-61554035D01*
X142355795Y-61554035D02*
X142386033Y-61614511D01*
X141418414Y-61886654D02*
X141781271Y-61886654D01*
X141599843Y-61886654D02*
X141599843Y-61251654D01*
X141599843Y-61251654D02*
X141660319Y-61342368D01*
X141660319Y-61342368D02*
X141720795Y-61402844D01*
X141720795Y-61402844D02*
X141781271Y-61433082D01*
X141176509Y-61312130D02*
X141146271Y-61281892D01*
X141146271Y-61281892D02*
X141085795Y-61251654D01*
X141085795Y-61251654D02*
X140934604Y-61251654D01*
X140934604Y-61251654D02*
X140874128Y-61281892D01*
X140874128Y-61281892D02*
X140843890Y-61312130D01*
X140843890Y-61312130D02*
X140813652Y-61372606D01*
X140813652Y-61372606D02*
X140813652Y-61433082D01*
X140813652Y-61433082D02*
X140843890Y-61523796D01*
X140843890Y-61523796D02*
X141206747Y-61886654D01*
X141206747Y-61886654D02*
X140813652Y-61886654D01*
X140601985Y-61251654D02*
X140208890Y-61251654D01*
X140208890Y-61251654D02*
X140420557Y-61493558D01*
X140420557Y-61493558D02*
X140329842Y-61493558D01*
X140329842Y-61493558D02*
X140269366Y-61523796D01*
X140269366Y-61523796D02*
X140239128Y-61554035D01*
X140239128Y-61554035D02*
X140208890Y-61614511D01*
X140208890Y-61614511D02*
X140208890Y-61765701D01*
X140208890Y-61765701D02*
X140239128Y-61826177D01*
X140239128Y-61826177D02*
X140269366Y-61856416D01*
X140269366Y-61856416D02*
X140329842Y-61886654D01*
X140329842Y-61886654D02*
X140511271Y-61886654D01*
X140511271Y-61886654D02*
X140571747Y-61856416D01*
X140571747Y-61856416D02*
X140601985Y-61826177D01*
X139815795Y-61251654D02*
X139755318Y-61251654D01*
X139755318Y-61251654D02*
X139694842Y-61281892D01*
X139694842Y-61281892D02*
X139664604Y-61312130D01*
X139664604Y-61312130D02*
X139634366Y-61372606D01*
X139634366Y-61372606D02*
X139604128Y-61493558D01*
X139604128Y-61493558D02*
X139604128Y-61644749D01*
X139604128Y-61644749D02*
X139634366Y-61765701D01*
X139634366Y-61765701D02*
X139664604Y-61826177D01*
X139664604Y-61826177D02*
X139694842Y-61856416D01*
X139694842Y-61856416D02*
X139755318Y-61886654D01*
X139755318Y-61886654D02*
X139815795Y-61886654D01*
X139815795Y-61886654D02*
X139876271Y-61856416D01*
X139876271Y-61856416D02*
X139906509Y-61826177D01*
X139906509Y-61826177D02*
X139936747Y-61765701D01*
X139936747Y-61765701D02*
X139966985Y-61644749D01*
X139966985Y-61644749D02*
X139966985Y-61493558D01*
X139966985Y-61493558D02*
X139936747Y-61372606D01*
X139936747Y-61372606D02*
X139906509Y-61312130D01*
X139906509Y-61312130D02*
X139876271Y-61281892D01*
X139876271Y-61281892D02*
X139815795Y-61251654D01*
X139483176Y-61947130D02*
X138999366Y-61947130D01*
X138636508Y-61554035D02*
X138545794Y-61584273D01*
X138545794Y-61584273D02*
X138515556Y-61614511D01*
X138515556Y-61614511D02*
X138485318Y-61674987D01*
X138485318Y-61674987D02*
X138485318Y-61765701D01*
X138485318Y-61765701D02*
X138515556Y-61826177D01*
X138515556Y-61826177D02*
X138545794Y-61856416D01*
X138545794Y-61856416D02*
X138606270Y-61886654D01*
X138606270Y-61886654D02*
X138848175Y-61886654D01*
X138848175Y-61886654D02*
X138848175Y-61251654D01*
X138848175Y-61251654D02*
X138636508Y-61251654D01*
X138636508Y-61251654D02*
X138576032Y-61281892D01*
X138576032Y-61281892D02*
X138545794Y-61312130D01*
X138545794Y-61312130D02*
X138515556Y-61372606D01*
X138515556Y-61372606D02*
X138515556Y-61433082D01*
X138515556Y-61433082D02*
X138545794Y-61493558D01*
X138545794Y-61493558D02*
X138576032Y-61523796D01*
X138576032Y-61523796D02*
X138636508Y-61554035D01*
X138636508Y-61554035D02*
X138848175Y-61554035D01*
X138122461Y-61886654D02*
X138182937Y-61856416D01*
X138182937Y-61856416D02*
X138213175Y-61826177D01*
X138213175Y-61826177D02*
X138243413Y-61765701D01*
X138243413Y-61765701D02*
X138243413Y-61584273D01*
X138243413Y-61584273D02*
X138213175Y-61523796D01*
X138213175Y-61523796D02*
X138182937Y-61493558D01*
X138182937Y-61493558D02*
X138122461Y-61463320D01*
X138122461Y-61463320D02*
X138031746Y-61463320D01*
X138031746Y-61463320D02*
X137971270Y-61493558D01*
X137971270Y-61493558D02*
X137941032Y-61523796D01*
X137941032Y-61523796D02*
X137910794Y-61584273D01*
X137910794Y-61584273D02*
X137910794Y-61765701D01*
X137910794Y-61765701D02*
X137941032Y-61826177D01*
X137941032Y-61826177D02*
X137971270Y-61856416D01*
X137971270Y-61856416D02*
X138031746Y-61886654D01*
X138031746Y-61886654D02*
X138122461Y-61886654D01*
X137547937Y-61886654D02*
X137608413Y-61856416D01*
X137608413Y-61856416D02*
X137638651Y-61826177D01*
X137638651Y-61826177D02*
X137668889Y-61765701D01*
X137668889Y-61765701D02*
X137668889Y-61584273D01*
X137668889Y-61584273D02*
X137638651Y-61523796D01*
X137638651Y-61523796D02*
X137608413Y-61493558D01*
X137608413Y-61493558D02*
X137547937Y-61463320D01*
X137547937Y-61463320D02*
X137457222Y-61463320D01*
X137457222Y-61463320D02*
X137396746Y-61493558D01*
X137396746Y-61493558D02*
X137366508Y-61523796D01*
X137366508Y-61523796D02*
X137336270Y-61584273D01*
X137336270Y-61584273D02*
X137336270Y-61765701D01*
X137336270Y-61765701D02*
X137366508Y-61826177D01*
X137366508Y-61826177D02*
X137396746Y-61856416D01*
X137396746Y-61856416D02*
X137457222Y-61886654D01*
X137457222Y-61886654D02*
X137547937Y-61886654D01*
X137094365Y-61856416D02*
X137033889Y-61886654D01*
X137033889Y-61886654D02*
X136912937Y-61886654D01*
X136912937Y-61886654D02*
X136852460Y-61856416D01*
X136852460Y-61856416D02*
X136822222Y-61795939D01*
X136822222Y-61795939D02*
X136822222Y-61765701D01*
X136822222Y-61765701D02*
X136852460Y-61705225D01*
X136852460Y-61705225D02*
X136912937Y-61674987D01*
X136912937Y-61674987D02*
X137003651Y-61674987D01*
X137003651Y-61674987D02*
X137064127Y-61644749D01*
X137064127Y-61644749D02*
X137094365Y-61584273D01*
X137094365Y-61584273D02*
X137094365Y-61554035D01*
X137094365Y-61554035D02*
X137064127Y-61493558D01*
X137064127Y-61493558D02*
X137003651Y-61463320D01*
X137003651Y-61463320D02*
X136912937Y-61463320D01*
X136912937Y-61463320D02*
X136852460Y-61493558D01*
X136640793Y-61463320D02*
X136398889Y-61463320D01*
X136550079Y-61251654D02*
X136550079Y-61795939D01*
X136550079Y-61795939D02*
X136519841Y-61856416D01*
X136519841Y-61856416D02*
X136459365Y-61886654D01*
X136459365Y-61886654D02*
X136398889Y-61886654D01*
X135945317Y-61856416D02*
X136005793Y-61886654D01*
X136005793Y-61886654D02*
X136126746Y-61886654D01*
X136126746Y-61886654D02*
X136187222Y-61856416D01*
X136187222Y-61856416D02*
X136217460Y-61795939D01*
X136217460Y-61795939D02*
X136217460Y-61554035D01*
X136217460Y-61554035D02*
X136187222Y-61493558D01*
X136187222Y-61493558D02*
X136126746Y-61463320D01*
X136126746Y-61463320D02*
X136005793Y-61463320D01*
X136005793Y-61463320D02*
X135945317Y-61493558D01*
X135945317Y-61493558D02*
X135915079Y-61554035D01*
X135915079Y-61554035D02*
X135915079Y-61614511D01*
X135915079Y-61614511D02*
X136217460Y-61674987D01*
X135642936Y-61886654D02*
X135642936Y-61463320D01*
X135642936Y-61584273D02*
X135612698Y-61523796D01*
X135612698Y-61523796D02*
X135582460Y-61493558D01*
X135582460Y-61493558D02*
X135521984Y-61463320D01*
X135521984Y-61463320D02*
X135461507Y-61463320D01*
X135401032Y-61947130D02*
X134917222Y-61947130D01*
X134463650Y-61251654D02*
X134766031Y-61251654D01*
X134766031Y-61251654D02*
X134796269Y-61554035D01*
X134796269Y-61554035D02*
X134766031Y-61523796D01*
X134766031Y-61523796D02*
X134705555Y-61493558D01*
X134705555Y-61493558D02*
X134554364Y-61493558D01*
X134554364Y-61493558D02*
X134493888Y-61523796D01*
X134493888Y-61523796D02*
X134463650Y-61554035D01*
X134463650Y-61554035D02*
X134433412Y-61614511D01*
X134433412Y-61614511D02*
X134433412Y-61765701D01*
X134433412Y-61765701D02*
X134463650Y-61826177D01*
X134463650Y-61826177D02*
X134493888Y-61856416D01*
X134493888Y-61856416D02*
X134554364Y-61886654D01*
X134554364Y-61886654D02*
X134705555Y-61886654D01*
X134705555Y-61886654D02*
X134766031Y-61856416D01*
X134766031Y-61856416D02*
X134796269Y-61826177D01*
X134251983Y-61251654D02*
X134040317Y-61886654D01*
X134040317Y-61886654D02*
X133828650Y-61251654D01*
X144079367Y-62909004D02*
X144079367Y-62274004D01*
X144079367Y-62274004D02*
X143867700Y-62727575D01*
X143867700Y-62727575D02*
X143656034Y-62274004D01*
X143656034Y-62274004D02*
X143656034Y-62909004D01*
X143383891Y-62878766D02*
X143293177Y-62909004D01*
X143293177Y-62909004D02*
X143141986Y-62909004D01*
X143141986Y-62909004D02*
X143081510Y-62878766D01*
X143081510Y-62878766D02*
X143051272Y-62848527D01*
X143051272Y-62848527D02*
X143021034Y-62788051D01*
X143021034Y-62788051D02*
X143021034Y-62727575D01*
X143021034Y-62727575D02*
X143051272Y-62667099D01*
X143051272Y-62667099D02*
X143081510Y-62636861D01*
X143081510Y-62636861D02*
X143141986Y-62606623D01*
X143141986Y-62606623D02*
X143262939Y-62576385D01*
X143262939Y-62576385D02*
X143323415Y-62546146D01*
X143323415Y-62546146D02*
X143353653Y-62515908D01*
X143353653Y-62515908D02*
X143383891Y-62455432D01*
X143383891Y-62455432D02*
X143383891Y-62394956D01*
X143383891Y-62394956D02*
X143353653Y-62334480D01*
X143353653Y-62334480D02*
X143323415Y-62304242D01*
X143323415Y-62304242D02*
X143262939Y-62274004D01*
X143262939Y-62274004D02*
X143111748Y-62274004D01*
X143111748Y-62274004D02*
X143021034Y-62304242D01*
X142839605Y-62274004D02*
X142476748Y-62274004D01*
X142658177Y-62909004D02*
X142658177Y-62274004D01*
X142295319Y-62878766D02*
X142204605Y-62909004D01*
X142204605Y-62909004D02*
X142053414Y-62909004D01*
X142053414Y-62909004D02*
X141992938Y-62878766D01*
X141992938Y-62878766D02*
X141962700Y-62848527D01*
X141962700Y-62848527D02*
X141932462Y-62788051D01*
X141932462Y-62788051D02*
X141932462Y-62727575D01*
X141932462Y-62727575D02*
X141962700Y-62667099D01*
X141962700Y-62667099D02*
X141992938Y-62636861D01*
X141992938Y-62636861D02*
X142053414Y-62606623D01*
X142053414Y-62606623D02*
X142174367Y-62576385D01*
X142174367Y-62576385D02*
X142234843Y-62546146D01*
X142234843Y-62546146D02*
X142265081Y-62515908D01*
X142265081Y-62515908D02*
X142295319Y-62455432D01*
X142295319Y-62455432D02*
X142295319Y-62394956D01*
X142295319Y-62394956D02*
X142265081Y-62334480D01*
X142265081Y-62334480D02*
X142234843Y-62304242D01*
X142234843Y-62304242D02*
X142174367Y-62274004D01*
X142174367Y-62274004D02*
X142023176Y-62274004D01*
X142023176Y-62274004D02*
X141932462Y-62304242D01*
X141690557Y-62727575D02*
X141388176Y-62727575D01*
X141751033Y-62909004D02*
X141539367Y-62274004D01*
X141539367Y-62274004D02*
X141327700Y-62909004D01*
X141116033Y-62909004D02*
X141116033Y-62274004D01*
X140420557Y-62606623D02*
X140450795Y-62576385D01*
X140450795Y-62576385D02*
X140511271Y-62546146D01*
X140511271Y-62546146D02*
X140571747Y-62546146D01*
X140571747Y-62546146D02*
X140632223Y-62576385D01*
X140632223Y-62576385D02*
X140662462Y-62606623D01*
X140662462Y-62606623D02*
X140692700Y-62667099D01*
X140692700Y-62667099D02*
X140692700Y-62727575D01*
X140692700Y-62727575D02*
X140662462Y-62788051D01*
X140662462Y-62788051D02*
X140632223Y-62818289D01*
X140632223Y-62818289D02*
X140571747Y-62848527D01*
X140571747Y-62848527D02*
X140511271Y-62848527D01*
X140511271Y-62848527D02*
X140450795Y-62818289D01*
X140450795Y-62818289D02*
X140420557Y-62788051D01*
X140420557Y-62546146D02*
X140420557Y-62788051D01*
X140420557Y-62788051D02*
X140390319Y-62818289D01*
X140390319Y-62818289D02*
X140360081Y-62818289D01*
X140360081Y-62818289D02*
X140299604Y-62788051D01*
X140299604Y-62788051D02*
X140269366Y-62727575D01*
X140269366Y-62727575D02*
X140269366Y-62576385D01*
X140269366Y-62576385D02*
X140329843Y-62485670D01*
X140329843Y-62485670D02*
X140420557Y-62425194D01*
X140420557Y-62425194D02*
X140541509Y-62394956D01*
X140541509Y-62394956D02*
X140662462Y-62425194D01*
X140662462Y-62425194D02*
X140753176Y-62485670D01*
X140753176Y-62485670D02*
X140813652Y-62576385D01*
X140813652Y-62576385D02*
X140843890Y-62697337D01*
X140843890Y-62697337D02*
X140813652Y-62818289D01*
X140813652Y-62818289D02*
X140753176Y-62909004D01*
X140753176Y-62909004D02*
X140662462Y-62969480D01*
X140662462Y-62969480D02*
X140541509Y-62999718D01*
X140541509Y-62999718D02*
X140420557Y-62969480D01*
X140420557Y-62969480D02*
X140329843Y-62909004D01*
X140027461Y-62334480D02*
X139997223Y-62304242D01*
X139997223Y-62304242D02*
X139936747Y-62274004D01*
X139936747Y-62274004D02*
X139785556Y-62274004D01*
X139785556Y-62274004D02*
X139725080Y-62304242D01*
X139725080Y-62304242D02*
X139694842Y-62334480D01*
X139694842Y-62334480D02*
X139664604Y-62394956D01*
X139664604Y-62394956D02*
X139664604Y-62455432D01*
X139664604Y-62455432D02*
X139694842Y-62546146D01*
X139694842Y-62546146D02*
X140057699Y-62909004D01*
X140057699Y-62909004D02*
X139664604Y-62909004D01*
X139271509Y-62274004D02*
X139211032Y-62274004D01*
X139211032Y-62274004D02*
X139150556Y-62304242D01*
X139150556Y-62304242D02*
X139120318Y-62334480D01*
X139120318Y-62334480D02*
X139090080Y-62394956D01*
X139090080Y-62394956D02*
X139059842Y-62515908D01*
X139059842Y-62515908D02*
X139059842Y-62667099D01*
X139059842Y-62667099D02*
X139090080Y-62788051D01*
X139090080Y-62788051D02*
X139120318Y-62848527D01*
X139120318Y-62848527D02*
X139150556Y-62878766D01*
X139150556Y-62878766D02*
X139211032Y-62909004D01*
X139211032Y-62909004D02*
X139271509Y-62909004D01*
X139271509Y-62909004D02*
X139331985Y-62878766D01*
X139331985Y-62878766D02*
X139362223Y-62848527D01*
X139362223Y-62848527D02*
X139392461Y-62788051D01*
X139392461Y-62788051D02*
X139422699Y-62667099D01*
X139422699Y-62667099D02*
X139422699Y-62515908D01*
X139422699Y-62515908D02*
X139392461Y-62394956D01*
X139392461Y-62394956D02*
X139362223Y-62334480D01*
X139362223Y-62334480D02*
X139331985Y-62304242D01*
X139331985Y-62304242D02*
X139271509Y-62274004D01*
X138817937Y-62334480D02*
X138787699Y-62304242D01*
X138787699Y-62304242D02*
X138727223Y-62274004D01*
X138727223Y-62274004D02*
X138576032Y-62274004D01*
X138576032Y-62274004D02*
X138515556Y-62304242D01*
X138515556Y-62304242D02*
X138485318Y-62334480D01*
X138485318Y-62334480D02*
X138455080Y-62394956D01*
X138455080Y-62394956D02*
X138455080Y-62455432D01*
X138455080Y-62455432D02*
X138485318Y-62546146D01*
X138485318Y-62546146D02*
X138848175Y-62909004D01*
X138848175Y-62909004D02*
X138455080Y-62909004D01*
X137910794Y-62485670D02*
X137910794Y-62909004D01*
X138061985Y-62243766D02*
X138213175Y-62697337D01*
X138213175Y-62697337D02*
X137820080Y-62697337D01*
X137457223Y-62274004D02*
X137396746Y-62274004D01*
X137396746Y-62274004D02*
X137336270Y-62304242D01*
X137336270Y-62304242D02*
X137306032Y-62334480D01*
X137306032Y-62334480D02*
X137275794Y-62394956D01*
X137275794Y-62394956D02*
X137245556Y-62515908D01*
X137245556Y-62515908D02*
X137245556Y-62667099D01*
X137245556Y-62667099D02*
X137275794Y-62788051D01*
X137275794Y-62788051D02*
X137306032Y-62848527D01*
X137306032Y-62848527D02*
X137336270Y-62878766D01*
X137336270Y-62878766D02*
X137396746Y-62909004D01*
X137396746Y-62909004D02*
X137457223Y-62909004D01*
X137457223Y-62909004D02*
X137517699Y-62878766D01*
X137517699Y-62878766D02*
X137547937Y-62848527D01*
X137547937Y-62848527D02*
X137578175Y-62788051D01*
X137578175Y-62788051D02*
X137608413Y-62667099D01*
X137608413Y-62667099D02*
X137608413Y-62515908D01*
X137608413Y-62515908D02*
X137578175Y-62394956D01*
X137578175Y-62394956D02*
X137547937Y-62334480D01*
X137547937Y-62334480D02*
X137517699Y-62304242D01*
X137517699Y-62304242D02*
X137457223Y-62274004D01*
X136882699Y-62546146D02*
X136943175Y-62515908D01*
X136943175Y-62515908D02*
X136973413Y-62485670D01*
X136973413Y-62485670D02*
X137003651Y-62425194D01*
X137003651Y-62425194D02*
X137003651Y-62394956D01*
X137003651Y-62394956D02*
X136973413Y-62334480D01*
X136973413Y-62334480D02*
X136943175Y-62304242D01*
X136943175Y-62304242D02*
X136882699Y-62274004D01*
X136882699Y-62274004D02*
X136761746Y-62274004D01*
X136761746Y-62274004D02*
X136701270Y-62304242D01*
X136701270Y-62304242D02*
X136671032Y-62334480D01*
X136671032Y-62334480D02*
X136640794Y-62394956D01*
X136640794Y-62394956D02*
X136640794Y-62425194D01*
X136640794Y-62425194D02*
X136671032Y-62485670D01*
X136671032Y-62485670D02*
X136701270Y-62515908D01*
X136701270Y-62515908D02*
X136761746Y-62546146D01*
X136761746Y-62546146D02*
X136882699Y-62546146D01*
X136882699Y-62546146D02*
X136943175Y-62576385D01*
X136943175Y-62576385D02*
X136973413Y-62606623D01*
X136973413Y-62606623D02*
X137003651Y-62667099D01*
X137003651Y-62667099D02*
X137003651Y-62788051D01*
X137003651Y-62788051D02*
X136973413Y-62848527D01*
X136973413Y-62848527D02*
X136943175Y-62878766D01*
X136943175Y-62878766D02*
X136882699Y-62909004D01*
X136882699Y-62909004D02*
X136761746Y-62909004D01*
X136761746Y-62909004D02*
X136701270Y-62878766D01*
X136701270Y-62878766D02*
X136671032Y-62848527D01*
X136671032Y-62848527D02*
X136640794Y-62788051D01*
X136640794Y-62788051D02*
X136640794Y-62667099D01*
X136640794Y-62667099D02*
X136671032Y-62606623D01*
X136671032Y-62606623D02*
X136701270Y-62576385D01*
X136701270Y-62576385D02*
X136761746Y-62546146D01*
X136036032Y-62909004D02*
X136398889Y-62909004D01*
X136217461Y-62909004D02*
X136217461Y-62274004D01*
X136217461Y-62274004D02*
X136277937Y-62364718D01*
X136277937Y-62364718D02*
X136338413Y-62425194D01*
X136338413Y-62425194D02*
X136398889Y-62455432D01*
X135794127Y-62334480D02*
X135763889Y-62304242D01*
X135763889Y-62304242D02*
X135703413Y-62274004D01*
X135703413Y-62274004D02*
X135552222Y-62274004D01*
X135552222Y-62274004D02*
X135491746Y-62304242D01*
X135491746Y-62304242D02*
X135461508Y-62334480D01*
X135461508Y-62334480D02*
X135431270Y-62394956D01*
X135431270Y-62394956D02*
X135431270Y-62455432D01*
X135431270Y-62455432D02*
X135461508Y-62546146D01*
X135461508Y-62546146D02*
X135824365Y-62909004D01*
X135824365Y-62909004D02*
X135431270Y-62909004D01*
%TO.C,REF\u002A\u002A*%
G36*
X139270231Y-65181879D02*
G01*
X139268239Y-65183871D01*
X139266247Y-65181879D01*
X139268239Y-65179887D01*
X139270231Y-65181879D01*
G37*
G36*
X139262262Y-65177894D02*
G01*
X139260270Y-65179887D01*
X139258278Y-65177894D01*
X139260270Y-65175902D01*
X139262262Y-65177894D01*
G37*
G36*
X141075190Y-66909239D02*
G01*
X141304223Y-66909400D01*
X141352035Y-66954927D01*
X141399847Y-67000453D01*
X141168691Y-67000586D01*
X140937536Y-67000718D01*
X140891847Y-66954898D01*
X140846157Y-66909079D01*
X141075190Y-66909239D01*
G37*
G36*
X137875721Y-65964796D02*
G01*
X137875721Y-66606271D01*
X137700411Y-66606271D01*
X137525101Y-66606271D01*
X137525101Y-65964796D01*
X137525101Y-65323322D01*
X137700411Y-65323322D01*
X137875721Y-65323322D01*
X137875721Y-65964796D01*
G37*
G36*
X140156198Y-67292086D02*
G01*
X140176866Y-67300342D01*
X140205100Y-67311368D01*
X140236080Y-67323261D01*
X140267285Y-67335055D01*
X140296192Y-67345781D01*
X140375878Y-67375001D01*
X140048066Y-67375122D01*
X139720255Y-67375243D01*
X139638731Y-67322451D01*
X139557208Y-67269659D01*
X139826549Y-67268635D01*
X140095890Y-67267611D01*
X140156198Y-67292086D01*
G37*
G36*
X139346157Y-66891597D02*
G01*
X139351503Y-66894686D01*
X139365512Y-66902630D01*
X139384396Y-66913221D01*
X139406814Y-66925712D01*
X139431427Y-66939355D01*
X139456895Y-66953400D01*
X139542917Y-67000718D01*
X139359758Y-67000684D01*
X139176600Y-67000650D01*
X139095701Y-66939923D01*
X139014803Y-66879196D01*
X139168122Y-66878154D01*
X139321441Y-66877111D01*
X139346157Y-66891597D01*
G37*
G36*
X139792515Y-67127415D02*
G01*
X139811812Y-67136813D01*
X139840568Y-67150806D01*
X139867136Y-67163720D01*
X139890520Y-67175073D01*
X139909727Y-67184383D01*
X139923761Y-67191165D01*
X139931627Y-67194937D01*
X139949556Y-67203424D01*
X139704521Y-67203531D01*
X139459486Y-67203639D01*
X139365345Y-67137041D01*
X139271204Y-67070443D01*
X139471268Y-67069411D01*
X139671332Y-67068379D01*
X139792515Y-67127415D01*
G37*
G36*
X137956403Y-67045684D02*
G01*
X138296066Y-67046538D01*
X138297114Y-67184992D01*
X138298162Y-67323447D01*
X138192526Y-67323447D01*
X138086890Y-67323447D01*
X138086890Y-67747777D01*
X138086890Y-68172106D01*
X137951423Y-68172106D01*
X137815956Y-68172106D01*
X137815956Y-67747777D01*
X137815956Y-67323447D01*
X137716349Y-67323447D01*
X137616741Y-67323447D01*
X137616741Y-67184139D01*
X137616741Y-67044831D01*
X137956403Y-67045684D01*
G37*
G36*
X136090749Y-65968781D02*
G01*
X136090749Y-66606271D01*
X135708254Y-66606271D01*
X135325760Y-66606271D01*
X135325760Y-66466820D01*
X135325760Y-66327369D01*
X135566811Y-66327369D01*
X135807862Y-66327369D01*
X135807862Y-66193894D01*
X135807862Y-66060420D01*
X135594701Y-66060420D01*
X135381541Y-66060420D01*
X135381541Y-65936906D01*
X135381541Y-65813392D01*
X135594701Y-65813392D01*
X135807862Y-65813392D01*
X135807862Y-65701832D01*
X135807862Y-65590271D01*
X135576772Y-65590271D01*
X135345682Y-65590271D01*
X135345682Y-65460781D01*
X135345682Y-65331290D01*
X135718215Y-65331290D01*
X136090749Y-65331290D01*
X136090749Y-65968781D01*
G37*
G36*
X141375038Y-67268634D02*
G01*
X141634921Y-67269659D01*
X141667792Y-67319030D01*
X141673258Y-67327287D01*
X141684079Y-67343946D01*
X141692773Y-67357755D01*
X141698560Y-67367464D01*
X141700662Y-67371822D01*
X141697086Y-67372355D01*
X141686144Y-67372884D01*
X141668454Y-67373378D01*
X141644636Y-67373829D01*
X141615314Y-67374231D01*
X141581110Y-67374576D01*
X141542645Y-67374857D01*
X141500543Y-67375067D01*
X141455425Y-67375198D01*
X141407915Y-67375243D01*
X141115167Y-67375243D01*
X141118056Y-67362294D01*
X141119724Y-67350369D01*
X141120706Y-67332376D01*
X141120755Y-67312592D01*
X141119869Y-67294251D01*
X141118050Y-67280587D01*
X141115156Y-67267609D01*
X141375038Y-67268634D01*
G37*
G36*
X141116076Y-66731030D02*
G01*
X141116536Y-66731450D01*
X141132557Y-66746228D01*
X141151843Y-66764227D01*
X141172010Y-66783212D01*
X141190670Y-66800945D01*
X141232505Y-66840948D01*
X141005400Y-66841029D01*
X140778294Y-66841109D01*
X140708101Y-66774490D01*
X140693812Y-66760909D01*
X140675826Y-66743751D01*
X140660510Y-66729067D01*
X140648643Y-66717607D01*
X140641005Y-66710122D01*
X140638375Y-66707362D01*
X140640218Y-66707275D01*
X140649152Y-66707070D01*
X140664853Y-66706784D01*
X140686606Y-66706429D01*
X140713695Y-66706015D01*
X140745402Y-66705553D01*
X140781013Y-66705053D01*
X140819811Y-66704527D01*
X140861080Y-66703986D01*
X141083318Y-66701119D01*
X141116076Y-66731030D01*
G37*
G36*
X140310137Y-65478710D02*
G01*
X140310137Y-65634098D01*
X140156741Y-65634098D01*
X140003345Y-65634098D01*
X140003345Y-66120185D01*
X140003345Y-66606271D01*
X139847846Y-66606271D01*
X139692348Y-66606271D01*
X139694434Y-66443910D01*
X139694755Y-66417322D01*
X139695158Y-66380294D01*
X139695591Y-66337283D01*
X139696044Y-66289351D01*
X139696507Y-66237559D01*
X139696972Y-66182968D01*
X139697429Y-66126637D01*
X139697869Y-66069629D01*
X139698283Y-66013005D01*
X139698661Y-65957824D01*
X139700802Y-65634098D01*
X139535320Y-65634098D01*
X139369839Y-65634098D01*
X139369839Y-65478710D01*
X139369839Y-65323322D01*
X139839988Y-65323322D01*
X140310137Y-65323322D01*
X140310137Y-65478710D01*
G37*
G36*
X141489976Y-67091361D02*
G01*
X141498747Y-67100902D01*
X141512853Y-67116784D01*
X141528320Y-67134642D01*
X141543090Y-67152122D01*
X141555781Y-67167366D01*
X141567061Y-67180901D01*
X141575700Y-67191251D01*
X141580470Y-67196945D01*
X141581354Y-67198365D01*
X141581052Y-67199579D01*
X141578996Y-67200602D01*
X141574622Y-67201449D01*
X141567366Y-67202138D01*
X141556660Y-67202683D01*
X141541942Y-67203102D01*
X141522646Y-67203410D01*
X141498206Y-67203623D01*
X141468057Y-67203758D01*
X141431635Y-67203830D01*
X141388375Y-67203855D01*
X141337711Y-67203850D01*
X141089070Y-67203783D01*
X141074431Y-67176651D01*
X141067492Y-67164744D01*
X141056172Y-67147006D01*
X141043001Y-67127590D01*
X141029626Y-67108985D01*
X140999460Y-67068451D01*
X141233910Y-67068451D01*
X141468359Y-67068451D01*
X141489976Y-67091361D01*
G37*
G36*
X135106623Y-65946541D02*
G01*
X135106614Y-66003114D01*
X135106577Y-66072738D01*
X135106512Y-66139906D01*
X135106423Y-66204193D01*
X135106309Y-66265175D01*
X135106173Y-66322429D01*
X135106017Y-66375530D01*
X135105841Y-66424055D01*
X135105647Y-66467579D01*
X135105438Y-66505679D01*
X135105214Y-66537930D01*
X135104977Y-66563909D01*
X135104729Y-66583191D01*
X135104471Y-66595352D01*
X135104205Y-66599969D01*
X135103893Y-66600562D01*
X135102109Y-66601955D01*
X135098402Y-66603104D01*
X135092102Y-66604033D01*
X135082535Y-66604764D01*
X135069032Y-66605320D01*
X135050918Y-66605723D01*
X135027524Y-66605997D01*
X134998176Y-66606164D01*
X134962203Y-66606248D01*
X134918934Y-66606271D01*
X134736082Y-66606271D01*
X134736082Y-65952843D01*
X134736082Y-65299416D01*
X134921352Y-65299416D01*
X135106623Y-65299416D01*
X135106623Y-65946541D01*
G37*
G36*
X140812718Y-66468848D02*
G01*
X140819644Y-66473707D01*
X140833638Y-66484347D01*
X140851778Y-66498732D01*
X140872993Y-66515981D01*
X140896214Y-66535216D01*
X140920373Y-66555555D01*
X140944400Y-66576119D01*
X140967226Y-66596027D01*
X141012723Y-66636153D01*
X140863634Y-66638145D01*
X140837221Y-66638500D01*
X140798793Y-66639022D01*
X140760574Y-66639547D01*
X140724118Y-66640054D01*
X140690975Y-66640521D01*
X140662697Y-66640926D01*
X140640835Y-66641248D01*
X140567125Y-66642358D01*
X140504195Y-66585977D01*
X140497467Y-66579923D01*
X140479719Y-66563679D01*
X140464637Y-66549477D01*
X140453052Y-66538122D01*
X140445790Y-66530420D01*
X140443683Y-66527177D01*
X140446377Y-66526359D01*
X140456207Y-66524149D01*
X140472459Y-66520782D01*
X140494337Y-66516414D01*
X140521043Y-66511202D01*
X140551780Y-66505304D01*
X140585751Y-66498876D01*
X140622158Y-66492075D01*
X140798215Y-66459391D01*
X140812718Y-66468848D01*
G37*
G36*
X139081972Y-66736612D02*
G01*
X139103575Y-66749673D01*
X139129312Y-66765387D01*
X139152131Y-66779491D01*
X139171245Y-66791489D01*
X139185871Y-66800890D01*
X139195222Y-66807197D01*
X139198513Y-66809918D01*
X139196542Y-66810461D01*
X139187592Y-66811184D01*
X139172254Y-66811842D01*
X139151454Y-66812411D01*
X139126112Y-66812868D01*
X139097154Y-66813188D01*
X139065502Y-66813348D01*
X138932490Y-66813642D01*
X138904864Y-66792631D01*
X138898492Y-66787750D01*
X138884105Y-66776578D01*
X138867046Y-66763192D01*
X138848308Y-66748386D01*
X138828884Y-66732954D01*
X138809766Y-66717688D01*
X138791947Y-66703383D01*
X138776419Y-66690831D01*
X138764175Y-66680827D01*
X138756208Y-66674164D01*
X138753511Y-66671635D01*
X138757354Y-66671411D01*
X138768146Y-66671046D01*
X138784836Y-66670570D01*
X138806380Y-66670012D01*
X138831732Y-66669400D01*
X138859847Y-66668762D01*
X138965431Y-66666442D01*
X139081972Y-66736612D01*
G37*
G36*
X141796256Y-67661118D02*
G01*
X141796231Y-67662393D01*
X141795298Y-67673702D01*
X141793348Y-67689242D01*
X141790832Y-67705972D01*
X141788201Y-67720853D01*
X141785905Y-67730843D01*
X141785535Y-67731521D01*
X141784403Y-67732334D01*
X141782214Y-67733074D01*
X141778624Y-67733745D01*
X141773287Y-67734349D01*
X141765857Y-67734891D01*
X141755989Y-67735373D01*
X141743337Y-67735799D01*
X141727555Y-67736173D01*
X141708297Y-67736498D01*
X141685219Y-67736778D01*
X141657974Y-67737015D01*
X141626217Y-67737213D01*
X141589602Y-67737376D01*
X141547784Y-67737507D01*
X141500416Y-67737610D01*
X141447154Y-67737687D01*
X141387651Y-67737742D01*
X141321562Y-67737780D01*
X141248541Y-67737802D01*
X141168244Y-67737813D01*
X141080323Y-67737816D01*
X140376849Y-67737816D01*
X140316744Y-67708930D01*
X140305615Y-67703559D01*
X140282697Y-67692380D01*
X140260863Y-67681588D01*
X140242153Y-67672194D01*
X140228604Y-67665207D01*
X140200568Y-67650371D01*
X140998427Y-67650266D01*
X141796286Y-67650161D01*
X141796256Y-67661118D01*
G37*
G36*
X137164521Y-67044597D02*
G01*
X137457368Y-67044745D01*
X137457368Y-67608426D01*
X137457368Y-68172106D01*
X137164521Y-68172106D01*
X136871674Y-68172106D01*
X136871674Y-68050585D01*
X136871674Y-67929063D01*
X137056945Y-67929063D01*
X137242215Y-67929063D01*
X137242215Y-67811526D01*
X137242202Y-67786509D01*
X137242116Y-67757972D01*
X137241905Y-67735960D01*
X137241520Y-67719634D01*
X137240912Y-67708154D01*
X137240029Y-67700680D01*
X137238824Y-67696373D01*
X137237245Y-67694394D01*
X137235243Y-67693903D01*
X137234273Y-67693897D01*
X137226393Y-67693885D01*
X137211734Y-67693883D01*
X137191185Y-67693889D01*
X137165637Y-67693902D01*
X137135981Y-67693924D01*
X137103105Y-67693952D01*
X137067901Y-67693987D01*
X136907533Y-67694157D01*
X136907533Y-67580520D01*
X136907533Y-67466883D01*
X137074950Y-67466883D01*
X137242368Y-67466883D01*
X137241295Y-67378232D01*
X137240223Y-67289581D01*
X137055949Y-67288545D01*
X136871674Y-67287509D01*
X136871674Y-67165979D01*
X136871674Y-67044448D01*
X137164521Y-67044597D01*
G37*
G36*
X141290691Y-67821771D02*
G01*
X141352943Y-67821843D01*
X141412112Y-67821954D01*
X141467754Y-67822100D01*
X141519425Y-67822280D01*
X141566680Y-67822491D01*
X141609075Y-67822732D01*
X141646166Y-67823000D01*
X141677510Y-67823292D01*
X141702661Y-67823606D01*
X141721176Y-67823941D01*
X141732611Y-67824294D01*
X141736521Y-67824662D01*
X141735473Y-67826829D01*
X141730059Y-67833447D01*
X141721580Y-67842113D01*
X141697434Y-67863016D01*
X141656197Y-67890861D01*
X141609044Y-67914275D01*
X141555739Y-67933351D01*
X141496046Y-67948185D01*
X141429729Y-67958871D01*
X141398037Y-67961894D01*
X141354982Y-67964001D01*
X141307291Y-67964597D01*
X141256674Y-67963738D01*
X141204844Y-67961478D01*
X141153512Y-67957874D01*
X141104390Y-67952981D01*
X141059188Y-67946854D01*
X141041042Y-67943888D01*
X140982037Y-67932987D01*
X140919770Y-67919788D01*
X140856110Y-67904767D01*
X140792923Y-67888401D01*
X140732080Y-67871168D01*
X140675449Y-67853544D01*
X140624898Y-67836006D01*
X140587047Y-67822012D01*
X141161784Y-67821749D01*
X141225800Y-67821740D01*
X141290691Y-67821771D01*
G37*
G36*
X140664403Y-67452645D02*
G01*
X140672479Y-67454214D01*
X140713191Y-67461723D01*
X140748483Y-67467387D01*
X140780280Y-67471421D01*
X140810503Y-67474037D01*
X140841074Y-67475449D01*
X140873917Y-67475869D01*
X140883025Y-67475823D01*
X140927453Y-67474034D01*
X140966166Y-67469463D01*
X141000726Y-67461865D01*
X141032691Y-67450995D01*
X141061180Y-67439499D01*
X141396531Y-67439203D01*
X141443337Y-67439169D01*
X141497705Y-67439158D01*
X141544976Y-67439193D01*
X141585646Y-67439280D01*
X141620208Y-67439430D01*
X141649155Y-67439650D01*
X141672982Y-67439947D01*
X141692183Y-67440332D01*
X141707251Y-67440811D01*
X141718681Y-67441393D01*
X141726966Y-67442087D01*
X141732601Y-67442900D01*
X141736078Y-67443841D01*
X141737893Y-67444918D01*
X141737982Y-67445009D01*
X141742523Y-67452124D01*
X141748729Y-67465102D01*
X141755920Y-67482240D01*
X141763414Y-67501835D01*
X141770529Y-67522186D01*
X141776585Y-67541589D01*
X141783770Y-67566490D01*
X140912456Y-67566490D01*
X140041142Y-67566490D01*
X140001326Y-67544123D01*
X139987954Y-67536523D01*
X139967138Y-67524511D01*
X139943163Y-67510532D01*
X139918039Y-67495761D01*
X139893776Y-67481370D01*
X139826043Y-67440985D01*
X140210191Y-67439968D01*
X140594339Y-67438952D01*
X140664403Y-67452645D01*
G37*
G36*
X134999047Y-67261690D02*
G01*
X134999058Y-67308651D01*
X134999108Y-67348506D01*
X134999214Y-67381627D01*
X134999397Y-67408634D01*
X134999677Y-67430147D01*
X135000074Y-67446784D01*
X135000607Y-67459166D01*
X135001297Y-67467911D01*
X135002163Y-67473638D01*
X135003226Y-67476967D01*
X135004505Y-67478517D01*
X135006019Y-67478907D01*
X135006333Y-67478909D01*
X135012533Y-67478918D01*
X135025611Y-67478925D01*
X135044642Y-67478930D01*
X135068702Y-67478934D01*
X135096866Y-67478935D01*
X135128209Y-67478935D01*
X135161807Y-67478933D01*
X135196735Y-67478930D01*
X135232069Y-67478926D01*
X135266884Y-67478920D01*
X135300256Y-67478914D01*
X135331259Y-67478906D01*
X135358970Y-67478898D01*
X135382464Y-67478888D01*
X135400816Y-67478879D01*
X135413101Y-67478868D01*
X135418396Y-67478857D01*
X135418722Y-67477562D01*
X135419264Y-67469442D01*
X135419767Y-67454492D01*
X135420220Y-67433434D01*
X135420612Y-67406992D01*
X135420935Y-67375889D01*
X135421178Y-67340846D01*
X135421331Y-67302588D01*
X135421384Y-67261837D01*
X135421384Y-67044838D01*
X135559839Y-67045688D01*
X135698294Y-67046538D01*
X135699304Y-67607330D01*
X135700313Y-68168122D01*
X135560849Y-68168122D01*
X135421384Y-68168122D01*
X135421384Y-67935039D01*
X135421384Y-67701957D01*
X135210215Y-67701957D01*
X134999047Y-67701957D01*
X134999047Y-67935039D01*
X134999047Y-68168122D01*
X134867564Y-68168122D01*
X134736082Y-68168122D01*
X134736082Y-67606334D01*
X134736082Y-67044545D01*
X134867564Y-67044545D01*
X134999047Y-67044545D01*
X134999047Y-67261690D01*
G37*
G36*
X137274090Y-65964796D02*
G01*
X137274090Y-66606271D01*
X137096788Y-66606271D01*
X136919486Y-66606271D01*
X136919486Y-66367212D01*
X136919486Y-66128153D01*
X136792984Y-66128142D01*
X136781847Y-66128124D01*
X136749001Y-66127890D01*
X136717426Y-66127410D01*
X136688461Y-66126720D01*
X136663446Y-66125858D01*
X136643720Y-66124859D01*
X136630623Y-66123759D01*
X136584502Y-66115996D01*
X136534677Y-66102596D01*
X136488365Y-66084756D01*
X136446867Y-66062986D01*
X136411486Y-66037796D01*
X136404495Y-66031727D01*
X136374638Y-66001070D01*
X136346922Y-65965249D01*
X136322656Y-65926309D01*
X136303147Y-65886297D01*
X136289705Y-65847259D01*
X136285503Y-65827188D01*
X136281645Y-65797609D01*
X136279246Y-65764573D01*
X136278414Y-65730499D01*
X136278770Y-65716631D01*
X136629462Y-65716631D01*
X136631729Y-65754145D01*
X136633173Y-65762901D01*
X136642304Y-65795712D01*
X136656698Y-65822921D01*
X136676642Y-65844791D01*
X136702428Y-65861582D01*
X136734345Y-65873553D01*
X136772683Y-65880967D01*
X136774041Y-65881132D01*
X136791508Y-65882683D01*
X136813927Y-65883947D01*
X136838556Y-65884798D01*
X136862651Y-65885110D01*
X136919577Y-65885110D01*
X136918535Y-65726734D01*
X136917494Y-65568357D01*
X136843784Y-65568920D01*
X136828617Y-65569096D01*
X136793351Y-65570202D01*
X136764409Y-65572466D01*
X136740622Y-65576180D01*
X136720820Y-65581636D01*
X136703834Y-65589124D01*
X136688497Y-65598937D01*
X136673638Y-65611366D01*
X136661532Y-65624196D01*
X136644568Y-65650958D01*
X136633810Y-65682003D01*
X136629462Y-65716631D01*
X136278770Y-65716631D01*
X136279254Y-65697806D01*
X136281872Y-65668911D01*
X136291259Y-65619861D01*
X136308313Y-65567555D01*
X136332160Y-65519348D01*
X136362886Y-65475075D01*
X136400574Y-65434570D01*
X136435939Y-65405153D01*
X136479516Y-65377721D01*
X136527608Y-65356076D01*
X136580759Y-65339979D01*
X136639516Y-65329188D01*
X136640222Y-65329095D01*
X136650568Y-65327963D01*
X136663323Y-65326983D01*
X136679042Y-65326144D01*
X136698283Y-65325438D01*
X136721601Y-65324855D01*
X136749551Y-65324384D01*
X136782691Y-65324018D01*
X136821575Y-65323746D01*
X136866759Y-65323558D01*
X136918801Y-65323446D01*
X136978254Y-65323400D01*
X137274090Y-65323322D01*
X137274090Y-65885110D01*
X137274090Y-65964796D01*
G37*
G36*
X136166216Y-67049367D02*
G01*
X136194229Y-67050407D01*
X136217467Y-67052420D01*
X136219471Y-67052673D01*
X136289151Y-67065562D01*
X136356687Y-67085990D01*
X136421548Y-67113695D01*
X136483205Y-67148418D01*
X136541126Y-67189897D01*
X136594781Y-67237873D01*
X136595699Y-67238789D01*
X136638141Y-67285926D01*
X136673402Y-67335550D01*
X136701950Y-67388523D01*
X136724250Y-67445708D01*
X136740769Y-67507967D01*
X136743142Y-67520819D01*
X136746988Y-67552228D01*
X136749305Y-67587799D01*
X136750070Y-67625141D01*
X136749261Y-67661862D01*
X136746854Y-67695569D01*
X136742827Y-67723871D01*
X136738008Y-67746586D01*
X136721325Y-67805550D01*
X136699279Y-67859513D01*
X136671268Y-67909616D01*
X136636688Y-67956996D01*
X136594935Y-68002792D01*
X136562559Y-68033215D01*
X136507982Y-68076702D01*
X136450369Y-68113207D01*
X136389261Y-68142941D01*
X136324202Y-68166116D01*
X136254733Y-68182941D01*
X136180396Y-68193628D01*
X136164768Y-68194492D01*
X136140266Y-68194362D01*
X136112400Y-68193059D01*
X136083642Y-68190748D01*
X136056464Y-68187595D01*
X136033338Y-68183765D01*
X136017606Y-68180183D01*
X135984036Y-68170374D01*
X135949804Y-68157861D01*
X135917057Y-68143542D01*
X135887939Y-68128316D01*
X135864595Y-68113081D01*
X135855586Y-68106264D01*
X135856626Y-67938157D01*
X135857666Y-67770049D01*
X135881572Y-67804692D01*
X135895907Y-67824997D01*
X135910361Y-67843807D01*
X135923282Y-67858074D01*
X135935996Y-67869082D01*
X135949831Y-67878114D01*
X135966112Y-67886452D01*
X135983408Y-67894180D01*
X136014097Y-67905470D01*
X136044410Y-67912903D01*
X136077034Y-67917057D01*
X136114654Y-67918513D01*
X136132106Y-67918418D01*
X136156462Y-67917532D01*
X136177279Y-67915882D01*
X136192349Y-67913608D01*
X136196336Y-67912700D01*
X136244012Y-67897878D01*
X136287823Y-67876872D01*
X136327181Y-67850223D01*
X136361495Y-67818470D01*
X136390175Y-67782151D01*
X136412631Y-67741805D01*
X136428274Y-67697973D01*
X136431410Y-67683001D01*
X136434522Y-67655011D01*
X136435499Y-67623730D01*
X136434376Y-67591818D01*
X136431193Y-67561937D01*
X136425986Y-67536748D01*
X136424073Y-67530254D01*
X136406652Y-67486480D01*
X136382653Y-67447170D01*
X136352160Y-67412425D01*
X136315259Y-67382342D01*
X136272035Y-67357023D01*
X136252669Y-67347945D01*
X136221641Y-67336046D01*
X136191094Y-67328281D01*
X136158326Y-67324037D01*
X136120631Y-67322701D01*
X136097433Y-67323009D01*
X136067697Y-67325037D01*
X136040806Y-67329422D01*
X136013781Y-67336701D01*
X135983646Y-67347410D01*
X135974572Y-67351020D01*
X135954408Y-67360366D01*
X135937798Y-67370830D01*
X135922941Y-67383902D01*
X135908034Y-67401073D01*
X135891274Y-67423835D01*
X135890388Y-67425098D01*
X135879213Y-67440928D01*
X135869602Y-67454395D01*
X135862554Y-67464108D01*
X135859067Y-67468676D01*
X135858532Y-67467076D01*
X135857863Y-67458528D01*
X135857257Y-67443358D01*
X135856727Y-67422332D01*
X135856289Y-67396218D01*
X135855957Y-67365784D01*
X135855747Y-67331796D01*
X135855674Y-67295023D01*
X135855674Y-67117584D01*
X135890537Y-67101151D01*
X135894090Y-67099491D01*
X135953441Y-67075888D01*
X136016050Y-67058264D01*
X136023677Y-67056763D01*
X136045928Y-67053796D01*
X136073283Y-67051515D01*
X136103767Y-67049978D01*
X136135403Y-67049243D01*
X136166216Y-67049367D01*
G37*
G36*
X136628553Y-63998416D02*
G01*
X136678114Y-63999967D01*
X136728032Y-64002565D01*
X136777037Y-64006196D01*
X136823862Y-64010848D01*
X136921391Y-64024357D01*
X137026457Y-64044221D01*
X137133435Y-64069901D01*
X137242842Y-64101547D01*
X137355200Y-64139311D01*
X137471027Y-64183343D01*
X137590843Y-64233796D01*
X137592850Y-64234680D01*
X137647256Y-64259329D01*
X137706103Y-64287230D01*
X137769526Y-64318459D01*
X137837661Y-64353092D01*
X137910641Y-64391206D01*
X137988602Y-64432875D01*
X138071678Y-64478177D01*
X138160005Y-64527187D01*
X138253716Y-64579981D01*
X138352948Y-64636634D01*
X138457834Y-64697224D01*
X138568511Y-64761825D01*
X138685111Y-64830514D01*
X138807771Y-64903366D01*
X138936625Y-64980458D01*
X139071808Y-65061866D01*
X139213454Y-65147665D01*
X139213689Y-65147808D01*
X139229465Y-65157549D01*
X139242375Y-65165820D01*
X139251093Y-65171748D01*
X139254294Y-65174465D01*
X139253872Y-65174572D01*
X139248604Y-65172516D01*
X139238580Y-65167582D01*
X139225407Y-65160545D01*
X139225118Y-65160386D01*
X139211181Y-65152894D01*
X139191013Y-65142298D01*
X139165490Y-65129043D01*
X139135485Y-65113575D01*
X139101873Y-65096338D01*
X139065529Y-65077777D01*
X139027326Y-65058337D01*
X138988139Y-65038463D01*
X138948843Y-65018600D01*
X138910312Y-64999193D01*
X138873420Y-64980688D01*
X138839041Y-64963528D01*
X138808050Y-64948158D01*
X138719314Y-64904587D01*
X138580040Y-64837284D01*
X138445855Y-64773807D01*
X138316843Y-64714185D01*
X138193086Y-64658447D01*
X138074667Y-64606622D01*
X137961668Y-64558739D01*
X137854173Y-64514826D01*
X137752264Y-64474911D01*
X137656023Y-64439025D01*
X137565535Y-64407195D01*
X137480880Y-64379450D01*
X137402143Y-64355820D01*
X137329406Y-64336332D01*
X137262751Y-64321015D01*
X137202261Y-64309899D01*
X137148019Y-64303011D01*
X137100108Y-64300382D01*
X137058611Y-64302039D01*
X137023610Y-64308011D01*
X136995188Y-64318327D01*
X136991398Y-64320268D01*
X136973434Y-64332034D01*
X136962248Y-64345593D01*
X136956828Y-64362676D01*
X136956158Y-64385016D01*
X136957085Y-64394748D01*
X136962480Y-64418189D01*
X136972687Y-64443456D01*
X136988041Y-64471110D01*
X137008874Y-64501714D01*
X137035521Y-64535830D01*
X137068316Y-64574020D01*
X137076165Y-64582675D01*
X137099327Y-64606880D01*
X137125980Y-64633208D01*
X137155003Y-64660667D01*
X137185279Y-64688267D01*
X137215689Y-64715016D01*
X137245115Y-64739925D01*
X137272437Y-64762001D01*
X137296538Y-64780255D01*
X137316298Y-64793694D01*
X137331862Y-64803369D01*
X137142644Y-64804405D01*
X136953425Y-64805440D01*
X136941436Y-64796700D01*
X136924396Y-64783734D01*
X136902160Y-64765934D01*
X136875984Y-64744347D01*
X136846823Y-64719802D01*
X136815633Y-64693128D01*
X136783372Y-64665155D01*
X136750994Y-64636711D01*
X136719457Y-64608627D01*
X136689716Y-64581730D01*
X136662728Y-64556851D01*
X136639448Y-64534818D01*
X136586470Y-64482849D01*
X136532739Y-64427754D01*
X136485536Y-64376484D01*
X136444719Y-64328858D01*
X136410148Y-64284696D01*
X136381682Y-64243815D01*
X136359180Y-64206036D01*
X136342502Y-64171177D01*
X136331505Y-64139058D01*
X136327152Y-64116630D01*
X136327247Y-64088794D01*
X136334368Y-64064652D01*
X136348458Y-64044284D01*
X136369457Y-64027766D01*
X136397305Y-64015177D01*
X136431944Y-64006595D01*
X136459221Y-64002963D01*
X136494681Y-64000186D01*
X136535568Y-63998512D01*
X136580615Y-63997927D01*
X136628553Y-63998416D01*
G37*
G36*
X139198415Y-66160500D02*
G01*
X139215267Y-66209832D01*
X139219409Y-66221958D01*
X139239303Y-66280201D01*
X139257963Y-66334836D01*
X139275255Y-66385469D01*
X139291044Y-66431708D01*
X139305196Y-66473159D01*
X139317577Y-66509429D01*
X139328052Y-66540124D01*
X139336488Y-66564852D01*
X139342749Y-66583219D01*
X139346702Y-66594832D01*
X139348213Y-66599298D01*
X139348277Y-66599511D01*
X139348312Y-66601104D01*
X139346993Y-66602425D01*
X139343660Y-66603501D01*
X139337650Y-66604356D01*
X139328301Y-66605015D01*
X139314954Y-66605504D01*
X139296945Y-66605847D01*
X139273613Y-66606070D01*
X139244298Y-66606198D01*
X139208337Y-66606257D01*
X139165069Y-66606271D01*
X138979683Y-66606271D01*
X138975748Y-66591330D01*
X138973672Y-66583251D01*
X138969990Y-66568694D01*
X138965141Y-66549394D01*
X138959509Y-66526880D01*
X138953478Y-66502679D01*
X138947700Y-66479492D01*
X138942043Y-66456874D01*
X138937152Y-66437405D01*
X138933413Y-66422613D01*
X138931208Y-66414028D01*
X138927273Y-66399087D01*
X138745307Y-66399087D01*
X138563341Y-66399087D01*
X138409782Y-66314831D01*
X138393346Y-66305813D01*
X138354532Y-66284516D01*
X138321982Y-66266660D01*
X138295171Y-66251966D01*
X138273575Y-66240149D01*
X138256669Y-66230929D01*
X138243927Y-66224024D01*
X138234826Y-66219152D01*
X138228841Y-66216032D01*
X138225445Y-66214380D01*
X138224116Y-66213917D01*
X138224328Y-66214359D01*
X138225556Y-66215426D01*
X138227275Y-66216835D01*
X138231113Y-66220911D01*
X138231990Y-66224768D01*
X138231526Y-66226079D01*
X138234660Y-66229970D01*
X138237336Y-66231091D01*
X138236362Y-66227860D01*
X138235230Y-66225325D01*
X138237249Y-66224256D01*
X138237641Y-66224447D01*
X138243282Y-66227689D01*
X138254929Y-66234607D01*
X138271999Y-66244844D01*
X138293910Y-66258048D01*
X138319616Y-66273581D01*
X138320079Y-66273861D01*
X138349923Y-66291931D01*
X138372228Y-66305455D01*
X138382860Y-66311901D01*
X138418306Y-66333418D01*
X138424745Y-66337330D01*
X138455679Y-66356125D01*
X138473486Y-66366953D01*
X138494397Y-66379669D01*
X138519332Y-66394843D01*
X138533876Y-66403694D01*
X138565138Y-66422733D01*
X138573534Y-66427846D01*
X138612788Y-66451769D01*
X138651055Y-66475110D01*
X138687753Y-66497512D01*
X138722299Y-66518622D01*
X138754110Y-66538084D01*
X138782604Y-66555543D01*
X138807197Y-66570645D01*
X138827308Y-66583035D01*
X138842352Y-66592358D01*
X138851749Y-66598259D01*
X138854914Y-66600383D01*
X138853497Y-66600554D01*
X138845384Y-66600981D01*
X138831072Y-66601535D01*
X138811690Y-66602177D01*
X138788367Y-66602867D01*
X138762231Y-66603568D01*
X138670592Y-66605905D01*
X138584022Y-66532531D01*
X138497453Y-66459158D01*
X138483106Y-66505820D01*
X138477897Y-66522729D01*
X138471159Y-66544528D01*
X138465008Y-66564351D01*
X138460319Y-66579377D01*
X138451878Y-66606271D01*
X138265400Y-66606271D01*
X138229578Y-66606215D01*
X138194286Y-66606044D01*
X138162284Y-66605770D01*
X138134353Y-66605405D01*
X138111271Y-66604962D01*
X138093819Y-66604453D01*
X138082775Y-66603891D01*
X138078921Y-66603288D01*
X138078957Y-66603127D01*
X138080614Y-66597857D01*
X138084651Y-66585487D01*
X138090938Y-66566406D01*
X138099345Y-66541004D01*
X138109743Y-66509670D01*
X138122001Y-66472793D01*
X138135990Y-66430765D01*
X138141148Y-66415283D01*
X138446455Y-66415283D01*
X138447470Y-66419008D01*
X138448289Y-66420188D01*
X138451925Y-66422992D01*
X138452470Y-66422733D01*
X138451454Y-66419008D01*
X138450636Y-66417829D01*
X138447000Y-66415024D01*
X138446455Y-66415283D01*
X138141148Y-66415283D01*
X138150441Y-66387393D01*
X138414580Y-66387393D01*
X138415596Y-66391118D01*
X138416414Y-66392297D01*
X138420050Y-66395102D01*
X138420595Y-66394843D01*
X138419580Y-66391118D01*
X138418761Y-66389938D01*
X138415125Y-66387134D01*
X138414580Y-66387393D01*
X138150441Y-66387393D01*
X138151581Y-66383973D01*
X138159740Y-66359503D01*
X138382706Y-66359503D01*
X138383721Y-66363228D01*
X138384540Y-66364407D01*
X138388176Y-66367212D01*
X138388721Y-66366953D01*
X138387705Y-66363228D01*
X138386887Y-66362048D01*
X138383251Y-66359243D01*
X138382706Y-66359503D01*
X138159740Y-66359503D01*
X138167134Y-66337330D01*
X138353839Y-66337330D01*
X138355831Y-66339322D01*
X138357823Y-66337330D01*
X138355831Y-66335338D01*
X138353839Y-66337330D01*
X138167134Y-66337330D01*
X138168642Y-66332808D01*
X138177770Y-66305455D01*
X138317980Y-66305455D01*
X138319972Y-66307447D01*
X138321964Y-66305455D01*
X138319972Y-66303463D01*
X138317980Y-66305455D01*
X138177770Y-66305455D01*
X138187045Y-66277659D01*
X138188407Y-66273581D01*
X138282121Y-66273581D01*
X138284113Y-66275573D01*
X138286105Y-66273581D01*
X138284113Y-66271589D01*
X138282121Y-66273581D01*
X138188407Y-66273581D01*
X138206660Y-66218917D01*
X138209695Y-66209832D01*
X138214388Y-66209832D01*
X138216380Y-66211824D01*
X138218372Y-66209832D01*
X138216380Y-66207839D01*
X138214388Y-66209832D01*
X138209695Y-66209832D01*
X138227357Y-66156970D01*
X138237323Y-66127157D01*
X138585975Y-66127157D01*
X138586352Y-66128162D01*
X138589908Y-66129359D01*
X138597585Y-66130307D01*
X138610026Y-66131030D01*
X138627871Y-66131550D01*
X138651760Y-66131892D01*
X138682335Y-66132080D01*
X138720238Y-66132138D01*
X138739081Y-66132133D01*
X138772010Y-66132084D01*
X138798116Y-66131947D01*
X138818166Y-66131681D01*
X138832928Y-66131248D01*
X138843171Y-66130607D01*
X138849662Y-66129718D01*
X138853171Y-66128541D01*
X138854466Y-66127037D01*
X138854314Y-66125165D01*
X138853077Y-66120876D01*
X138849818Y-66109473D01*
X138844760Y-66091733D01*
X138838098Y-66068350D01*
X138830033Y-66040018D01*
X138820760Y-66007432D01*
X138810477Y-65971285D01*
X138799383Y-65932272D01*
X138787675Y-65891087D01*
X138776790Y-65852879D01*
X138765643Y-65813932D01*
X138755276Y-65777902D01*
X138745889Y-65745468D01*
X138737678Y-65717309D01*
X138730843Y-65694104D01*
X138725580Y-65676531D01*
X138722089Y-65665268D01*
X138720566Y-65660996D01*
X138720543Y-65660979D01*
X138718951Y-65664504D01*
X138715431Y-65675029D01*
X138710177Y-65691904D01*
X138703378Y-65714478D01*
X138695227Y-65742101D01*
X138685917Y-65774125D01*
X138675638Y-65809898D01*
X138664582Y-65848771D01*
X138652942Y-65890094D01*
X138652764Y-65890728D01*
X138641103Y-65932290D01*
X138630054Y-65971615D01*
X138619809Y-66008023D01*
X138610560Y-66040834D01*
X138602499Y-66069369D01*
X138595818Y-66092948D01*
X138590709Y-66110893D01*
X138587364Y-66122522D01*
X138585975Y-66127157D01*
X138237323Y-66127157D01*
X138249005Y-66092209D01*
X138271476Y-66025022D01*
X138294639Y-65955800D01*
X138510357Y-65311296D01*
X138709662Y-65312328D01*
X138908967Y-65313361D01*
X139127470Y-65952843D01*
X139130177Y-65960769D01*
X139153665Y-66029512D01*
X139176456Y-66096220D01*
X139186984Y-66127037D01*
X139198415Y-66160500D01*
G37*
%TD*%
%LPC*%
D11*
%TO.C,TP5*%
X130683000Y-59639200D03*
%TD*%
%TO.C,TP8*%
X146800000Y-59639200D03*
%TD*%
%TO.C,TP6*%
X146800000Y-71729600D03*
%TD*%
%TO.C,TP7*%
X130683000Y-71729600D03*
%TD*%
%LPD*%
M02*
