%TF.GenerationSoftware,KiCad,Pcbnew,7.0.10*%
%TF.CreationDate,2024-08-19T14:49:08+08:00*%
%TF.ProjectId,TPS61230_Booster_5V_Layout-240812_JLCPCB,54505336-3132-4333-905f-426f6f737465,rev?*%
%TF.SameCoordinates,Original*%
%TF.FileFunction,Soldermask,Top*%
%TF.FilePolarity,Negative*%
%FSLAX46Y46*%
G04 Gerber Fmt 4.6, Leading zero omitted, Abs format (unit mm)*
G04 Created by KiCad (PCBNEW 7.0.10) date 2024-08-19 14:49:08*
%MOMM*%
%LPD*%
G01*
G04 APERTURE LIST*
G04 Aperture macros list*
%AMRoundRect*
0 Rectangle with rounded corners*
0 $1 Rounding radius*
0 $2 $3 $4 $5 $6 $7 $8 $9 X,Y pos of 4 corners*
0 Add a 4 corners polygon primitive as box body*
4,1,4,$2,$3,$4,$5,$6,$7,$8,$9,$2,$3,0*
0 Add four circle primitives for the rounded corners*
1,1,$1+$1,$2,$3*
1,1,$1+$1,$4,$5*
1,1,$1+$1,$6,$7*
1,1,$1+$1,$8,$9*
0 Add four rect primitives between the rounded corners*
20,1,$1+$1,$2,$3,$4,$5,0*
20,1,$1+$1,$4,$5,$6,$7,0*
20,1,$1+$1,$6,$7,$8,$9,0*
20,1,$1+$1,$8,$9,$2,$3,0*%
G04 Aperture macros list end*
%ADD10C,0.203200*%
%ADD11C,0.010000*%
%ADD12RoundRect,0.237500X0.250000X0.237500X-0.250000X0.237500X-0.250000X-0.237500X0.250000X-0.237500X0*%
%ADD13R,1.500000X1.500000*%
%ADD14RoundRect,0.225000X0.250000X-0.225000X0.250000X0.225000X-0.250000X0.225000X-0.250000X-0.225000X0*%
%ADD15RoundRect,0.243750X-0.456250X0.243750X-0.456250X-0.243750X0.456250X-0.243750X0.456250X0.243750X0*%
%ADD16RoundRect,0.237500X0.237500X-0.250000X0.237500X0.250000X-0.237500X0.250000X-0.237500X-0.250000X0*%
%ADD17RoundRect,0.250000X0.475000X-0.250000X0.475000X0.250000X-0.475000X0.250000X-0.475000X-0.250000X0*%
%ADD18R,3.708400X1.092200*%
%ADD19RoundRect,0.250000X-0.475000X0.250000X-0.475000X-0.250000X0.475000X-0.250000X0.475000X0.250000X0*%
G04 APERTURE END LIST*
D10*
X142697200Y-68529200D02*
X142697200Y-68529200D01*
%TO.C,U1*%
D11*
X138289000Y-66855600D02*
X137549000Y-66855600D01*
X137549000Y-66475600D01*
X138289000Y-66475600D01*
X138289000Y-66855600D01*
G36*
X138289000Y-66855600D02*
G01*
X137549000Y-66855600D01*
X137549000Y-66475600D01*
X138289000Y-66475600D01*
X138289000Y-66855600D01*
G37*
X138289000Y-67355600D02*
X137549000Y-67355600D01*
X137549000Y-66975600D01*
X138289000Y-66975600D01*
X138289000Y-67355600D01*
G36*
X138289000Y-67355600D02*
G01*
X137549000Y-67355600D01*
X137549000Y-66975600D01*
X138289000Y-66975600D01*
X138289000Y-67355600D01*
G37*
X138289000Y-67855600D02*
X137549000Y-67855600D01*
X137549000Y-67475600D01*
X138289000Y-67475600D01*
X138289000Y-67855600D01*
G36*
X138289000Y-67855600D02*
G01*
X137549000Y-67855600D01*
X137549000Y-67475600D01*
X138289000Y-67475600D01*
X138289000Y-67855600D01*
G37*
X138289000Y-68355600D02*
X137549000Y-68355600D01*
X137549000Y-67975600D01*
X138289000Y-67975600D01*
X138289000Y-68355600D01*
G36*
X138289000Y-68355600D02*
G01*
X137549000Y-68355600D01*
X137549000Y-67975600D01*
X138289000Y-67975600D01*
X138289000Y-68355600D01*
G37*
X138289000Y-68855600D02*
X137549000Y-68855600D01*
X137549000Y-68475600D01*
X138289000Y-68475600D01*
X138289000Y-68855600D01*
G36*
X138289000Y-68855600D02*
G01*
X137549000Y-68855600D01*
X137549000Y-68475600D01*
X138289000Y-68475600D01*
X138289000Y-68855600D01*
G37*
X141089000Y-66855600D02*
X140349000Y-66855600D01*
X140349000Y-66475600D01*
X141089000Y-66475600D01*
X141089000Y-66855600D01*
G36*
X141089000Y-66855600D02*
G01*
X140349000Y-66855600D01*
X140349000Y-66475600D01*
X141089000Y-66475600D01*
X141089000Y-66855600D01*
G37*
X141089000Y-67355600D02*
X140349000Y-67355600D01*
X140349000Y-66975600D01*
X141089000Y-66975600D01*
X141089000Y-67355600D01*
G36*
X141089000Y-67355600D02*
G01*
X140349000Y-67355600D01*
X140349000Y-66975600D01*
X141089000Y-66975600D01*
X141089000Y-67355600D01*
G37*
X141089000Y-67855600D02*
X140349000Y-67855600D01*
X140349000Y-67475600D01*
X141089000Y-67475600D01*
X141089000Y-67855600D01*
G36*
X141089000Y-67855600D02*
G01*
X140349000Y-67855600D01*
X140349000Y-67475600D01*
X141089000Y-67475600D01*
X141089000Y-67855600D01*
G37*
X141089000Y-68355600D02*
X140349000Y-68355600D01*
X140349000Y-67975600D01*
X141089000Y-67975600D01*
X141089000Y-68355600D01*
G36*
X141089000Y-68355600D02*
G01*
X140349000Y-68355600D01*
X140349000Y-67975600D01*
X141089000Y-67975600D01*
X141089000Y-68355600D01*
G37*
X141089000Y-68855600D02*
X140349000Y-68855600D01*
X140349000Y-68475600D01*
X141089000Y-68475600D01*
X141089000Y-68855600D01*
G36*
X141089000Y-68855600D02*
G01*
X140349000Y-68855600D01*
X140349000Y-68475600D01*
X141089000Y-68475600D01*
X141089000Y-68855600D01*
G37*
X139264000Y-66395600D02*
X139374000Y-66395600D01*
X139374000Y-65895600D01*
X139764000Y-65895600D01*
X139764000Y-66395600D01*
X140214000Y-66395600D01*
X140214000Y-68935600D01*
X139764000Y-68935600D01*
X139764000Y-69435600D01*
X139374000Y-69435600D01*
X139374000Y-68935600D01*
X139264000Y-68935600D01*
X139264000Y-69435600D01*
X138874000Y-69435600D01*
X138874000Y-68935600D01*
X138424000Y-68935600D01*
X138424000Y-66395600D01*
X138874000Y-66395600D01*
X138874000Y-65895600D01*
X139264000Y-65895600D01*
X139264000Y-66395600D01*
G36*
X139264000Y-66395600D02*
G01*
X139374000Y-66395600D01*
X139374000Y-65895600D01*
X139764000Y-65895600D01*
X139764000Y-66395600D01*
X140214000Y-66395600D01*
X140214000Y-68935600D01*
X139764000Y-68935600D01*
X139764000Y-69435600D01*
X139374000Y-69435600D01*
X139374000Y-68935600D01*
X139264000Y-68935600D01*
X139264000Y-69435600D01*
X138874000Y-69435600D01*
X138874000Y-68935600D01*
X138424000Y-68935600D01*
X138424000Y-66395600D01*
X138874000Y-66395600D01*
X138874000Y-65895600D01*
X139264000Y-65895600D01*
X139264000Y-66395600D01*
G37*
%TD*%
D12*
%TO.C,R3*%
X139744000Y-71501000D03*
X137919000Y-71501000D03*
%TD*%
D13*
%TO.C,TP5*%
X130683000Y-59639200D03*
%TD*%
%TO.C,TP8*%
X146800000Y-59639200D03*
%TD*%
D14*
%TO.C,C2*%
X144018000Y-65799000D03*
X144018000Y-64249000D03*
%TD*%
D15*
%TO.C,D1*%
X145923000Y-63197500D03*
X145923000Y-65072500D03*
%TD*%
D16*
%TO.C,R2*%
X142494000Y-70357050D03*
X142494000Y-68532050D03*
%TD*%
D17*
%TO.C,C5*%
X135337600Y-68702000D03*
X135337600Y-66802000D03*
%TD*%
%TO.C,C4*%
X133223000Y-68702000D03*
X133223000Y-66802000D03*
%TD*%
D18*
%TO.C,L1*%
X137871200Y-61226700D03*
X137871200Y-63487300D03*
%TD*%
D13*
%TO.C,TP6*%
X146800000Y-71729600D03*
%TD*%
D16*
%TO.C,R1*%
X142494000Y-66063500D03*
X142494000Y-64238500D03*
%TD*%
D19*
%TO.C,C1*%
X133731000Y-61153000D03*
X133731000Y-63053000D03*
%TD*%
D14*
%TO.C,C6*%
X144145000Y-70082050D03*
X144145000Y-68532050D03*
%TD*%
D13*
%TO.C,TP7*%
X130683000Y-71729600D03*
%TD*%
D16*
%TO.C,R4*%
X145923000Y-68603500D03*
X145923000Y-66778500D03*
%TD*%
D17*
%TO.C,C3*%
X131108400Y-68702000D03*
X131108400Y-66802000D03*
%TD*%
M02*
