%TF.GenerationSoftware,KiCad,Pcbnew,7.0.10*%
%TF.CreationDate,2024-08-19T14:49:08+08:00*%
%TF.ProjectId,TPS61230_Booster_5V_Layout-240812_JLCPCB,54505336-3132-4333-905f-426f6f737465,rev?*%
%TF.SameCoordinates,Original*%
%TF.FileFunction,Copper,L1,Top*%
%TF.FilePolarity,Positive*%
%FSLAX46Y46*%
G04 Gerber Fmt 4.6, Leading zero omitted, Abs format (unit mm)*
G04 Created by KiCad (PCBNEW 7.0.10) date 2024-08-19 14:49:08*
%MOMM*%
%LPD*%
G01*
G04 APERTURE LIST*
G04 Aperture macros list*
%AMRoundRect*
0 Rectangle with rounded corners*
0 $1 Rounding radius*
0 $2 $3 $4 $5 $6 $7 $8 $9 X,Y pos of 4 corners*
0 Add a 4 corners polygon primitive as box body*
4,1,4,$2,$3,$4,$5,$6,$7,$8,$9,$2,$3,0*
0 Add four circle primitives for the rounded corners*
1,1,$1+$1,$2,$3*
1,1,$1+$1,$4,$5*
1,1,$1+$1,$6,$7*
1,1,$1+$1,$8,$9*
0 Add four rect primitives between the rounded corners*
20,1,$1+$1,$2,$3,$4,$5,0*
20,1,$1+$1,$4,$5,$6,$7,0*
20,1,$1+$1,$6,$7,$8,$9,0*
20,1,$1+$1,$8,$9,$2,$3,0*%
%AMFreePoly0*
4,1,45,-0.121464,1.703536,-0.120000,1.700000,-0.120000,1.205000,0.120000,1.205000,0.120000,1.700000,0.121464,1.703536,0.125000,1.705000,0.375000,1.705000,0.378536,1.703536,0.380000,1.700000,0.380000,1.205000,0.825000,1.205000,0.828536,1.203536,0.830000,1.200000,0.830000,-1.200000,0.828536,-1.203536,0.825000,-1.205000,0.380000,-1.205000,0.380000,-1.700000,0.378536,-1.703536,
0.375000,-1.705000,0.125000,-1.705000,0.121464,-1.703536,0.120000,-1.700000,0.120000,-1.205000,-0.120000,-1.205000,-0.120000,-1.700000,-0.121464,-1.703536,-0.125000,-1.705000,-0.375000,-1.705000,-0.378536,-1.703536,-0.380000,-1.700000,-0.380000,-1.205000,-0.825000,-1.205000,-0.828536,-1.203536,-0.830000,-1.200000,-0.830000,1.200000,-0.828536,1.203536,-0.825000,1.205000,-0.380000,1.205000,
-0.380000,1.700000,-0.378536,1.703536,-0.375000,1.705000,-0.125000,1.705000,-0.121464,1.703536,-0.121464,1.703536,$1*%
G04 Aperture macros list end*
%TA.AperFunction,SMDPad,CuDef*%
%ADD10RoundRect,0.237500X0.250000X0.237500X-0.250000X0.237500X-0.250000X-0.237500X0.250000X-0.237500X0*%
%TD*%
%TA.AperFunction,ComponentPad*%
%ADD11R,1.500000X1.500000*%
%TD*%
%TA.AperFunction,SMDPad,CuDef*%
%ADD12RoundRect,0.030000X-0.270000X-0.090000X0.270000X-0.090000X0.270000X0.090000X-0.270000X0.090000X0*%
%TD*%
%TA.AperFunction,SMDPad,CuDef*%
%ADD13FreePoly0,0.000000*%
%TD*%
%TA.AperFunction,ComponentPad*%
%ADD14C,0.300000*%
%TD*%
%TA.AperFunction,SMDPad,CuDef*%
%ADD15RoundRect,0.225000X0.250000X-0.225000X0.250000X0.225000X-0.250000X0.225000X-0.250000X-0.225000X0*%
%TD*%
%TA.AperFunction,SMDPad,CuDef*%
%ADD16RoundRect,0.243750X-0.456250X0.243750X-0.456250X-0.243750X0.456250X-0.243750X0.456250X0.243750X0*%
%TD*%
%TA.AperFunction,SMDPad,CuDef*%
%ADD17RoundRect,0.237500X0.237500X-0.250000X0.237500X0.250000X-0.237500X0.250000X-0.237500X-0.250000X0*%
%TD*%
%TA.AperFunction,SMDPad,CuDef*%
%ADD18RoundRect,0.250000X0.475000X-0.250000X0.475000X0.250000X-0.475000X0.250000X-0.475000X-0.250000X0*%
%TD*%
%TA.AperFunction,SMDPad,CuDef*%
%ADD19R,3.708400X1.092200*%
%TD*%
%TA.AperFunction,SMDPad,CuDef*%
%ADD20RoundRect,0.250000X-0.475000X0.250000X-0.475000X-0.250000X0.475000X-0.250000X0.475000X0.250000X0*%
%TD*%
%TA.AperFunction,ViaPad*%
%ADD21C,0.600000*%
%TD*%
%TA.AperFunction,Conductor*%
%ADD22C,0.254000*%
%TD*%
%TA.AperFunction,Conductor*%
%ADD23C,0.203200*%
%TD*%
%TA.AperFunction,Conductor*%
%ADD24C,0.200000*%
%TD*%
G04 APERTURE END LIST*
D10*
%TO.P,R3,1*%
%TO.N,Net-(U1-VOUT)*%
X139744000Y-71501000D03*
%TO.P,R3,2*%
%TO.N,Net-(U1-PG)*%
X137919000Y-71501000D03*
%TD*%
D11*
%TO.P,TP5,1,1*%
%TO.N,/VIN*%
X130683000Y-59639200D03*
%TD*%
D12*
%TO.P,U1,1,SW*%
%TO.N,Net-(U1-SW)*%
X137919000Y-66665600D03*
%TO.P,U1,2,SW__1*%
X137919000Y-67165600D03*
%TO.P,U1,3,VOUT*%
%TO.N,Net-(U1-VOUT)*%
X137919000Y-67665600D03*
%TO.P,U1,4,VOUT__1*%
X137919000Y-68165600D03*
%TO.P,U1,5,PG*%
%TO.N,Net-(U1-PG)*%
X137919000Y-68665600D03*
%TO.P,U1,6,SS*%
%TO.N,Net-(U1-SS)*%
X140719000Y-68665600D03*
%TO.P,U1,7,FB*%
%TO.N,/FB*%
X140719000Y-68165600D03*
%TO.P,U1,8,HYS*%
%TO.N,unconnected-(U1-HYS-Pad8)*%
X140719000Y-67665600D03*
%TO.P,U1,9,EN*%
%TO.N,/VIN*%
X140719000Y-67165600D03*
%TO.P,U1,10,VIN*%
X140719000Y-66665600D03*
D13*
%TO.P,U1,11,GND*%
%TO.N,GND*%
X139319000Y-67665600D03*
D14*
%TO.P,U1,12,GND*%
X139319000Y-68615600D03*
%TO.P,U1,13,GND*%
X138744000Y-67665600D03*
%TO.P,U1,14,GND*%
%TO.N,unconnected-(U1-GND-Pad14)*%
X139894000Y-67665600D03*
%TO.P,U1,15*%
%TO.N,N/C*%
X139319000Y-66715600D03*
%TD*%
D11*
%TO.P,TP8,1,1*%
%TO.N,GND*%
X146800000Y-59639200D03*
%TD*%
D15*
%TO.P,C2,1*%
%TO.N,Net-(U1-SS)*%
X144018000Y-65799000D03*
%TO.P,C2,2*%
%TO.N,GND*%
X144018000Y-64249000D03*
%TD*%
D16*
%TO.P,D1,1,K*%
%TO.N,GND*%
X145923000Y-63197500D03*
%TO.P,D1,2,A*%
%TO.N,Net-(D1-A)*%
X145923000Y-65072500D03*
%TD*%
D17*
%TO.P,R2,1*%
%TO.N,Net-(U1-VOUT)*%
X142494000Y-70357050D03*
%TO.P,R2,2*%
%TO.N,/FB*%
X142494000Y-68532050D03*
%TD*%
D18*
%TO.P,C5,1*%
%TO.N,Net-(U1-VOUT)*%
X135337600Y-68702000D03*
%TO.P,C5,2*%
%TO.N,GND*%
X135337600Y-66802000D03*
%TD*%
%TO.P,C4,1*%
%TO.N,Net-(U1-VOUT)*%
X133223000Y-68702000D03*
%TO.P,C4,2*%
%TO.N,GND*%
X133223000Y-66802000D03*
%TD*%
D19*
%TO.P,L1,1,1*%
%TO.N,/VIN*%
X137871200Y-61226700D03*
%TO.P,L1,2,2*%
%TO.N,Net-(U1-SW)*%
X137871200Y-63487300D03*
%TD*%
D11*
%TO.P,TP6,1,1*%
%TO.N,GND*%
X146800000Y-71729600D03*
%TD*%
D17*
%TO.P,R1,1*%
%TO.N,/FB*%
X142494000Y-66063500D03*
%TO.P,R1,2*%
%TO.N,GND*%
X142494000Y-64238500D03*
%TD*%
D20*
%TO.P,C1,1*%
%TO.N,/VIN*%
X133731000Y-61153000D03*
%TO.P,C1,2*%
%TO.N,GND*%
X133731000Y-63053000D03*
%TD*%
D15*
%TO.P,C6,1*%
%TO.N,Net-(U1-VOUT)*%
X144145000Y-70082050D03*
%TO.P,C6,2*%
%TO.N,/FB*%
X144145000Y-68532050D03*
%TD*%
D11*
%TO.P,TP7,1,1*%
%TO.N,Net-(U1-VOUT)*%
X130683000Y-71729600D03*
%TD*%
D17*
%TO.P,R4,1*%
%TO.N,Net-(U1-VOUT)*%
X145923000Y-68603500D03*
%TO.P,R4,2*%
%TO.N,Net-(D1-A)*%
X145923000Y-66778500D03*
%TD*%
D18*
%TO.P,C3,1*%
%TO.N,Net-(U1-VOUT)*%
X131108400Y-68702000D03*
%TO.P,C3,2*%
%TO.N,GND*%
X131108400Y-66802000D03*
%TD*%
D21*
%TO.N,GND*%
X132829300Y-64592200D03*
X131038600Y-64592200D03*
X134620000Y-64592200D03*
X131064000Y-62852300D03*
%TO.N,Net-(U1-SS)*%
X141198600Y-70078600D03*
X144018000Y-66929000D03*
%TD*%
D22*
%TO.N,GND*%
X146812000Y-59651200D02*
X146800000Y-59639200D01*
X146812000Y-62562500D02*
X146812000Y-59651200D01*
X146177000Y-63197500D02*
X146812000Y-62562500D01*
D23*
%TO.N,Net-(U1-SS)*%
X141198600Y-70078600D02*
X140719000Y-69599000D01*
X140719000Y-69599000D02*
X140719000Y-68665600D01*
D24*
X144018000Y-65799000D02*
X144018000Y-66929000D01*
%TO.N,/FB*%
X142697200Y-68532050D02*
X142697200Y-66063500D01*
D23*
X140719000Y-68165600D02*
X142371200Y-68165600D01*
D24*
X142697200Y-68532050D02*
X144424400Y-68532050D01*
%TO.N,Net-(U1-VOUT)*%
X139744000Y-71501000D02*
X139744000Y-72473000D01*
D22*
X138728000Y-72517000D02*
X139700000Y-72517000D01*
X142113000Y-72517000D02*
X142494000Y-72136000D01*
X142697200Y-70357050D02*
X144134500Y-70357050D01*
X139700000Y-72517000D02*
X142113000Y-72517000D01*
X145923000Y-69828050D02*
X145669000Y-70082050D01*
X142494000Y-72136000D02*
X142494000Y-70357050D01*
X137922000Y-72517000D02*
X136779000Y-72517000D01*
D24*
X137898500Y-72493500D02*
X137922000Y-72517000D01*
D22*
X144424400Y-70082050D02*
X145669000Y-70082050D01*
D24*
X144134500Y-70357050D02*
X144424400Y-70067150D01*
X139744000Y-72473000D02*
X139700000Y-72517000D01*
D22*
X138728000Y-72517000D02*
X137922000Y-72517000D01*
X145923000Y-68603500D02*
X145923000Y-69828050D01*
%TO.N,Net-(U1-PG)*%
X137919000Y-68665600D02*
X137919000Y-71501000D01*
%TO.N,Net-(D1-A)*%
X145923000Y-66778500D02*
X145923000Y-65072500D01*
%TD*%
%TA.AperFunction,Conductor*%
%TO.N,GND*%
G36*
X147707594Y-57956206D02*
G01*
X147725900Y-58000400D01*
X147725900Y-72657200D01*
X147707594Y-72701394D01*
X147663400Y-72719700D01*
X142524342Y-72719700D01*
X142480148Y-72701394D01*
X142461842Y-72657200D01*
X142480148Y-72613006D01*
X142713546Y-72379607D01*
X142717544Y-72375943D01*
X142748750Y-72349760D01*
X142769118Y-72314479D01*
X142772031Y-72309906D01*
X142795394Y-72276543D01*
X142797050Y-72270363D01*
X142803296Y-72255282D01*
X142806497Y-72249739D01*
X142813571Y-72209612D01*
X142814741Y-72204334D01*
X142825286Y-72164985D01*
X142821737Y-72124429D01*
X142821500Y-72118983D01*
X142821500Y-71083943D01*
X142839806Y-71039749D01*
X142863356Y-71024950D01*
X142938475Y-70998666D01*
X143044711Y-70920261D01*
X143123116Y-70814025D01*
X143153775Y-70726406D01*
X143185649Y-70690740D01*
X143212767Y-70684550D01*
X143683635Y-70684550D01*
X143712009Y-70691362D01*
X143761869Y-70716767D01*
X143761871Y-70716767D01*
X143761874Y-70716769D01*
X143761877Y-70716769D01*
X143761879Y-70716770D01*
X143861498Y-70732548D01*
X143861504Y-70732548D01*
X143861512Y-70732550D01*
X143861514Y-70732550D01*
X144428486Y-70732550D01*
X144428488Y-70732550D01*
X144467268Y-70726408D01*
X144528120Y-70716770D01*
X144528120Y-70716769D01*
X144528126Y-70716769D01*
X144648220Y-70655578D01*
X144743528Y-70560270D01*
X144802936Y-70443676D01*
X144839310Y-70412609D01*
X144858624Y-70409550D01*
X145651975Y-70409550D01*
X145657423Y-70409788D01*
X145697984Y-70413337D01*
X145737315Y-70402797D01*
X145742627Y-70401619D01*
X145782739Y-70394547D01*
X145788284Y-70391345D01*
X145803363Y-70385100D01*
X145809540Y-70383445D01*
X145809540Y-70383444D01*
X145809543Y-70383444D01*
X145842903Y-70360083D01*
X145847476Y-70357170D01*
X145882760Y-70336800D01*
X145908947Y-70305589D01*
X145912610Y-70301592D01*
X146142546Y-70071657D01*
X146146544Y-70067993D01*
X146177750Y-70041810D01*
X146198118Y-70006529D01*
X146201031Y-70001956D01*
X146224394Y-69968593D01*
X146224395Y-69968590D01*
X146226050Y-69962413D01*
X146232296Y-69947332D01*
X146235497Y-69941789D01*
X146242571Y-69901660D01*
X146243743Y-69896377D01*
X146254286Y-69857034D01*
X146250737Y-69816479D01*
X146250500Y-69811033D01*
X146250500Y-69330393D01*
X146268806Y-69286199D01*
X146292356Y-69271400D01*
X146367475Y-69245116D01*
X146473711Y-69166711D01*
X146552116Y-69060475D01*
X146595725Y-68935849D01*
X146598500Y-68906256D01*
X146598500Y-68300744D01*
X146595725Y-68271151D01*
X146552116Y-68146525D01*
X146473711Y-68040289D01*
X146407052Y-67991093D01*
X146367476Y-67961884D01*
X146305162Y-67940079D01*
X146242849Y-67918275D01*
X146242847Y-67918274D01*
X146242846Y-67918274D01*
X146221578Y-67916280D01*
X146213256Y-67915500D01*
X145632744Y-67915500D01*
X145625135Y-67916213D01*
X145603153Y-67918274D01*
X145603151Y-67918275D01*
X145478523Y-67961884D01*
X145372289Y-68040289D01*
X145293884Y-68146523D01*
X145250275Y-68271151D01*
X145250274Y-68271153D01*
X145247500Y-68300747D01*
X145247500Y-68906252D01*
X145250274Y-68935846D01*
X145250274Y-68935847D01*
X145250275Y-68935849D01*
X145268882Y-68989025D01*
X145293884Y-69060476D01*
X145319556Y-69095260D01*
X145372289Y-69166711D01*
X145440800Y-69217274D01*
X145478523Y-69245115D01*
X145478524Y-69245115D01*
X145478525Y-69245116D01*
X145553642Y-69271400D01*
X145589310Y-69303275D01*
X145595500Y-69330393D01*
X145595500Y-69666506D01*
X145577195Y-69710699D01*
X145551652Y-69736243D01*
X145507458Y-69754550D01*
X144858624Y-69754550D01*
X144814430Y-69736244D01*
X144802936Y-69720424D01*
X144743528Y-69603830D01*
X144648219Y-69508521D01*
X144528130Y-69447332D01*
X144528120Y-69447329D01*
X144428501Y-69431551D01*
X144428489Y-69431550D01*
X144428488Y-69431550D01*
X143861512Y-69431550D01*
X143861510Y-69431550D01*
X143861498Y-69431551D01*
X143761879Y-69447329D01*
X143761869Y-69447332D01*
X143641780Y-69508521D01*
X143546471Y-69603830D01*
X143485282Y-69723919D01*
X143485279Y-69723929D01*
X143469501Y-69823548D01*
X143469500Y-69823564D01*
X143469500Y-69967050D01*
X143451194Y-70011244D01*
X143407000Y-70029550D01*
X143212767Y-70029550D01*
X143168573Y-70011244D01*
X143153775Y-69987695D01*
X143123116Y-69900075D01*
X143122318Y-69898994D01*
X143097828Y-69865810D01*
X143044711Y-69793839D01*
X142972036Y-69740203D01*
X142938476Y-69715434D01*
X142862832Y-69688965D01*
X142813849Y-69671825D01*
X142813847Y-69671824D01*
X142813846Y-69671824D01*
X142792578Y-69669830D01*
X142784256Y-69669050D01*
X142203744Y-69669050D01*
X142196135Y-69669763D01*
X142174153Y-69671824D01*
X142174151Y-69671825D01*
X142049523Y-69715434D01*
X141943289Y-69793839D01*
X141864884Y-69900073D01*
X141821275Y-70024701D01*
X141821273Y-70024709D01*
X141821176Y-70025746D01*
X141820956Y-70026161D01*
X141820464Y-70028415D01*
X141819837Y-70028278D01*
X141798819Y-70068035D01*
X141753107Y-70082129D01*
X141710818Y-70059772D01*
X141697086Y-70028797D01*
X141697031Y-70028415D01*
X141683765Y-69936143D01*
X141623977Y-69805227D01*
X141623976Y-69805225D01*
X141529728Y-69696457D01*
X141507749Y-69682332D01*
X141408653Y-69618647D01*
X141408651Y-69618646D01*
X141408649Y-69618645D01*
X141270563Y-69578100D01*
X141270561Y-69578100D01*
X141151222Y-69578100D01*
X141107028Y-69559794D01*
X141039406Y-69492172D01*
X141021100Y-69447978D01*
X141021100Y-69035523D01*
X141039406Y-68991329D01*
X141071410Y-68974223D01*
X141078937Y-68972726D01*
X141155181Y-68921781D01*
X141206126Y-68845537D01*
X141219500Y-68778303D01*
X141219499Y-68552898D01*
X141217409Y-68542392D01*
X141226740Y-68495478D01*
X141266514Y-68468901D01*
X141278708Y-68467700D01*
X141756000Y-68467700D01*
X141800194Y-68486006D01*
X141818500Y-68530200D01*
X141818500Y-68834806D01*
X141819082Y-68841010D01*
X141821274Y-68864396D01*
X141821275Y-68864398D01*
X141864884Y-68989026D01*
X141880563Y-69010270D01*
X141943289Y-69095261D01*
X142015260Y-69148378D01*
X142049523Y-69173665D01*
X142049524Y-69173665D01*
X142049525Y-69173666D01*
X142174151Y-69217275D01*
X142203744Y-69220050D01*
X142203747Y-69220050D01*
X142784253Y-69220050D01*
X142784256Y-69220050D01*
X142813849Y-69217275D01*
X142938475Y-69173666D01*
X143044711Y-69095261D01*
X143123116Y-68989025D01*
X143163223Y-68874406D01*
X143195099Y-68838739D01*
X143222216Y-68832550D01*
X143422774Y-68832550D01*
X143466968Y-68850856D01*
X143484504Y-68885271D01*
X143485280Y-68890170D01*
X143485281Y-68890176D01*
X143485282Y-68890180D01*
X143546471Y-69010269D01*
X143641780Y-69105578D01*
X143761869Y-69166767D01*
X143761871Y-69166767D01*
X143761874Y-69166769D01*
X143761877Y-69166769D01*
X143761879Y-69166770D01*
X143861498Y-69182548D01*
X143861504Y-69182548D01*
X143861512Y-69182550D01*
X143861514Y-69182550D01*
X144428486Y-69182550D01*
X144428488Y-69182550D01*
X144528126Y-69166769D01*
X144648220Y-69105578D01*
X144743528Y-69010270D01*
X144804719Y-68890176D01*
X144820500Y-68790538D01*
X144820500Y-68273562D01*
X144820118Y-68271153D01*
X144804720Y-68173929D01*
X144804719Y-68173927D01*
X144804719Y-68173924D01*
X144804717Y-68173921D01*
X144804717Y-68173919D01*
X144743528Y-68053830D01*
X144648219Y-67958521D01*
X144528130Y-67897332D01*
X144528120Y-67897329D01*
X144428501Y-67881551D01*
X144428489Y-67881550D01*
X144428488Y-67881550D01*
X143861512Y-67881550D01*
X143861510Y-67881550D01*
X143861498Y-67881551D01*
X143761879Y-67897329D01*
X143761869Y-67897332D01*
X143641780Y-67958521D01*
X143546471Y-68053830D01*
X143485282Y-68173919D01*
X143485281Y-68173923D01*
X143485281Y-68173924D01*
X143484504Y-68178828D01*
X143459511Y-68219614D01*
X143422774Y-68231550D01*
X143222216Y-68231550D01*
X143178022Y-68213244D01*
X143163223Y-68189693D01*
X143123115Y-68075073D01*
X143059661Y-67989096D01*
X143044711Y-67968839D01*
X143044710Y-67968838D01*
X143044709Y-67968837D01*
X143023085Y-67952877D01*
X142998398Y-67911904D01*
X142997700Y-67902591D01*
X142997700Y-66692957D01*
X143016006Y-66648763D01*
X143023079Y-66642675D01*
X143044711Y-66626711D01*
X143123116Y-66520475D01*
X143166725Y-66395849D01*
X143169500Y-66366256D01*
X143169500Y-66057485D01*
X143342500Y-66057485D01*
X143342501Y-66057501D01*
X143358279Y-66157120D01*
X143358282Y-66157130D01*
X143419471Y-66277219D01*
X143514780Y-66372528D01*
X143634869Y-66433717D01*
X143634870Y-66433717D01*
X143634874Y-66433719D01*
X143656569Y-66437155D01*
X143697356Y-66462147D01*
X143708524Y-66508660D01*
X143689389Y-66543124D01*
X143689799Y-66543479D01*
X143688111Y-66545426D01*
X143687731Y-66546112D01*
X143686873Y-66546855D01*
X143592623Y-66655625D01*
X143592623Y-66655627D01*
X143532834Y-66786544D01*
X143512353Y-66929000D01*
X143532834Y-67071455D01*
X143532835Y-67071457D01*
X143550824Y-67110848D01*
X143592623Y-67202372D01*
X143592623Y-67202374D01*
X143662201Y-67282671D01*
X143686872Y-67311143D01*
X143807947Y-67388953D01*
X143943062Y-67428626D01*
X143946036Y-67429499D01*
X143946038Y-67429500D01*
X143946039Y-67429500D01*
X144089962Y-67429500D01*
X144089962Y-67429499D01*
X144228053Y-67388953D01*
X144349128Y-67311143D01*
X144443377Y-67202373D01*
X144503165Y-67071457D01*
X144523647Y-66929000D01*
X144503165Y-66786543D01*
X144443377Y-66655627D01*
X144443376Y-66655625D01*
X144349125Y-66546853D01*
X144348274Y-66546116D01*
X144347984Y-66545536D01*
X144346201Y-66543479D01*
X144346726Y-66543023D01*
X144326865Y-66503339D01*
X144341975Y-66457953D01*
X144379428Y-66437155D01*
X144401126Y-66433719D01*
X144521220Y-66372528D01*
X144616528Y-66277220D01*
X144677719Y-66157126D01*
X144680925Y-66136884D01*
X144693498Y-66057501D01*
X144693500Y-66057485D01*
X144693500Y-65540514D01*
X144693498Y-65540498D01*
X144677720Y-65440879D01*
X144677719Y-65440877D01*
X144677719Y-65440874D01*
X144677717Y-65440871D01*
X144677717Y-65440869D01*
X144641485Y-65369760D01*
X145022500Y-65369760D01*
X145025313Y-65399771D01*
X145025314Y-65399773D01*
X145069545Y-65526180D01*
X145109307Y-65580054D01*
X145149070Y-65633930D01*
X145222066Y-65687804D01*
X145256819Y-65713454D01*
X145256820Y-65713454D01*
X145256821Y-65713455D01*
X145383226Y-65757686D01*
X145413236Y-65760500D01*
X145533000Y-65760500D01*
X145577194Y-65778806D01*
X145595500Y-65823000D01*
X145595500Y-66051605D01*
X145577194Y-66095799D01*
X145553643Y-66110597D01*
X145478528Y-66136881D01*
X145478523Y-66136884D01*
X145372289Y-66215289D01*
X145293884Y-66321523D01*
X145250275Y-66446151D01*
X145250274Y-66446153D01*
X145247500Y-66475747D01*
X145247500Y-67081252D01*
X145250274Y-67110846D01*
X145250275Y-67110848D01*
X145293884Y-67235476D01*
X145328713Y-67282667D01*
X145372289Y-67341711D01*
X145431191Y-67385182D01*
X145478523Y-67420115D01*
X145478524Y-67420115D01*
X145478525Y-67420116D01*
X145603151Y-67463725D01*
X145632744Y-67466500D01*
X145632747Y-67466500D01*
X146213253Y-67466500D01*
X146213256Y-67466500D01*
X146242849Y-67463725D01*
X146367475Y-67420116D01*
X146473711Y-67341711D01*
X146552116Y-67235475D01*
X146595725Y-67110849D01*
X146598500Y-67081256D01*
X146598500Y-66475744D01*
X146595725Y-66446151D01*
X146552116Y-66321525D01*
X146473711Y-66215289D01*
X146394908Y-66157130D01*
X146367476Y-66136884D01*
X146367471Y-66136881D01*
X146292357Y-66110597D01*
X146256689Y-66078722D01*
X146250500Y-66051605D01*
X146250500Y-65823000D01*
X146268806Y-65778806D01*
X146313000Y-65760500D01*
X146432761Y-65760500D01*
X146432764Y-65760500D01*
X146462774Y-65757686D01*
X146589179Y-65713455D01*
X146696930Y-65633930D01*
X146776455Y-65526179D01*
X146820686Y-65399774D01*
X146823500Y-65369764D01*
X146823500Y-64775236D01*
X146820686Y-64745226D01*
X146776455Y-64618821D01*
X146766390Y-64605184D01*
X146725079Y-64549210D01*
X146696930Y-64511070D01*
X146628284Y-64460406D01*
X146589180Y-64431545D01*
X146504504Y-64401916D01*
X146462774Y-64387314D01*
X146462772Y-64387313D01*
X146462771Y-64387313D01*
X146441203Y-64385291D01*
X146432764Y-64384500D01*
X145413236Y-64384500D01*
X145405520Y-64385223D01*
X145383228Y-64387313D01*
X145383226Y-64387314D01*
X145256819Y-64431545D01*
X145149070Y-64511070D01*
X145069545Y-64618819D01*
X145025314Y-64745226D01*
X145025313Y-64745228D01*
X145022500Y-64775239D01*
X145022500Y-65369760D01*
X144641485Y-65369760D01*
X144616528Y-65320780D01*
X144521219Y-65225471D01*
X144401130Y-65164282D01*
X144401120Y-65164279D01*
X144301501Y-65148501D01*
X144301489Y-65148500D01*
X144301488Y-65148500D01*
X143734512Y-65148500D01*
X143734510Y-65148500D01*
X143734498Y-65148501D01*
X143634879Y-65164279D01*
X143634869Y-65164282D01*
X143514780Y-65225471D01*
X143419471Y-65320780D01*
X143358282Y-65440869D01*
X143358279Y-65440879D01*
X143342501Y-65540498D01*
X143342500Y-65540514D01*
X143342500Y-66057485D01*
X143169500Y-66057485D01*
X143169500Y-65760744D01*
X143166725Y-65731151D01*
X143123116Y-65606525D01*
X143044711Y-65500289D01*
X142964206Y-65440874D01*
X142938476Y-65421884D01*
X142875280Y-65399771D01*
X142813849Y-65378275D01*
X142813847Y-65378274D01*
X142813846Y-65378274D01*
X142792578Y-65376280D01*
X142784256Y-65375500D01*
X142203744Y-65375500D01*
X142196135Y-65376213D01*
X142174153Y-65378274D01*
X142174151Y-65378275D01*
X142049523Y-65421884D01*
X141943289Y-65500289D01*
X141864884Y-65606523D01*
X141821275Y-65731151D01*
X141821274Y-65731153D01*
X141819213Y-65753135D01*
X141818500Y-65760744D01*
X141818500Y-66366256D01*
X141818817Y-66369634D01*
X141821274Y-66395846D01*
X141821274Y-66395847D01*
X141821275Y-66395849D01*
X141840095Y-66449632D01*
X141864884Y-66520476D01*
X141896905Y-66563862D01*
X141943289Y-66626711D01*
X142003741Y-66671326D01*
X142049523Y-66705115D01*
X142049524Y-66705115D01*
X142049525Y-66705116D01*
X142174151Y-66748725D01*
X142203744Y-66751500D01*
X142334200Y-66751500D01*
X142378394Y-66769806D01*
X142396700Y-66814000D01*
X142396700Y-67781550D01*
X142378394Y-67825744D01*
X142334200Y-67844050D01*
X142203744Y-67844050D01*
X142196135Y-67844763D01*
X142174153Y-67846824D01*
X142174148Y-67846825D01*
X142136518Y-67859993D01*
X142115876Y-67863500D01*
X141278710Y-67863500D01*
X141234516Y-67845194D01*
X141216210Y-67801000D01*
X141217411Y-67788808D01*
X141219499Y-67778306D01*
X141219500Y-67778303D01*
X141219499Y-67623960D01*
X141237805Y-67579767D01*
X141274535Y-67561908D01*
X141286757Y-67560439D01*
X141333108Y-67549125D01*
X141353721Y-67542933D01*
X141430787Y-67493688D01*
X141474415Y-67449392D01*
X141511810Y-67397092D01*
X141524184Y-67372344D01*
X141540381Y-67327657D01*
X141551002Y-67282667D01*
X141556500Y-67235452D01*
X141556500Y-58152414D01*
X141556500Y-58152389D01*
X141556336Y-58144204D01*
X141556011Y-58136102D01*
X141556011Y-58136100D01*
X141540394Y-58065367D01*
X141523347Y-58024419D01*
X141523263Y-57976585D01*
X141557027Y-57942700D01*
X141581048Y-57937900D01*
X147663400Y-57937900D01*
X147707594Y-57956206D01*
G37*
%TD.AperFunction*%
%TA.AperFunction,Conductor*%
G36*
X140104762Y-64365432D02*
G01*
X140128917Y-64406721D01*
X140129499Y-64415234D01*
X140129499Y-66361628D01*
X140130730Y-66378326D01*
X140131721Y-66391768D01*
X140134796Y-66412512D01*
X140135044Y-66414184D01*
X140135339Y-66419124D01*
X140135470Y-66419113D01*
X140135765Y-66422617D01*
X140137541Y-66431548D01*
X140138064Y-66434558D01*
X140138133Y-66435027D01*
X140138279Y-66435257D01*
X140140576Y-66446805D01*
X140146728Y-66477739D01*
X140147928Y-66489929D01*
X140147928Y-67244508D01*
X140150456Y-67276638D01*
X140152095Y-67286983D01*
X140140926Y-67333496D01*
X140100139Y-67358489D01*
X140068597Y-67353092D01*
X140068024Y-67354764D01*
X140035304Y-67343531D01*
X140027227Y-67340107D01*
X140003661Y-67328100D01*
X140003659Y-67328099D01*
X140003658Y-67328099D01*
X139984328Y-67325037D01*
X139973815Y-67322421D01*
X139952488Y-67315100D01*
X139952487Y-67315100D01*
X139926500Y-67315100D01*
X139916723Y-67314330D01*
X139911829Y-67313554D01*
X139894002Y-67310731D01*
X139893998Y-67310731D01*
X139870316Y-67314482D01*
X139865707Y-67315038D01*
X139864958Y-67315100D01*
X139838000Y-67319597D01*
X139837495Y-67319679D01*
X139782901Y-67328326D01*
X139779969Y-67329043D01*
X139778620Y-67329506D01*
X139731680Y-67354908D01*
X139730311Y-67355627D01*
X139685412Y-67378505D01*
X139681436Y-67381394D01*
X139681084Y-67380910D01*
X139679748Y-67381903D01*
X139679826Y-67382003D01*
X139675740Y-67385183D01*
X139641922Y-67421918D01*
X139640136Y-67423779D01*
X139606905Y-67457012D01*
X139604016Y-67460989D01*
X139603970Y-67460956D01*
X139597742Y-67469911D01*
X139596516Y-67471242D01*
X139596514Y-67471246D01*
X139577820Y-67513862D01*
X139576274Y-67517128D01*
X139556499Y-67555939D01*
X139556498Y-67555944D01*
X139556137Y-67558222D01*
X139551650Y-67573524D01*
X139549526Y-67578367D01*
X139549526Y-67578368D01*
X139545966Y-67621326D01*
X139545411Y-67625939D01*
X139539131Y-67665600D01*
X139539131Y-67665604D01*
X139540033Y-67671303D01*
X139540589Y-67686230D01*
X139539868Y-67694940D01*
X139539868Y-67694945D01*
X139549612Y-67733427D01*
X139550754Y-67738989D01*
X139556499Y-67775260D01*
X139560690Y-67783486D01*
X139565586Y-67796510D01*
X139568581Y-67808333D01*
X139568584Y-67808341D01*
X139588420Y-67838702D01*
X139591785Y-67844512D01*
X139606904Y-67874186D01*
X139615872Y-67883154D01*
X139623997Y-67893158D01*
X139632563Y-67906269D01*
X139632564Y-67906270D01*
X139632565Y-67906271D01*
X139658478Y-67926439D01*
X139664285Y-67931567D01*
X139685413Y-67952695D01*
X139699792Y-67960021D01*
X139709799Y-67966384D01*
X139724874Y-67978117D01*
X139752700Y-67987669D01*
X139760770Y-67991091D01*
X139784339Y-68003100D01*
X139803673Y-68006161D01*
X139814187Y-68008778D01*
X139835512Y-68016100D01*
X139861500Y-68016100D01*
X139871276Y-68016869D01*
X139894000Y-68020469D01*
X139917721Y-68016711D01*
X139922317Y-68016159D01*
X139923019Y-68016100D01*
X139923040Y-68016100D01*
X139950115Y-68011581D01*
X139950326Y-68011547D01*
X140003661Y-68003100D01*
X140003664Y-68003098D01*
X140005138Y-68002865D01*
X140008000Y-68002166D01*
X140009375Y-68001694D01*
X140009377Y-68001692D01*
X140009381Y-68001692D01*
X140056392Y-67976250D01*
X140057588Y-67975622D01*
X140102587Y-67952695D01*
X140102589Y-67952693D01*
X140106570Y-67949801D01*
X140106936Y-67950305D01*
X140108263Y-67949313D01*
X140108173Y-67949197D01*
X140112256Y-67946019D01*
X140112255Y-67946019D01*
X140112258Y-67946018D01*
X140124215Y-67933028D01*
X140167614Y-67912911D01*
X140212527Y-67929372D01*
X140232645Y-67972772D01*
X140231498Y-67987550D01*
X140218500Y-68052896D01*
X140218500Y-68278300D01*
X140218501Y-68278302D01*
X140231873Y-68345535D01*
X140231874Y-68345537D01*
X140255487Y-68380877D01*
X140264819Y-68427792D01*
X140255487Y-68450321D01*
X140231875Y-68485658D01*
X140231873Y-68485663D01*
X140218500Y-68552896D01*
X140218500Y-68778300D01*
X140218501Y-68778302D01*
X140231874Y-68845537D01*
X140231874Y-68845538D01*
X140231875Y-68845539D01*
X140282818Y-68921781D01*
X140359060Y-68972724D01*
X140359063Y-68972726D01*
X140366592Y-68974223D01*
X140406365Y-69000796D01*
X140416900Y-69035522D01*
X140416900Y-69539523D01*
X140415067Y-69550755D01*
X140415414Y-69550804D01*
X140414613Y-69556542D01*
X140416833Y-69604537D01*
X140416900Y-69607424D01*
X140416900Y-69626989D01*
X140416901Y-69627002D01*
X140417393Y-69629634D01*
X140418390Y-69638229D01*
X140419829Y-69669359D01*
X140419830Y-69669364D01*
X140425557Y-69682335D01*
X140429816Y-69696090D01*
X140432419Y-69710016D01*
X140432420Y-69710019D01*
X140432421Y-69710021D01*
X140438862Y-69720424D01*
X140448825Y-69736516D01*
X140452859Y-69744169D01*
X140465450Y-69772684D01*
X140475472Y-69782706D01*
X140484417Y-69793999D01*
X140491875Y-69806045D01*
X140491876Y-69806046D01*
X140491878Y-69806049D01*
X140516755Y-69824835D01*
X140523276Y-69830510D01*
X140680687Y-69987921D01*
X140698993Y-70032115D01*
X140698357Y-70041008D01*
X140692953Y-70078599D01*
X140692953Y-70078600D01*
X140695448Y-70095954D01*
X140713434Y-70221055D01*
X140713435Y-70221057D01*
X140766293Y-70336799D01*
X140773223Y-70351972D01*
X140773223Y-70351974D01*
X140852683Y-70443676D01*
X140867472Y-70460743D01*
X140988547Y-70538553D01*
X140988549Y-70538553D01*
X140988550Y-70538554D01*
X141126636Y-70579099D01*
X141126638Y-70579100D01*
X141126639Y-70579100D01*
X141270562Y-70579100D01*
X141270562Y-70579099D01*
X141408653Y-70538553D01*
X141529728Y-70460743D01*
X141623977Y-70351973D01*
X141683765Y-70221057D01*
X141694136Y-70148923D01*
X141718545Y-70107784D01*
X141764894Y-70095954D01*
X141806034Y-70120363D01*
X141818500Y-70157818D01*
X141818500Y-70659802D01*
X141821274Y-70689396D01*
X141821274Y-70689397D01*
X141821275Y-70689399D01*
X141821962Y-70691362D01*
X141864884Y-70814026D01*
X141884958Y-70841225D01*
X141943289Y-70920261D01*
X141983976Y-70950289D01*
X142049523Y-70998665D01*
X142049524Y-70998665D01*
X142049525Y-70998666D01*
X142124642Y-71024950D01*
X142160310Y-71056825D01*
X142166500Y-71083943D01*
X142166500Y-71974457D01*
X142148194Y-72018651D01*
X141995652Y-72171194D01*
X141951458Y-72189500D01*
X140310448Y-72189500D01*
X140266254Y-72171194D01*
X140247948Y-72127000D01*
X140266254Y-72082806D01*
X140273324Y-72076719D01*
X140307211Y-72051711D01*
X140385616Y-71945475D01*
X140429225Y-71820849D01*
X140432000Y-71791256D01*
X140432000Y-71210744D01*
X140429225Y-71181151D01*
X140385616Y-71056525D01*
X140307211Y-70950289D01*
X140244339Y-70903888D01*
X140200976Y-70871884D01*
X140138662Y-70850079D01*
X140076349Y-70828275D01*
X140076347Y-70828274D01*
X140076346Y-70828274D01*
X140055078Y-70826280D01*
X140046756Y-70825500D01*
X139441244Y-70825500D01*
X139433635Y-70826213D01*
X139411653Y-70828274D01*
X139411651Y-70828275D01*
X139287023Y-70871884D01*
X139180789Y-70950289D01*
X139102384Y-71056523D01*
X139058775Y-71181151D01*
X139058774Y-71181153D01*
X139056000Y-71210747D01*
X139056000Y-71791252D01*
X139058774Y-71820846D01*
X139058775Y-71820848D01*
X139102384Y-71945476D01*
X139156390Y-72018651D01*
X139180789Y-72051711D01*
X139214667Y-72076714D01*
X139239354Y-72117685D01*
X139227840Y-72164114D01*
X139186867Y-72188802D01*
X139177552Y-72189500D01*
X138485448Y-72189500D01*
X138441254Y-72171194D01*
X138422948Y-72127000D01*
X138441254Y-72082806D01*
X138448324Y-72076719D01*
X138482211Y-72051711D01*
X138560616Y-71945475D01*
X138604225Y-71820849D01*
X138607000Y-71791256D01*
X138607000Y-71210744D01*
X138604225Y-71181151D01*
X138560616Y-71056525D01*
X138482211Y-70950289D01*
X138419339Y-70903888D01*
X138375976Y-70871884D01*
X138320143Y-70852347D01*
X138288356Y-70841224D01*
X138252689Y-70809349D01*
X138246500Y-70782232D01*
X138246500Y-69027806D01*
X138264806Y-68983612D01*
X138274277Y-68975839D01*
X138278935Y-68972726D01*
X138278937Y-68972726D01*
X138355181Y-68921781D01*
X138406126Y-68845537D01*
X138419500Y-68778303D01*
X138419499Y-68552898D01*
X138406787Y-68488987D01*
X138414432Y-68444742D01*
X138460801Y-68367135D01*
X138480014Y-68308004D01*
X138490072Y-68244500D01*
X138490072Y-67616100D01*
X138490072Y-67616091D01*
X138487543Y-67583964D01*
X138487542Y-67583951D01*
X138482618Y-67552864D01*
X138481846Y-67548320D01*
X138481844Y-67548317D01*
X138481844Y-67548314D01*
X138445903Y-67464226D01*
X138445901Y-67464223D01*
X138443745Y-67461255D01*
X138432580Y-67414741D01*
X138443337Y-67388354D01*
X138456123Y-67370336D01*
X138474429Y-67326142D01*
X138490072Y-67247500D01*
X138490072Y-66715604D01*
X138964131Y-66715604D01*
X138965033Y-66721303D01*
X138965589Y-66736230D01*
X138964868Y-66744940D01*
X138964868Y-66744945D01*
X138974612Y-66783427D01*
X138975754Y-66788989D01*
X138981499Y-66825260D01*
X138985690Y-66833486D01*
X138990586Y-66846510D01*
X138993581Y-66858333D01*
X138993584Y-66858341D01*
X138997333Y-66864080D01*
X139013420Y-66888702D01*
X139016785Y-66894512D01*
X139031904Y-66924186D01*
X139040872Y-66933154D01*
X139048997Y-66943158D01*
X139057563Y-66956269D01*
X139057564Y-66956270D01*
X139057565Y-66956271D01*
X139083478Y-66976439D01*
X139089285Y-66981567D01*
X139110413Y-67002695D01*
X139124792Y-67010021D01*
X139134799Y-67016384D01*
X139149874Y-67028117D01*
X139177700Y-67037669D01*
X139185770Y-67041091D01*
X139209339Y-67053100D01*
X139228673Y-67056161D01*
X139239187Y-67058778D01*
X139260512Y-67066100D01*
X139286500Y-67066100D01*
X139296276Y-67066869D01*
X139319000Y-67070469D01*
X139342721Y-67066711D01*
X139347317Y-67066159D01*
X139348019Y-67066100D01*
X139348040Y-67066100D01*
X139375115Y-67061581D01*
X139375326Y-67061547D01*
X139428661Y-67053100D01*
X139428664Y-67053098D01*
X139430138Y-67052865D01*
X139433000Y-67052166D01*
X139434375Y-67051694D01*
X139434377Y-67051692D01*
X139434381Y-67051692D01*
X139481392Y-67026250D01*
X139482588Y-67025622D01*
X139527587Y-67002695D01*
X139527589Y-67002693D01*
X139531570Y-66999801D01*
X139531936Y-67000305D01*
X139533263Y-66999313D01*
X139533173Y-66999197D01*
X139537254Y-66996019D01*
X139537258Y-66996018D01*
X139571100Y-66959254D01*
X139572840Y-66957440D01*
X139606095Y-66924187D01*
X139606098Y-66924182D01*
X139608990Y-66920203D01*
X139609037Y-66920237D01*
X139615268Y-66911275D01*
X139616484Y-66909956D01*
X139635181Y-66867327D01*
X139636720Y-66864080D01*
X139656500Y-66825261D01*
X139656859Y-66822987D01*
X139661353Y-66807663D01*
X139663473Y-66802832D01*
X139667035Y-66759833D01*
X139667586Y-66755262D01*
X139673869Y-66715600D01*
X139672965Y-66709899D01*
X139672410Y-66694961D01*
X139673132Y-66686256D01*
X139663385Y-66647770D01*
X139662248Y-66642234D01*
X139656500Y-66605939D01*
X139652308Y-66597711D01*
X139647411Y-66584687D01*
X139644416Y-66572859D01*
X139627428Y-66546857D01*
X139624574Y-66542488D01*
X139621209Y-66536677D01*
X139606094Y-66507011D01*
X139597129Y-66498047D01*
X139588997Y-66488033D01*
X139580439Y-66474933D01*
X139580438Y-66474931D01*
X139554520Y-66454759D01*
X139548714Y-66449632D01*
X139527585Y-66428503D01*
X139513214Y-66421181D01*
X139503203Y-66414817D01*
X139488126Y-66403083D01*
X139488121Y-66403080D01*
X139460304Y-66393531D01*
X139452227Y-66390107D01*
X139428661Y-66378100D01*
X139428659Y-66378099D01*
X139428658Y-66378099D01*
X139409328Y-66375037D01*
X139398815Y-66372421D01*
X139377488Y-66365100D01*
X139377487Y-66365100D01*
X139351500Y-66365100D01*
X139341723Y-66364330D01*
X139336829Y-66363554D01*
X139319002Y-66360731D01*
X139318998Y-66360731D01*
X139295316Y-66364482D01*
X139290707Y-66365038D01*
X139289958Y-66365100D01*
X139263000Y-66369597D01*
X139262495Y-66369679D01*
X139207901Y-66378326D01*
X139204969Y-66379043D01*
X139203620Y-66379506D01*
X139156680Y-66404908D01*
X139155311Y-66405627D01*
X139110412Y-66428505D01*
X139106436Y-66431394D01*
X139106084Y-66430910D01*
X139104748Y-66431903D01*
X139104826Y-66432003D01*
X139100740Y-66435183D01*
X139066922Y-66471918D01*
X139065136Y-66473779D01*
X139031905Y-66507012D01*
X139029016Y-66510989D01*
X139028970Y-66510956D01*
X139022742Y-66519911D01*
X139021516Y-66521242D01*
X139021514Y-66521246D01*
X139002820Y-66563862D01*
X139001274Y-66567128D01*
X138981499Y-66605939D01*
X138981498Y-66605944D01*
X138981137Y-66608222D01*
X138976650Y-66623524D01*
X138974526Y-66628367D01*
X138974526Y-66628368D01*
X138970966Y-66671326D01*
X138970411Y-66675939D01*
X138964131Y-66715600D01*
X138964131Y-66715604D01*
X138490072Y-66715604D01*
X138490072Y-66489905D01*
X138490971Y-66479345D01*
X138490977Y-66479310D01*
X138500612Y-66455146D01*
X138503247Y-66451203D01*
X138504208Y-66449806D01*
X138550751Y-66384214D01*
X138569057Y-66340020D01*
X138584700Y-66261378D01*
X138584700Y-64504600D01*
X138603006Y-64460406D01*
X138647200Y-64442100D01*
X139842652Y-64442100D01*
X139918271Y-64427681D01*
X139961041Y-64410755D01*
X140017425Y-64377172D01*
X140017427Y-64377170D01*
X140021919Y-64373154D01*
X140022831Y-64374174D01*
X140058486Y-64353316D01*
X140104762Y-64365432D01*
G37*
%TD.AperFunction*%
%TA.AperFunction,Conductor*%
G36*
X129765173Y-62227813D02*
G01*
X129779151Y-62230027D01*
X129793491Y-62232299D01*
X129793497Y-62232299D01*
X129793500Y-62232300D01*
X135285481Y-62232300D01*
X135329675Y-62250606D01*
X135342951Y-62270235D01*
X135347670Y-62281276D01*
X135347671Y-62281278D01*
X135384213Y-62331573D01*
X135384223Y-62331586D01*
X135408455Y-62359321D01*
X135486965Y-62406229D01*
X135546096Y-62425442D01*
X135609600Y-62435500D01*
X135789107Y-62435500D01*
X135833301Y-62453806D01*
X135851607Y-62498000D01*
X135845537Y-62521501D01*
X135846793Y-62522021D01*
X135845450Y-62525261D01*
X135845449Y-62525264D01*
X135827143Y-62569458D01*
X135827141Y-62569463D01*
X135811500Y-62648099D01*
X135811500Y-62648100D01*
X135811500Y-64380481D01*
X135812396Y-64397626D01*
X135812621Y-64401916D01*
X135813982Y-64414896D01*
X135815258Y-64424754D01*
X135848951Y-64509773D01*
X135848952Y-64509775D01*
X135857979Y-64522920D01*
X135876031Y-64549210D01*
X135876032Y-64549211D01*
X135876033Y-64549212D01*
X135933439Y-64605181D01*
X135933441Y-64605182D01*
X135933443Y-64605184D01*
X136291062Y-64837636D01*
X136318140Y-64877070D01*
X136319500Y-64890039D01*
X136319500Y-67247500D01*
X136335142Y-67326140D01*
X136341592Y-67341711D01*
X136353449Y-67370336D01*
X136370261Y-67397092D01*
X136384727Y-67420115D01*
X136390076Y-67428627D01*
X136395992Y-67432825D01*
X136421441Y-67473328D01*
X136415829Y-67511539D01*
X136409263Y-67524792D01*
X136387623Y-67594042D01*
X136356968Y-67630765D01*
X136327968Y-67637900D01*
X129886470Y-67637900D01*
X129884980Y-67637958D01*
X129870337Y-67638533D01*
X129854606Y-67639772D01*
X129854595Y-67639774D01*
X129774486Y-67662369D01*
X129774148Y-67661172D01*
X129730336Y-67660299D01*
X129697192Y-67625807D01*
X129692900Y-67603045D01*
X129692900Y-62289544D01*
X129711206Y-62245350D01*
X129755400Y-62227044D01*
X129765173Y-62227813D01*
G37*
%TD.AperFunction*%
%TD*%
%TA.AperFunction,Conductor*%
%TO.N,/VIN*%
G36*
X141211890Y-57957113D02*
G01*
X141229140Y-57973030D01*
X141326781Y-58086944D01*
X141350676Y-58144344D01*
X141351000Y-58152414D01*
X141351000Y-67235452D01*
X141340379Y-67280442D01*
X141328005Y-67305190D01*
X141284377Y-67349486D01*
X141238026Y-67360800D01*
X141100540Y-67360800D01*
X141080914Y-67358867D01*
X141033752Y-67349486D01*
X141011703Y-67345100D01*
X141011702Y-67345100D01*
X140454028Y-67345100D01*
X140394897Y-67325887D01*
X140358352Y-67275587D01*
X140353428Y-67244500D01*
X140353428Y-66477591D01*
X140353840Y-66473407D01*
X140353840Y-66465610D01*
X140337318Y-66382530D01*
X140338075Y-66382379D01*
X140335000Y-66361635D01*
X140335000Y-62357000D01*
X140334999Y-62356999D01*
X140182600Y-62230000D01*
X139928600Y-62230000D01*
X135609600Y-62230000D01*
X135550469Y-62210787D01*
X135513924Y-62160487D01*
X135509000Y-62129400D01*
X135509000Y-62026800D01*
X129793500Y-62026800D01*
X129734369Y-62007587D01*
X129697824Y-61957287D01*
X129692900Y-61926200D01*
X129692900Y-58038500D01*
X129712113Y-57979369D01*
X129762413Y-57942824D01*
X129793500Y-57937900D01*
X141152759Y-57937900D01*
X141211890Y-57957113D01*
G37*
%TD.AperFunction*%
%TD*%
%TA.AperFunction,Conductor*%
%TO.N,Net-(U1-VOUT)*%
G36*
X138243103Y-67534713D02*
G01*
X138279648Y-67585013D01*
X138284572Y-67616100D01*
X138284572Y-68244500D01*
X138265359Y-68303631D01*
X138215059Y-68340176D01*
X138183972Y-68345100D01*
X138013718Y-68345100D01*
X137979308Y-68339032D01*
X137976748Y-68338100D01*
X137976747Y-68338100D01*
X137861253Y-68338100D01*
X137861252Y-68338100D01*
X137858686Y-68339034D01*
X137824281Y-68345100D01*
X137626298Y-68345100D01*
X137559062Y-68358474D01*
X137559060Y-68358475D01*
X137518995Y-68385246D01*
X137463105Y-68402200D01*
X137312399Y-68402200D01*
X137109199Y-68732399D01*
X137084597Y-72619737D01*
X137065010Y-72678745D01*
X137014480Y-72714971D01*
X136983999Y-72719700D01*
X129793500Y-72719700D01*
X129734369Y-72700487D01*
X129697824Y-72650187D01*
X129692900Y-72619100D01*
X129692900Y-68036970D01*
X129712113Y-67977839D01*
X129722365Y-67965835D01*
X129815335Y-67872865D01*
X129870733Y-67844639D01*
X129886470Y-67843400D01*
X136524999Y-67843400D01*
X136525000Y-67843400D01*
X136605408Y-67586091D01*
X136641384Y-67535385D01*
X136700295Y-67515506D01*
X136701429Y-67515500D01*
X138183972Y-67515500D01*
X138243103Y-67534713D01*
G37*
%TD.AperFunction*%
%TD*%
%TA.AperFunction,Conductor*%
%TO.N,Net-(U1-SW)*%
G36*
X138227718Y-62585627D02*
G01*
X139891380Y-62634558D01*
X139935017Y-62654155D01*
X139952016Y-62698868D01*
X139952012Y-62699014D01*
X139905121Y-64176083D01*
X139885422Y-64219674D01*
X139842652Y-64236600D01*
X138379200Y-64236600D01*
X138379200Y-66261378D01*
X138360894Y-66305572D01*
X138351426Y-66313343D01*
X138345615Y-66317225D01*
X138345614Y-66317226D01*
X138330988Y-66339118D01*
X138301311Y-66383539D01*
X138301302Y-66383552D01*
X138299718Y-66387376D01*
X138284160Y-66465575D01*
X138284160Y-66469614D01*
X138284572Y-66473799D01*
X138284572Y-67247500D01*
X138266266Y-67291694D01*
X138222072Y-67310000D01*
X136587500Y-67310000D01*
X136543306Y-67291694D01*
X136525000Y-67247500D01*
X136525000Y-64744600D01*
X136045438Y-64432884D01*
X136018360Y-64393450D01*
X136017000Y-64380481D01*
X136017000Y-62648100D01*
X136035306Y-62603906D01*
X136079500Y-62585600D01*
X138225881Y-62585600D01*
X138227718Y-62585627D01*
G37*
%TD.AperFunction*%
%TD*%
M02*
