%TF.GenerationSoftware,KiCad,Pcbnew,7.0.10*%
%TF.CreationDate,2024-08-19T14:49:08+08:00*%
%TF.ProjectId,TPS61230_Booster_5V_Layout-240812_JLCPCB,54505336-3132-4333-905f-426f6f737465,rev?*%
%TF.SameCoordinates,Original*%
%TF.FileFunction,Legend,Top*%
%TF.FilePolarity,Positive*%
%FSLAX46Y46*%
G04 Gerber Fmt 4.6, Leading zero omitted, Abs format (unit mm)*
G04 Created by KiCad (PCBNEW 7.0.10) date 2024-08-19 14:49:08*
%MOMM*%
%LPD*%
G01*
G04 APERTURE LIST*
G04 Aperture macros list*
%AMRoundRect*
0 Rectangle with rounded corners*
0 $1 Rounding radius*
0 $2 $3 $4 $5 $6 $7 $8 $9 X,Y pos of 4 corners*
0 Add a 4 corners polygon primitive as box body*
4,1,4,$2,$3,$4,$5,$6,$7,$8,$9,$2,$3,0*
0 Add four circle primitives for the rounded corners*
1,1,$1+$1,$2,$3*
1,1,$1+$1,$4,$5*
1,1,$1+$1,$6,$7*
1,1,$1+$1,$8,$9*
0 Add four rect primitives between the rounded corners*
20,1,$1+$1,$2,$3,$4,$5,0*
20,1,$1+$1,$4,$5,$6,$7,0*
20,1,$1+$1,$6,$7,$8,$9,0*
20,1,$1+$1,$8,$9,$2,$3,0*%
G04 Aperture macros list end*
%ADD10C,0.101600*%
%ADD11C,0.120000*%
%ADD12C,0.127000*%
%ADD13C,0.200000*%
%ADD14C,0.152400*%
%ADD15C,0.203200*%
%ADD16C,0.010000*%
%ADD17RoundRect,0.237500X0.250000X0.237500X-0.250000X0.237500X-0.250000X-0.237500X0.250000X-0.237500X0*%
%ADD18R,1.500000X1.500000*%
%ADD19RoundRect,0.225000X0.250000X-0.225000X0.250000X0.225000X-0.250000X0.225000X-0.250000X-0.225000X0*%
%ADD20RoundRect,0.243750X-0.456250X0.243750X-0.456250X-0.243750X0.456250X-0.243750X0.456250X0.243750X0*%
%ADD21RoundRect,0.237500X0.237500X-0.250000X0.237500X0.250000X-0.237500X0.250000X-0.237500X-0.250000X0*%
%ADD22RoundRect,0.250000X0.475000X-0.250000X0.475000X0.250000X-0.475000X0.250000X-0.475000X-0.250000X0*%
%ADD23R,3.708400X1.092200*%
%ADD24RoundRect,0.250000X-0.475000X0.250000X-0.475000X-0.250000X0.475000X-0.250000X0.475000X0.250000X0*%
G04 APERTURE END LIST*
D10*
X146397451Y-61059642D02*
X146336975Y-61029404D01*
X146336975Y-61029404D02*
X146246261Y-61029404D01*
X146246261Y-61029404D02*
X146155546Y-61059642D01*
X146155546Y-61059642D02*
X146095070Y-61120118D01*
X146095070Y-61120118D02*
X146064832Y-61180594D01*
X146064832Y-61180594D02*
X146034594Y-61301546D01*
X146034594Y-61301546D02*
X146034594Y-61392261D01*
X146034594Y-61392261D02*
X146064832Y-61513213D01*
X146064832Y-61513213D02*
X146095070Y-61573689D01*
X146095070Y-61573689D02*
X146155546Y-61634166D01*
X146155546Y-61634166D02*
X146246261Y-61664404D01*
X146246261Y-61664404D02*
X146306737Y-61664404D01*
X146306737Y-61664404D02*
X146397451Y-61634166D01*
X146397451Y-61634166D02*
X146427689Y-61603927D01*
X146427689Y-61603927D02*
X146427689Y-61392261D01*
X146427689Y-61392261D02*
X146306737Y-61392261D01*
X146699832Y-61241070D02*
X146699832Y-61664404D01*
X146699832Y-61301546D02*
X146730070Y-61271308D01*
X146730070Y-61271308D02*
X146790546Y-61241070D01*
X146790546Y-61241070D02*
X146881261Y-61241070D01*
X146881261Y-61241070D02*
X146941737Y-61271308D01*
X146941737Y-61271308D02*
X146971975Y-61331785D01*
X146971975Y-61331785D02*
X146971975Y-61664404D01*
X147546499Y-61664404D02*
X147546499Y-61029404D01*
X147546499Y-61634166D02*
X147486023Y-61664404D01*
X147486023Y-61664404D02*
X147365070Y-61664404D01*
X147365070Y-61664404D02*
X147304594Y-61634166D01*
X147304594Y-61634166D02*
X147274356Y-61603927D01*
X147274356Y-61603927D02*
X147244118Y-61543451D01*
X147244118Y-61543451D02*
X147244118Y-61362023D01*
X147244118Y-61362023D02*
X147274356Y-61301546D01*
X147274356Y-61301546D02*
X147304594Y-61271308D01*
X147304594Y-61271308D02*
X147365070Y-61241070D01*
X147365070Y-61241070D02*
X147486023Y-61241070D01*
X147486023Y-61241070D02*
X147546499Y-61271308D01*
X130149918Y-61054804D02*
X130361584Y-61689804D01*
X130361584Y-61689804D02*
X130573251Y-61054804D01*
X130784918Y-61689804D02*
X130784918Y-61266470D01*
X130784918Y-61054804D02*
X130754680Y-61085042D01*
X130754680Y-61085042D02*
X130784918Y-61115280D01*
X130784918Y-61115280D02*
X130815156Y-61085042D01*
X130815156Y-61085042D02*
X130784918Y-61054804D01*
X130784918Y-61054804D02*
X130784918Y-61115280D01*
X131087299Y-61266470D02*
X131087299Y-61689804D01*
X131087299Y-61326946D02*
X131117537Y-61296708D01*
X131117537Y-61296708D02*
X131178013Y-61266470D01*
X131178013Y-61266470D02*
X131268728Y-61266470D01*
X131268728Y-61266470D02*
X131329204Y-61296708D01*
X131329204Y-61296708D02*
X131359442Y-61357185D01*
X131359442Y-61357185D02*
X131359442Y-61689804D01*
X135725822Y-58144266D02*
X136016108Y-58144266D01*
X135870965Y-58652266D02*
X135870965Y-58144266D01*
X136185442Y-58652266D02*
X136185442Y-58144266D01*
X136185442Y-58144266D02*
X136378966Y-58144266D01*
X136378966Y-58144266D02*
X136427347Y-58168456D01*
X136427347Y-58168456D02*
X136451537Y-58192647D01*
X136451537Y-58192647D02*
X136475728Y-58241028D01*
X136475728Y-58241028D02*
X136475728Y-58313599D01*
X136475728Y-58313599D02*
X136451537Y-58361980D01*
X136451537Y-58361980D02*
X136427347Y-58386171D01*
X136427347Y-58386171D02*
X136378966Y-58410361D01*
X136378966Y-58410361D02*
X136185442Y-58410361D01*
X136669251Y-58628076D02*
X136741823Y-58652266D01*
X136741823Y-58652266D02*
X136862775Y-58652266D01*
X136862775Y-58652266D02*
X136911156Y-58628076D01*
X136911156Y-58628076D02*
X136935347Y-58603885D01*
X136935347Y-58603885D02*
X136959537Y-58555504D01*
X136959537Y-58555504D02*
X136959537Y-58507123D01*
X136959537Y-58507123D02*
X136935347Y-58458742D01*
X136935347Y-58458742D02*
X136911156Y-58434552D01*
X136911156Y-58434552D02*
X136862775Y-58410361D01*
X136862775Y-58410361D02*
X136766013Y-58386171D01*
X136766013Y-58386171D02*
X136717632Y-58361980D01*
X136717632Y-58361980D02*
X136693442Y-58337790D01*
X136693442Y-58337790D02*
X136669251Y-58289409D01*
X136669251Y-58289409D02*
X136669251Y-58241028D01*
X136669251Y-58241028D02*
X136693442Y-58192647D01*
X136693442Y-58192647D02*
X136717632Y-58168456D01*
X136717632Y-58168456D02*
X136766013Y-58144266D01*
X136766013Y-58144266D02*
X136886966Y-58144266D01*
X136886966Y-58144266D02*
X136959537Y-58168456D01*
X137394966Y-58144266D02*
X137298204Y-58144266D01*
X137298204Y-58144266D02*
X137249823Y-58168456D01*
X137249823Y-58168456D02*
X137225633Y-58192647D01*
X137225633Y-58192647D02*
X137177252Y-58265218D01*
X137177252Y-58265218D02*
X137153061Y-58361980D01*
X137153061Y-58361980D02*
X137153061Y-58555504D01*
X137153061Y-58555504D02*
X137177252Y-58603885D01*
X137177252Y-58603885D02*
X137201442Y-58628076D01*
X137201442Y-58628076D02*
X137249823Y-58652266D01*
X137249823Y-58652266D02*
X137346585Y-58652266D01*
X137346585Y-58652266D02*
X137394966Y-58628076D01*
X137394966Y-58628076D02*
X137419157Y-58603885D01*
X137419157Y-58603885D02*
X137443347Y-58555504D01*
X137443347Y-58555504D02*
X137443347Y-58434552D01*
X137443347Y-58434552D02*
X137419157Y-58386171D01*
X137419157Y-58386171D02*
X137394966Y-58361980D01*
X137394966Y-58361980D02*
X137346585Y-58337790D01*
X137346585Y-58337790D02*
X137249823Y-58337790D01*
X137249823Y-58337790D02*
X137201442Y-58361980D01*
X137201442Y-58361980D02*
X137177252Y-58386171D01*
X137177252Y-58386171D02*
X137153061Y-58434552D01*
X137927157Y-58652266D02*
X137636871Y-58652266D01*
X137782014Y-58652266D02*
X137782014Y-58144266D01*
X137782014Y-58144266D02*
X137733633Y-58216837D01*
X137733633Y-58216837D02*
X137685252Y-58265218D01*
X137685252Y-58265218D02*
X137636871Y-58289409D01*
X138120681Y-58192647D02*
X138144872Y-58168456D01*
X138144872Y-58168456D02*
X138193253Y-58144266D01*
X138193253Y-58144266D02*
X138314205Y-58144266D01*
X138314205Y-58144266D02*
X138362586Y-58168456D01*
X138362586Y-58168456D02*
X138386777Y-58192647D01*
X138386777Y-58192647D02*
X138410967Y-58241028D01*
X138410967Y-58241028D02*
X138410967Y-58289409D01*
X138410967Y-58289409D02*
X138386777Y-58361980D01*
X138386777Y-58361980D02*
X138096491Y-58652266D01*
X138096491Y-58652266D02*
X138410967Y-58652266D01*
X138580301Y-58144266D02*
X138894777Y-58144266D01*
X138894777Y-58144266D02*
X138725444Y-58337790D01*
X138725444Y-58337790D02*
X138798015Y-58337790D01*
X138798015Y-58337790D02*
X138846396Y-58361980D01*
X138846396Y-58361980D02*
X138870587Y-58386171D01*
X138870587Y-58386171D02*
X138894777Y-58434552D01*
X138894777Y-58434552D02*
X138894777Y-58555504D01*
X138894777Y-58555504D02*
X138870587Y-58603885D01*
X138870587Y-58603885D02*
X138846396Y-58628076D01*
X138846396Y-58628076D02*
X138798015Y-58652266D01*
X138798015Y-58652266D02*
X138652872Y-58652266D01*
X138652872Y-58652266D02*
X138604491Y-58628076D01*
X138604491Y-58628076D02*
X138580301Y-58603885D01*
X139209254Y-58144266D02*
X139257635Y-58144266D01*
X139257635Y-58144266D02*
X139306016Y-58168456D01*
X139306016Y-58168456D02*
X139330206Y-58192647D01*
X139330206Y-58192647D02*
X139354397Y-58241028D01*
X139354397Y-58241028D02*
X139378587Y-58337790D01*
X139378587Y-58337790D02*
X139378587Y-58458742D01*
X139378587Y-58458742D02*
X139354397Y-58555504D01*
X139354397Y-58555504D02*
X139330206Y-58603885D01*
X139330206Y-58603885D02*
X139306016Y-58628076D01*
X139306016Y-58628076D02*
X139257635Y-58652266D01*
X139257635Y-58652266D02*
X139209254Y-58652266D01*
X139209254Y-58652266D02*
X139160873Y-58628076D01*
X139160873Y-58628076D02*
X139136682Y-58603885D01*
X139136682Y-58603885D02*
X139112492Y-58555504D01*
X139112492Y-58555504D02*
X139088301Y-58458742D01*
X139088301Y-58458742D02*
X139088301Y-58337790D01*
X139088301Y-58337790D02*
X139112492Y-58241028D01*
X139112492Y-58241028D02*
X139136682Y-58192647D01*
X139136682Y-58192647D02*
X139160873Y-58168456D01*
X139160873Y-58168456D02*
X139209254Y-58144266D01*
X139475350Y-58700647D02*
X139862397Y-58700647D01*
X140152683Y-58386171D02*
X140225255Y-58410361D01*
X140225255Y-58410361D02*
X140249445Y-58434552D01*
X140249445Y-58434552D02*
X140273636Y-58482933D01*
X140273636Y-58482933D02*
X140273636Y-58555504D01*
X140273636Y-58555504D02*
X140249445Y-58603885D01*
X140249445Y-58603885D02*
X140225255Y-58628076D01*
X140225255Y-58628076D02*
X140176874Y-58652266D01*
X140176874Y-58652266D02*
X139983350Y-58652266D01*
X139983350Y-58652266D02*
X139983350Y-58144266D01*
X139983350Y-58144266D02*
X140152683Y-58144266D01*
X140152683Y-58144266D02*
X140201064Y-58168456D01*
X140201064Y-58168456D02*
X140225255Y-58192647D01*
X140225255Y-58192647D02*
X140249445Y-58241028D01*
X140249445Y-58241028D02*
X140249445Y-58289409D01*
X140249445Y-58289409D02*
X140225255Y-58337790D01*
X140225255Y-58337790D02*
X140201064Y-58361980D01*
X140201064Y-58361980D02*
X140152683Y-58386171D01*
X140152683Y-58386171D02*
X139983350Y-58386171D01*
X140563921Y-58652266D02*
X140515540Y-58628076D01*
X140515540Y-58628076D02*
X140491350Y-58603885D01*
X140491350Y-58603885D02*
X140467159Y-58555504D01*
X140467159Y-58555504D02*
X140467159Y-58410361D01*
X140467159Y-58410361D02*
X140491350Y-58361980D01*
X140491350Y-58361980D02*
X140515540Y-58337790D01*
X140515540Y-58337790D02*
X140563921Y-58313599D01*
X140563921Y-58313599D02*
X140636493Y-58313599D01*
X140636493Y-58313599D02*
X140684874Y-58337790D01*
X140684874Y-58337790D02*
X140709064Y-58361980D01*
X140709064Y-58361980D02*
X140733255Y-58410361D01*
X140733255Y-58410361D02*
X140733255Y-58555504D01*
X140733255Y-58555504D02*
X140709064Y-58603885D01*
X140709064Y-58603885D02*
X140684874Y-58628076D01*
X140684874Y-58628076D02*
X140636493Y-58652266D01*
X140636493Y-58652266D02*
X140563921Y-58652266D01*
X141023540Y-58652266D02*
X140975159Y-58628076D01*
X140975159Y-58628076D02*
X140950969Y-58603885D01*
X140950969Y-58603885D02*
X140926778Y-58555504D01*
X140926778Y-58555504D02*
X140926778Y-58410361D01*
X140926778Y-58410361D02*
X140950969Y-58361980D01*
X140950969Y-58361980D02*
X140975159Y-58337790D01*
X140975159Y-58337790D02*
X141023540Y-58313599D01*
X141023540Y-58313599D02*
X141096112Y-58313599D01*
X141096112Y-58313599D02*
X141144493Y-58337790D01*
X141144493Y-58337790D02*
X141168683Y-58361980D01*
X141168683Y-58361980D02*
X141192874Y-58410361D01*
X141192874Y-58410361D02*
X141192874Y-58555504D01*
X141192874Y-58555504D02*
X141168683Y-58603885D01*
X141168683Y-58603885D02*
X141144493Y-58628076D01*
X141144493Y-58628076D02*
X141096112Y-58652266D01*
X141096112Y-58652266D02*
X141023540Y-58652266D01*
X141386397Y-58628076D02*
X141434778Y-58652266D01*
X141434778Y-58652266D02*
X141531540Y-58652266D01*
X141531540Y-58652266D02*
X141579921Y-58628076D01*
X141579921Y-58628076D02*
X141604112Y-58579695D01*
X141604112Y-58579695D02*
X141604112Y-58555504D01*
X141604112Y-58555504D02*
X141579921Y-58507123D01*
X141579921Y-58507123D02*
X141531540Y-58482933D01*
X141531540Y-58482933D02*
X141458969Y-58482933D01*
X141458969Y-58482933D02*
X141410588Y-58458742D01*
X141410588Y-58458742D02*
X141386397Y-58410361D01*
X141386397Y-58410361D02*
X141386397Y-58386171D01*
X141386397Y-58386171D02*
X141410588Y-58337790D01*
X141410588Y-58337790D02*
X141458969Y-58313599D01*
X141458969Y-58313599D02*
X141531540Y-58313599D01*
X141531540Y-58313599D02*
X141579921Y-58337790D01*
X141749254Y-58313599D02*
X141942778Y-58313599D01*
X141821826Y-58144266D02*
X141821826Y-58579695D01*
X141821826Y-58579695D02*
X141846016Y-58628076D01*
X141846016Y-58628076D02*
X141894397Y-58652266D01*
X141894397Y-58652266D02*
X141942778Y-58652266D01*
X142305636Y-58628076D02*
X142257255Y-58652266D01*
X142257255Y-58652266D02*
X142160493Y-58652266D01*
X142160493Y-58652266D02*
X142112112Y-58628076D01*
X142112112Y-58628076D02*
X142087921Y-58579695D01*
X142087921Y-58579695D02*
X142087921Y-58386171D01*
X142087921Y-58386171D02*
X142112112Y-58337790D01*
X142112112Y-58337790D02*
X142160493Y-58313599D01*
X142160493Y-58313599D02*
X142257255Y-58313599D01*
X142257255Y-58313599D02*
X142305636Y-58337790D01*
X142305636Y-58337790D02*
X142329826Y-58386171D01*
X142329826Y-58386171D02*
X142329826Y-58434552D01*
X142329826Y-58434552D02*
X142087921Y-58482933D01*
X142547541Y-58652266D02*
X142547541Y-58313599D01*
X142547541Y-58410361D02*
X142571731Y-58361980D01*
X142571731Y-58361980D02*
X142595922Y-58337790D01*
X142595922Y-58337790D02*
X142644303Y-58313599D01*
X142644303Y-58313599D02*
X142692684Y-58313599D01*
X142741065Y-58700647D02*
X143128112Y-58700647D01*
X143490970Y-58144266D02*
X143249065Y-58144266D01*
X143249065Y-58144266D02*
X143224874Y-58386171D01*
X143224874Y-58386171D02*
X143249065Y-58361980D01*
X143249065Y-58361980D02*
X143297446Y-58337790D01*
X143297446Y-58337790D02*
X143418398Y-58337790D01*
X143418398Y-58337790D02*
X143466779Y-58361980D01*
X143466779Y-58361980D02*
X143490970Y-58386171D01*
X143490970Y-58386171D02*
X143515160Y-58434552D01*
X143515160Y-58434552D02*
X143515160Y-58555504D01*
X143515160Y-58555504D02*
X143490970Y-58603885D01*
X143490970Y-58603885D02*
X143466779Y-58628076D01*
X143466779Y-58628076D02*
X143418398Y-58652266D01*
X143418398Y-58652266D02*
X143297446Y-58652266D01*
X143297446Y-58652266D02*
X143249065Y-58628076D01*
X143249065Y-58628076D02*
X143224874Y-58603885D01*
X143660303Y-58144266D02*
X143829637Y-58652266D01*
X143829637Y-58652266D02*
X143998970Y-58144266D01*
X135798394Y-59470146D02*
X135798394Y-58962146D01*
X135798394Y-58962146D02*
X135967727Y-59325003D01*
X135967727Y-59325003D02*
X136137061Y-58962146D01*
X136137061Y-58962146D02*
X136137061Y-59470146D01*
X136354774Y-59445956D02*
X136427346Y-59470146D01*
X136427346Y-59470146D02*
X136548298Y-59470146D01*
X136548298Y-59470146D02*
X136596679Y-59445956D01*
X136596679Y-59445956D02*
X136620870Y-59421765D01*
X136620870Y-59421765D02*
X136645060Y-59373384D01*
X136645060Y-59373384D02*
X136645060Y-59325003D01*
X136645060Y-59325003D02*
X136620870Y-59276622D01*
X136620870Y-59276622D02*
X136596679Y-59252432D01*
X136596679Y-59252432D02*
X136548298Y-59228241D01*
X136548298Y-59228241D02*
X136451536Y-59204051D01*
X136451536Y-59204051D02*
X136403155Y-59179860D01*
X136403155Y-59179860D02*
X136378965Y-59155670D01*
X136378965Y-59155670D02*
X136354774Y-59107289D01*
X136354774Y-59107289D02*
X136354774Y-59058908D01*
X136354774Y-59058908D02*
X136378965Y-59010527D01*
X136378965Y-59010527D02*
X136403155Y-58986336D01*
X136403155Y-58986336D02*
X136451536Y-58962146D01*
X136451536Y-58962146D02*
X136572489Y-58962146D01*
X136572489Y-58962146D02*
X136645060Y-58986336D01*
X136790203Y-58962146D02*
X137080489Y-58962146D01*
X136935346Y-59470146D02*
X136935346Y-58962146D01*
X137225632Y-59445956D02*
X137298204Y-59470146D01*
X137298204Y-59470146D02*
X137419156Y-59470146D01*
X137419156Y-59470146D02*
X137467537Y-59445956D01*
X137467537Y-59445956D02*
X137491728Y-59421765D01*
X137491728Y-59421765D02*
X137515918Y-59373384D01*
X137515918Y-59373384D02*
X137515918Y-59325003D01*
X137515918Y-59325003D02*
X137491728Y-59276622D01*
X137491728Y-59276622D02*
X137467537Y-59252432D01*
X137467537Y-59252432D02*
X137419156Y-59228241D01*
X137419156Y-59228241D02*
X137322394Y-59204051D01*
X137322394Y-59204051D02*
X137274013Y-59179860D01*
X137274013Y-59179860D02*
X137249823Y-59155670D01*
X137249823Y-59155670D02*
X137225632Y-59107289D01*
X137225632Y-59107289D02*
X137225632Y-59058908D01*
X137225632Y-59058908D02*
X137249823Y-59010527D01*
X137249823Y-59010527D02*
X137274013Y-58986336D01*
X137274013Y-58986336D02*
X137322394Y-58962146D01*
X137322394Y-58962146D02*
X137443347Y-58962146D01*
X137443347Y-58962146D02*
X137515918Y-58986336D01*
X137709442Y-59325003D02*
X137951347Y-59325003D01*
X137661061Y-59470146D02*
X137830395Y-58962146D01*
X137830395Y-58962146D02*
X137999728Y-59470146D01*
X138169062Y-59470146D02*
X138169062Y-58962146D01*
X138725443Y-59228241D02*
X138701253Y-59204051D01*
X138701253Y-59204051D02*
X138652872Y-59179860D01*
X138652872Y-59179860D02*
X138604491Y-59179860D01*
X138604491Y-59179860D02*
X138556110Y-59204051D01*
X138556110Y-59204051D02*
X138531919Y-59228241D01*
X138531919Y-59228241D02*
X138507729Y-59276622D01*
X138507729Y-59276622D02*
X138507729Y-59325003D01*
X138507729Y-59325003D02*
X138531919Y-59373384D01*
X138531919Y-59373384D02*
X138556110Y-59397575D01*
X138556110Y-59397575D02*
X138604491Y-59421765D01*
X138604491Y-59421765D02*
X138652872Y-59421765D01*
X138652872Y-59421765D02*
X138701253Y-59397575D01*
X138701253Y-59397575D02*
X138725443Y-59373384D01*
X138725443Y-59179860D02*
X138725443Y-59373384D01*
X138725443Y-59373384D02*
X138749634Y-59397575D01*
X138749634Y-59397575D02*
X138773824Y-59397575D01*
X138773824Y-59397575D02*
X138822205Y-59373384D01*
X138822205Y-59373384D02*
X138846395Y-59325003D01*
X138846395Y-59325003D02*
X138846395Y-59204051D01*
X138846395Y-59204051D02*
X138798015Y-59131479D01*
X138798015Y-59131479D02*
X138725443Y-59083098D01*
X138725443Y-59083098D02*
X138628681Y-59058908D01*
X138628681Y-59058908D02*
X138531919Y-59083098D01*
X138531919Y-59083098D02*
X138459348Y-59131479D01*
X138459348Y-59131479D02*
X138410967Y-59204051D01*
X138410967Y-59204051D02*
X138386776Y-59300813D01*
X138386776Y-59300813D02*
X138410967Y-59397575D01*
X138410967Y-59397575D02*
X138459348Y-59470146D01*
X138459348Y-59470146D02*
X138531919Y-59518527D01*
X138531919Y-59518527D02*
X138628681Y-59542717D01*
X138628681Y-59542717D02*
X138725443Y-59518527D01*
X138725443Y-59518527D02*
X138798015Y-59470146D01*
X139039919Y-59010527D02*
X139064110Y-58986336D01*
X139064110Y-58986336D02*
X139112491Y-58962146D01*
X139112491Y-58962146D02*
X139233443Y-58962146D01*
X139233443Y-58962146D02*
X139281824Y-58986336D01*
X139281824Y-58986336D02*
X139306015Y-59010527D01*
X139306015Y-59010527D02*
X139330205Y-59058908D01*
X139330205Y-59058908D02*
X139330205Y-59107289D01*
X139330205Y-59107289D02*
X139306015Y-59179860D01*
X139306015Y-59179860D02*
X139015729Y-59470146D01*
X139015729Y-59470146D02*
X139330205Y-59470146D01*
X139644682Y-58962146D02*
X139693063Y-58962146D01*
X139693063Y-58962146D02*
X139741444Y-58986336D01*
X139741444Y-58986336D02*
X139765634Y-59010527D01*
X139765634Y-59010527D02*
X139789825Y-59058908D01*
X139789825Y-59058908D02*
X139814015Y-59155670D01*
X139814015Y-59155670D02*
X139814015Y-59276622D01*
X139814015Y-59276622D02*
X139789825Y-59373384D01*
X139789825Y-59373384D02*
X139765634Y-59421765D01*
X139765634Y-59421765D02*
X139741444Y-59445956D01*
X139741444Y-59445956D02*
X139693063Y-59470146D01*
X139693063Y-59470146D02*
X139644682Y-59470146D01*
X139644682Y-59470146D02*
X139596301Y-59445956D01*
X139596301Y-59445956D02*
X139572110Y-59421765D01*
X139572110Y-59421765D02*
X139547920Y-59373384D01*
X139547920Y-59373384D02*
X139523729Y-59276622D01*
X139523729Y-59276622D02*
X139523729Y-59155670D01*
X139523729Y-59155670D02*
X139547920Y-59058908D01*
X139547920Y-59058908D02*
X139572110Y-59010527D01*
X139572110Y-59010527D02*
X139596301Y-58986336D01*
X139596301Y-58986336D02*
X139644682Y-58962146D01*
X140007539Y-59010527D02*
X140031730Y-58986336D01*
X140031730Y-58986336D02*
X140080111Y-58962146D01*
X140080111Y-58962146D02*
X140201063Y-58962146D01*
X140201063Y-58962146D02*
X140249444Y-58986336D01*
X140249444Y-58986336D02*
X140273635Y-59010527D01*
X140273635Y-59010527D02*
X140297825Y-59058908D01*
X140297825Y-59058908D02*
X140297825Y-59107289D01*
X140297825Y-59107289D02*
X140273635Y-59179860D01*
X140273635Y-59179860D02*
X139983349Y-59470146D01*
X139983349Y-59470146D02*
X140297825Y-59470146D01*
X140733254Y-59131479D02*
X140733254Y-59470146D01*
X140612302Y-58937956D02*
X140491349Y-59300813D01*
X140491349Y-59300813D02*
X140805826Y-59300813D01*
X141096112Y-58962146D02*
X141144493Y-58962146D01*
X141144493Y-58962146D02*
X141192874Y-58986336D01*
X141192874Y-58986336D02*
X141217064Y-59010527D01*
X141217064Y-59010527D02*
X141241255Y-59058908D01*
X141241255Y-59058908D02*
X141265445Y-59155670D01*
X141265445Y-59155670D02*
X141265445Y-59276622D01*
X141265445Y-59276622D02*
X141241255Y-59373384D01*
X141241255Y-59373384D02*
X141217064Y-59421765D01*
X141217064Y-59421765D02*
X141192874Y-59445956D01*
X141192874Y-59445956D02*
X141144493Y-59470146D01*
X141144493Y-59470146D02*
X141096112Y-59470146D01*
X141096112Y-59470146D02*
X141047731Y-59445956D01*
X141047731Y-59445956D02*
X141023540Y-59421765D01*
X141023540Y-59421765D02*
X140999350Y-59373384D01*
X140999350Y-59373384D02*
X140975159Y-59276622D01*
X140975159Y-59276622D02*
X140975159Y-59155670D01*
X140975159Y-59155670D02*
X140999350Y-59058908D01*
X140999350Y-59058908D02*
X141023540Y-59010527D01*
X141023540Y-59010527D02*
X141047731Y-58986336D01*
X141047731Y-58986336D02*
X141096112Y-58962146D01*
X141555731Y-59179860D02*
X141507350Y-59155670D01*
X141507350Y-59155670D02*
X141483160Y-59131479D01*
X141483160Y-59131479D02*
X141458969Y-59083098D01*
X141458969Y-59083098D02*
X141458969Y-59058908D01*
X141458969Y-59058908D02*
X141483160Y-59010527D01*
X141483160Y-59010527D02*
X141507350Y-58986336D01*
X141507350Y-58986336D02*
X141555731Y-58962146D01*
X141555731Y-58962146D02*
X141652493Y-58962146D01*
X141652493Y-58962146D02*
X141700874Y-58986336D01*
X141700874Y-58986336D02*
X141725065Y-59010527D01*
X141725065Y-59010527D02*
X141749255Y-59058908D01*
X141749255Y-59058908D02*
X141749255Y-59083098D01*
X141749255Y-59083098D02*
X141725065Y-59131479D01*
X141725065Y-59131479D02*
X141700874Y-59155670D01*
X141700874Y-59155670D02*
X141652493Y-59179860D01*
X141652493Y-59179860D02*
X141555731Y-59179860D01*
X141555731Y-59179860D02*
X141507350Y-59204051D01*
X141507350Y-59204051D02*
X141483160Y-59228241D01*
X141483160Y-59228241D02*
X141458969Y-59276622D01*
X141458969Y-59276622D02*
X141458969Y-59373384D01*
X141458969Y-59373384D02*
X141483160Y-59421765D01*
X141483160Y-59421765D02*
X141507350Y-59445956D01*
X141507350Y-59445956D02*
X141555731Y-59470146D01*
X141555731Y-59470146D02*
X141652493Y-59470146D01*
X141652493Y-59470146D02*
X141700874Y-59445956D01*
X141700874Y-59445956D02*
X141725065Y-59421765D01*
X141725065Y-59421765D02*
X141749255Y-59373384D01*
X141749255Y-59373384D02*
X141749255Y-59276622D01*
X141749255Y-59276622D02*
X141725065Y-59228241D01*
X141725065Y-59228241D02*
X141700874Y-59204051D01*
X141700874Y-59204051D02*
X141652493Y-59179860D01*
X142233065Y-59470146D02*
X141942779Y-59470146D01*
X142087922Y-59470146D02*
X142087922Y-58962146D01*
X142087922Y-58962146D02*
X142039541Y-59034717D01*
X142039541Y-59034717D02*
X141991160Y-59083098D01*
X141991160Y-59083098D02*
X141942779Y-59107289D01*
X142426589Y-59010527D02*
X142450780Y-58986336D01*
X142450780Y-58986336D02*
X142499161Y-58962146D01*
X142499161Y-58962146D02*
X142620113Y-58962146D01*
X142620113Y-58962146D02*
X142668494Y-58986336D01*
X142668494Y-58986336D02*
X142692685Y-59010527D01*
X142692685Y-59010527D02*
X142716875Y-59058908D01*
X142716875Y-59058908D02*
X142716875Y-59107289D01*
X142716875Y-59107289D02*
X142692685Y-59179860D01*
X142692685Y-59179860D02*
X142402399Y-59470146D01*
X142402399Y-59470146D02*
X142716875Y-59470146D01*
X146372051Y-69670242D02*
X146311575Y-69640004D01*
X146311575Y-69640004D02*
X146220861Y-69640004D01*
X146220861Y-69640004D02*
X146130146Y-69670242D01*
X146130146Y-69670242D02*
X146069670Y-69730718D01*
X146069670Y-69730718D02*
X146039432Y-69791194D01*
X146039432Y-69791194D02*
X146009194Y-69912146D01*
X146009194Y-69912146D02*
X146009194Y-70002861D01*
X146009194Y-70002861D02*
X146039432Y-70123813D01*
X146039432Y-70123813D02*
X146069670Y-70184289D01*
X146069670Y-70184289D02*
X146130146Y-70244766D01*
X146130146Y-70244766D02*
X146220861Y-70275004D01*
X146220861Y-70275004D02*
X146281337Y-70275004D01*
X146281337Y-70275004D02*
X146372051Y-70244766D01*
X146372051Y-70244766D02*
X146402289Y-70214527D01*
X146402289Y-70214527D02*
X146402289Y-70002861D01*
X146402289Y-70002861D02*
X146281337Y-70002861D01*
X146674432Y-69851670D02*
X146674432Y-70275004D01*
X146674432Y-69912146D02*
X146704670Y-69881908D01*
X146704670Y-69881908D02*
X146765146Y-69851670D01*
X146765146Y-69851670D02*
X146855861Y-69851670D01*
X146855861Y-69851670D02*
X146916337Y-69881908D01*
X146916337Y-69881908D02*
X146946575Y-69942385D01*
X146946575Y-69942385D02*
X146946575Y-70275004D01*
X147521099Y-70275004D02*
X147521099Y-69640004D01*
X147521099Y-70244766D02*
X147460623Y-70275004D01*
X147460623Y-70275004D02*
X147339670Y-70275004D01*
X147339670Y-70275004D02*
X147279194Y-70244766D01*
X147279194Y-70244766D02*
X147248956Y-70214527D01*
X147248956Y-70214527D02*
X147218718Y-70154051D01*
X147218718Y-70154051D02*
X147218718Y-69972623D01*
X147218718Y-69972623D02*
X147248956Y-69912146D01*
X147248956Y-69912146D02*
X147279194Y-69881908D01*
X147279194Y-69881908D02*
X147339670Y-69851670D01*
X147339670Y-69851670D02*
X147460623Y-69851670D01*
X147460623Y-69851670D02*
X147521099Y-69881908D01*
X129870518Y-69640004D02*
X130082184Y-70275004D01*
X130082184Y-70275004D02*
X130293851Y-69640004D01*
X130596232Y-70275004D02*
X130535756Y-70244766D01*
X130535756Y-70244766D02*
X130505518Y-70214527D01*
X130505518Y-70214527D02*
X130475280Y-70154051D01*
X130475280Y-70154051D02*
X130475280Y-69972623D01*
X130475280Y-69972623D02*
X130505518Y-69912146D01*
X130505518Y-69912146D02*
X130535756Y-69881908D01*
X130535756Y-69881908D02*
X130596232Y-69851670D01*
X130596232Y-69851670D02*
X130686947Y-69851670D01*
X130686947Y-69851670D02*
X130747423Y-69881908D01*
X130747423Y-69881908D02*
X130777661Y-69912146D01*
X130777661Y-69912146D02*
X130807899Y-69972623D01*
X130807899Y-69972623D02*
X130807899Y-70154051D01*
X130807899Y-70154051D02*
X130777661Y-70214527D01*
X130777661Y-70214527D02*
X130747423Y-70244766D01*
X130747423Y-70244766D02*
X130686947Y-70275004D01*
X130686947Y-70275004D02*
X130596232Y-70275004D01*
X131352185Y-69851670D02*
X131352185Y-70275004D01*
X131080042Y-69851670D02*
X131080042Y-70184289D01*
X131080042Y-70184289D02*
X131110280Y-70244766D01*
X131110280Y-70244766D02*
X131170756Y-70275004D01*
X131170756Y-70275004D02*
X131261471Y-70275004D01*
X131261471Y-70275004D02*
X131321947Y-70244766D01*
X131321947Y-70244766D02*
X131352185Y-70214527D01*
X131563852Y-69851670D02*
X131805756Y-69851670D01*
X131654566Y-69640004D02*
X131654566Y-70184289D01*
X131654566Y-70184289D02*
X131684804Y-70244766D01*
X131684804Y-70244766D02*
X131745280Y-70275004D01*
X131745280Y-70275004D02*
X131805756Y-70275004D01*
X141278979Y-71606833D02*
X140976598Y-71818500D01*
X141278979Y-71969690D02*
X140643979Y-71969690D01*
X140643979Y-71969690D02*
X140643979Y-71727785D01*
X140643979Y-71727785D02*
X140674217Y-71667309D01*
X140674217Y-71667309D02*
X140704455Y-71637071D01*
X140704455Y-71637071D02*
X140764931Y-71606833D01*
X140764931Y-71606833D02*
X140855645Y-71606833D01*
X140855645Y-71606833D02*
X140916121Y-71637071D01*
X140916121Y-71637071D02*
X140946360Y-71667309D01*
X140946360Y-71667309D02*
X140976598Y-71727785D01*
X140976598Y-71727785D02*
X140976598Y-71969690D01*
X140643979Y-71395166D02*
X140643979Y-71002071D01*
X140643979Y-71002071D02*
X140885883Y-71213738D01*
X140885883Y-71213738D02*
X140885883Y-71123023D01*
X140885883Y-71123023D02*
X140916121Y-71062547D01*
X140916121Y-71062547D02*
X140946360Y-71032309D01*
X140946360Y-71032309D02*
X141006836Y-71002071D01*
X141006836Y-71002071D02*
X141158026Y-71002071D01*
X141158026Y-71002071D02*
X141218502Y-71032309D01*
X141218502Y-71032309D02*
X141248741Y-71062547D01*
X141248741Y-71062547D02*
X141278979Y-71123023D01*
X141278979Y-71123023D02*
X141278979Y-71304452D01*
X141278979Y-71304452D02*
X141248741Y-71364928D01*
X141248741Y-71364928D02*
X141218502Y-71395166D01*
X139520990Y-69833679D02*
X139520990Y-70347726D01*
X139520990Y-70347726D02*
X139551228Y-70408202D01*
X139551228Y-70408202D02*
X139581466Y-70438441D01*
X139581466Y-70438441D02*
X139641942Y-70468679D01*
X139641942Y-70468679D02*
X139762895Y-70468679D01*
X139762895Y-70468679D02*
X139823371Y-70438441D01*
X139823371Y-70438441D02*
X139853609Y-70408202D01*
X139853609Y-70408202D02*
X139883847Y-70347726D01*
X139883847Y-70347726D02*
X139883847Y-69833679D01*
X140518847Y-70468679D02*
X140155990Y-70468679D01*
X140337418Y-70468679D02*
X140337418Y-69833679D01*
X140337418Y-69833679D02*
X140276942Y-69924393D01*
X140276942Y-69924393D02*
X140216466Y-69984869D01*
X140216466Y-69984869D02*
X140155990Y-70015107D01*
X143912166Y-63194602D02*
X143881928Y-63224841D01*
X143881928Y-63224841D02*
X143791214Y-63255079D01*
X143791214Y-63255079D02*
X143730738Y-63255079D01*
X143730738Y-63255079D02*
X143640023Y-63224841D01*
X143640023Y-63224841D02*
X143579547Y-63164364D01*
X143579547Y-63164364D02*
X143549309Y-63103888D01*
X143549309Y-63103888D02*
X143519071Y-62982936D01*
X143519071Y-62982936D02*
X143519071Y-62892221D01*
X143519071Y-62892221D02*
X143549309Y-62771269D01*
X143549309Y-62771269D02*
X143579547Y-62710793D01*
X143579547Y-62710793D02*
X143640023Y-62650317D01*
X143640023Y-62650317D02*
X143730738Y-62620079D01*
X143730738Y-62620079D02*
X143791214Y-62620079D01*
X143791214Y-62620079D02*
X143881928Y-62650317D01*
X143881928Y-62650317D02*
X143912166Y-62680555D01*
X144154071Y-62680555D02*
X144184309Y-62650317D01*
X144184309Y-62650317D02*
X144244785Y-62620079D01*
X144244785Y-62620079D02*
X144395976Y-62620079D01*
X144395976Y-62620079D02*
X144456452Y-62650317D01*
X144456452Y-62650317D02*
X144486690Y-62680555D01*
X144486690Y-62680555D02*
X144516928Y-62741031D01*
X144516928Y-62741031D02*
X144516928Y-62801507D01*
X144516928Y-62801507D02*
X144486690Y-62892221D01*
X144486690Y-62892221D02*
X144123833Y-63255079D01*
X144123833Y-63255079D02*
X144516928Y-63255079D01*
X147608479Y-65619690D02*
X146973479Y-65619690D01*
X146973479Y-65619690D02*
X146973479Y-65468500D01*
X146973479Y-65468500D02*
X147003717Y-65377785D01*
X147003717Y-65377785D02*
X147064193Y-65317309D01*
X147064193Y-65317309D02*
X147124669Y-65287071D01*
X147124669Y-65287071D02*
X147245621Y-65256833D01*
X147245621Y-65256833D02*
X147336336Y-65256833D01*
X147336336Y-65256833D02*
X147457288Y-65287071D01*
X147457288Y-65287071D02*
X147517764Y-65317309D01*
X147517764Y-65317309D02*
X147578241Y-65377785D01*
X147578241Y-65377785D02*
X147608479Y-65468500D01*
X147608479Y-65468500D02*
X147608479Y-65619690D01*
X147608479Y-64652071D02*
X147608479Y-65014928D01*
X147608479Y-64833500D02*
X146973479Y-64833500D01*
X146973479Y-64833500D02*
X147064193Y-64893976D01*
X147064193Y-64893976D02*
X147124669Y-64954452D01*
X147124669Y-64954452D02*
X147154907Y-65014928D01*
X142388166Y-71865679D02*
X142176499Y-71563298D01*
X142025309Y-71865679D02*
X142025309Y-71230679D01*
X142025309Y-71230679D02*
X142267214Y-71230679D01*
X142267214Y-71230679D02*
X142327690Y-71260917D01*
X142327690Y-71260917D02*
X142357928Y-71291155D01*
X142357928Y-71291155D02*
X142388166Y-71351631D01*
X142388166Y-71351631D02*
X142388166Y-71442345D01*
X142388166Y-71442345D02*
X142357928Y-71502821D01*
X142357928Y-71502821D02*
X142327690Y-71533060D01*
X142327690Y-71533060D02*
X142267214Y-71563298D01*
X142267214Y-71563298D02*
X142025309Y-71563298D01*
X142630071Y-71291155D02*
X142660309Y-71260917D01*
X142660309Y-71260917D02*
X142720785Y-71230679D01*
X142720785Y-71230679D02*
X142871976Y-71230679D01*
X142871976Y-71230679D02*
X142932452Y-71260917D01*
X142932452Y-71260917D02*
X142962690Y-71291155D01*
X142962690Y-71291155D02*
X142992928Y-71351631D01*
X142992928Y-71351631D02*
X142992928Y-71412107D01*
X142992928Y-71412107D02*
X142962690Y-71502821D01*
X142962690Y-71502821D02*
X142599833Y-71865679D01*
X142599833Y-71865679D02*
X142992928Y-71865679D01*
X135123766Y-65770202D02*
X135093528Y-65800441D01*
X135093528Y-65800441D02*
X135002814Y-65830679D01*
X135002814Y-65830679D02*
X134942338Y-65830679D01*
X134942338Y-65830679D02*
X134851623Y-65800441D01*
X134851623Y-65800441D02*
X134791147Y-65739964D01*
X134791147Y-65739964D02*
X134760909Y-65679488D01*
X134760909Y-65679488D02*
X134730671Y-65558536D01*
X134730671Y-65558536D02*
X134730671Y-65467821D01*
X134730671Y-65467821D02*
X134760909Y-65346869D01*
X134760909Y-65346869D02*
X134791147Y-65286393D01*
X134791147Y-65286393D02*
X134851623Y-65225917D01*
X134851623Y-65225917D02*
X134942338Y-65195679D01*
X134942338Y-65195679D02*
X135002814Y-65195679D01*
X135002814Y-65195679D02*
X135093528Y-65225917D01*
X135093528Y-65225917D02*
X135123766Y-65256155D01*
X135698290Y-65195679D02*
X135395909Y-65195679D01*
X135395909Y-65195679D02*
X135365671Y-65498060D01*
X135365671Y-65498060D02*
X135395909Y-65467821D01*
X135395909Y-65467821D02*
X135456385Y-65437583D01*
X135456385Y-65437583D02*
X135607576Y-65437583D01*
X135607576Y-65437583D02*
X135668052Y-65467821D01*
X135668052Y-65467821D02*
X135698290Y-65498060D01*
X135698290Y-65498060D02*
X135728528Y-65558536D01*
X135728528Y-65558536D02*
X135728528Y-65709726D01*
X135728528Y-65709726D02*
X135698290Y-65770202D01*
X135698290Y-65770202D02*
X135668052Y-65800441D01*
X135668052Y-65800441D02*
X135607576Y-65830679D01*
X135607576Y-65830679D02*
X135456385Y-65830679D01*
X135456385Y-65830679D02*
X135395909Y-65800441D01*
X135395909Y-65800441D02*
X135365671Y-65770202D01*
X133320366Y-65846402D02*
X133290128Y-65876641D01*
X133290128Y-65876641D02*
X133199414Y-65906879D01*
X133199414Y-65906879D02*
X133138938Y-65906879D01*
X133138938Y-65906879D02*
X133048223Y-65876641D01*
X133048223Y-65876641D02*
X132987747Y-65816164D01*
X132987747Y-65816164D02*
X132957509Y-65755688D01*
X132957509Y-65755688D02*
X132927271Y-65634736D01*
X132927271Y-65634736D02*
X132927271Y-65544021D01*
X132927271Y-65544021D02*
X132957509Y-65423069D01*
X132957509Y-65423069D02*
X132987747Y-65362593D01*
X132987747Y-65362593D02*
X133048223Y-65302117D01*
X133048223Y-65302117D02*
X133138938Y-65271879D01*
X133138938Y-65271879D02*
X133199414Y-65271879D01*
X133199414Y-65271879D02*
X133290128Y-65302117D01*
X133290128Y-65302117D02*
X133320366Y-65332355D01*
X133864652Y-65483545D02*
X133864652Y-65906879D01*
X133713461Y-65241641D02*
X133562271Y-65695212D01*
X133562271Y-65695212D02*
X133955366Y-65695212D01*
X141041966Y-62696279D02*
X140739585Y-62696279D01*
X140739585Y-62696279D02*
X140739585Y-62061279D01*
X141586252Y-62696279D02*
X141223395Y-62696279D01*
X141404823Y-62696279D02*
X141404823Y-62061279D01*
X141404823Y-62061279D02*
X141344347Y-62151993D01*
X141344347Y-62151993D02*
X141283871Y-62212469D01*
X141283871Y-62212469D02*
X141223395Y-62242707D01*
X142413566Y-63282379D02*
X142201899Y-62979998D01*
X142050709Y-63282379D02*
X142050709Y-62647379D01*
X142050709Y-62647379D02*
X142292614Y-62647379D01*
X142292614Y-62647379D02*
X142353090Y-62677617D01*
X142353090Y-62677617D02*
X142383328Y-62707855D01*
X142383328Y-62707855D02*
X142413566Y-62768331D01*
X142413566Y-62768331D02*
X142413566Y-62859045D01*
X142413566Y-62859045D02*
X142383328Y-62919521D01*
X142383328Y-62919521D02*
X142353090Y-62949760D01*
X142353090Y-62949760D02*
X142292614Y-62979998D01*
X142292614Y-62979998D02*
X142050709Y-62979998D01*
X143018328Y-63282379D02*
X142655471Y-63282379D01*
X142836899Y-63282379D02*
X142836899Y-62647379D01*
X142836899Y-62647379D02*
X142776423Y-62738093D01*
X142776423Y-62738093D02*
X142715947Y-62798569D01*
X142715947Y-62798569D02*
X142655471Y-62828807D01*
X133548966Y-59994202D02*
X133518728Y-60024441D01*
X133518728Y-60024441D02*
X133428014Y-60054679D01*
X133428014Y-60054679D02*
X133367538Y-60054679D01*
X133367538Y-60054679D02*
X133276823Y-60024441D01*
X133276823Y-60024441D02*
X133216347Y-59963964D01*
X133216347Y-59963964D02*
X133186109Y-59903488D01*
X133186109Y-59903488D02*
X133155871Y-59782536D01*
X133155871Y-59782536D02*
X133155871Y-59691821D01*
X133155871Y-59691821D02*
X133186109Y-59570869D01*
X133186109Y-59570869D02*
X133216347Y-59510393D01*
X133216347Y-59510393D02*
X133276823Y-59449917D01*
X133276823Y-59449917D02*
X133367538Y-59419679D01*
X133367538Y-59419679D02*
X133428014Y-59419679D01*
X133428014Y-59419679D02*
X133518728Y-59449917D01*
X133518728Y-59449917D02*
X133548966Y-59480155D01*
X134153728Y-60054679D02*
X133790871Y-60054679D01*
X133972299Y-60054679D02*
X133972299Y-59419679D01*
X133972299Y-59419679D02*
X133911823Y-59510393D01*
X133911823Y-59510393D02*
X133851347Y-59570869D01*
X133851347Y-59570869D02*
X133790871Y-59601107D01*
X143962966Y-71450552D02*
X143932728Y-71480791D01*
X143932728Y-71480791D02*
X143842014Y-71511029D01*
X143842014Y-71511029D02*
X143781538Y-71511029D01*
X143781538Y-71511029D02*
X143690823Y-71480791D01*
X143690823Y-71480791D02*
X143630347Y-71420314D01*
X143630347Y-71420314D02*
X143600109Y-71359838D01*
X143600109Y-71359838D02*
X143569871Y-71238886D01*
X143569871Y-71238886D02*
X143569871Y-71148171D01*
X143569871Y-71148171D02*
X143600109Y-71027219D01*
X143600109Y-71027219D02*
X143630347Y-70966743D01*
X143630347Y-70966743D02*
X143690823Y-70906267D01*
X143690823Y-70906267D02*
X143781538Y-70876029D01*
X143781538Y-70876029D02*
X143842014Y-70876029D01*
X143842014Y-70876029D02*
X143932728Y-70906267D01*
X143932728Y-70906267D02*
X143962966Y-70936505D01*
X144507252Y-70876029D02*
X144386299Y-70876029D01*
X144386299Y-70876029D02*
X144325823Y-70906267D01*
X144325823Y-70906267D02*
X144295585Y-70936505D01*
X144295585Y-70936505D02*
X144235109Y-71027219D01*
X144235109Y-71027219D02*
X144204871Y-71148171D01*
X144204871Y-71148171D02*
X144204871Y-71390076D01*
X144204871Y-71390076D02*
X144235109Y-71450552D01*
X144235109Y-71450552D02*
X144265347Y-71480791D01*
X144265347Y-71480791D02*
X144325823Y-71511029D01*
X144325823Y-71511029D02*
X144446776Y-71511029D01*
X144446776Y-71511029D02*
X144507252Y-71480791D01*
X144507252Y-71480791D02*
X144537490Y-71450552D01*
X144537490Y-71450552D02*
X144567728Y-71390076D01*
X144567728Y-71390076D02*
X144567728Y-71238886D01*
X144567728Y-71238886D02*
X144537490Y-71178410D01*
X144537490Y-71178410D02*
X144507252Y-71148171D01*
X144507252Y-71148171D02*
X144446776Y-71117933D01*
X144446776Y-71117933D02*
X144325823Y-71117933D01*
X144325823Y-71117933D02*
X144265347Y-71148171D01*
X144265347Y-71148171D02*
X144235109Y-71178410D01*
X144235109Y-71178410D02*
X144204871Y-71238886D01*
X147481479Y-67669833D02*
X147179098Y-67881500D01*
X147481479Y-68032690D02*
X146846479Y-68032690D01*
X146846479Y-68032690D02*
X146846479Y-67790785D01*
X146846479Y-67790785D02*
X146876717Y-67730309D01*
X146876717Y-67730309D02*
X146906955Y-67700071D01*
X146906955Y-67700071D02*
X146967431Y-67669833D01*
X146967431Y-67669833D02*
X147058145Y-67669833D01*
X147058145Y-67669833D02*
X147118621Y-67700071D01*
X147118621Y-67700071D02*
X147148860Y-67730309D01*
X147148860Y-67730309D02*
X147179098Y-67790785D01*
X147179098Y-67790785D02*
X147179098Y-68032690D01*
X147058145Y-67125547D02*
X147481479Y-67125547D01*
X146816241Y-67276738D02*
X147269812Y-67427928D01*
X147269812Y-67427928D02*
X147269812Y-67034833D01*
X131135966Y-65770202D02*
X131105728Y-65800441D01*
X131105728Y-65800441D02*
X131015014Y-65830679D01*
X131015014Y-65830679D02*
X130954538Y-65830679D01*
X130954538Y-65830679D02*
X130863823Y-65800441D01*
X130863823Y-65800441D02*
X130803347Y-65739964D01*
X130803347Y-65739964D02*
X130773109Y-65679488D01*
X130773109Y-65679488D02*
X130742871Y-65558536D01*
X130742871Y-65558536D02*
X130742871Y-65467821D01*
X130742871Y-65467821D02*
X130773109Y-65346869D01*
X130773109Y-65346869D02*
X130803347Y-65286393D01*
X130803347Y-65286393D02*
X130863823Y-65225917D01*
X130863823Y-65225917D02*
X130954538Y-65195679D01*
X130954538Y-65195679D02*
X131015014Y-65195679D01*
X131015014Y-65195679D02*
X131105728Y-65225917D01*
X131105728Y-65225917D02*
X131135966Y-65256155D01*
X131347633Y-65195679D02*
X131740728Y-65195679D01*
X131740728Y-65195679D02*
X131529061Y-65437583D01*
X131529061Y-65437583D02*
X131619776Y-65437583D01*
X131619776Y-65437583D02*
X131680252Y-65467821D01*
X131680252Y-65467821D02*
X131710490Y-65498060D01*
X131710490Y-65498060D02*
X131740728Y-65558536D01*
X131740728Y-65558536D02*
X131740728Y-65709726D01*
X131740728Y-65709726D02*
X131710490Y-65770202D01*
X131710490Y-65770202D02*
X131680252Y-65800441D01*
X131680252Y-65800441D02*
X131619776Y-65830679D01*
X131619776Y-65830679D02*
X131438347Y-65830679D01*
X131438347Y-65830679D02*
X131377871Y-65800441D01*
X131377871Y-65800441D02*
X131347633Y-65770202D01*
D11*
%TO.C,R3*%
X139086224Y-72023500D02*
X138576776Y-72023500D01*
X139086224Y-70978500D02*
X138576776Y-70978500D01*
%TO.C,TP5*%
X129733000Y-58689200D02*
X131633000Y-58689200D01*
X129733000Y-60589200D02*
X129733000Y-58689200D01*
X131633000Y-58689200D02*
X131633000Y-60589200D01*
X131633000Y-60589200D02*
X129733000Y-60589200D01*
D12*
%TO.C,U1*%
X137819000Y-66165600D02*
X138624000Y-66165600D01*
X137819000Y-69165600D02*
X138624000Y-69165600D01*
X140014000Y-66165600D02*
X140819000Y-66165600D01*
X140014000Y-69165600D02*
X140819000Y-69165600D01*
D13*
X137641000Y-65786000D02*
G75*
G03*
X137441000Y-65786000I-100000J0D01*
G01*
X137441000Y-65786000D02*
G75*
G03*
X137641000Y-65786000I100000J0D01*
G01*
D11*
%TO.C,TP8*%
X145850000Y-58689200D02*
X147750000Y-58689200D01*
X145850000Y-60589200D02*
X145850000Y-58689200D01*
X147750000Y-58689200D02*
X147750000Y-60589200D01*
X147750000Y-60589200D02*
X145850000Y-60589200D01*
%TO.C,C2*%
X143508000Y-65164580D02*
X143508000Y-64883420D01*
X144528000Y-65164580D02*
X144528000Y-64883420D01*
%TO.C,D1*%
X146883000Y-62450000D02*
X144963000Y-62450000D01*
X144963000Y-62450000D02*
X144963000Y-65135000D01*
X146883000Y-65135000D02*
X146883000Y-62450000D01*
%TO.C,R2*%
X141971500Y-69699274D02*
X141971500Y-69189826D01*
X143016500Y-69699274D02*
X143016500Y-69189826D01*
%TO.C,C5*%
X134602600Y-68013252D02*
X134602600Y-67490748D01*
X136072600Y-68013252D02*
X136072600Y-67490748D01*
%TO.C,C4*%
X132488000Y-68013252D02*
X132488000Y-67490748D01*
X133958000Y-68013252D02*
X133958000Y-67490748D01*
D14*
%TO.C,L1*%
X140296900Y-59931300D02*
X135445500Y-59931300D01*
X135445500Y-59931300D02*
X135445500Y-64782700D01*
X140296900Y-64782700D02*
X140296900Y-59931300D01*
X135445500Y-64782700D02*
X140296900Y-64782700D01*
D11*
%TO.C,TP6*%
X145850000Y-70779600D02*
X147750000Y-70779600D01*
X145850000Y-72679600D02*
X145850000Y-70779600D01*
X147750000Y-70779600D02*
X147750000Y-72679600D01*
X147750000Y-72679600D02*
X145850000Y-72679600D01*
%TO.C,R1*%
X141971500Y-65405724D02*
X141971500Y-64896276D01*
X143016500Y-65405724D02*
X143016500Y-64896276D01*
%TO.C,C1*%
X134466000Y-61841748D02*
X134466000Y-62364252D01*
X132996000Y-61841748D02*
X132996000Y-62364252D01*
%TO.C,C6*%
X143635000Y-69447630D02*
X143635000Y-69166470D01*
X144655000Y-69447630D02*
X144655000Y-69166470D01*
%TO.C,TP7*%
X129733000Y-70779600D02*
X131633000Y-70779600D01*
X129733000Y-72679600D02*
X129733000Y-70779600D01*
X131633000Y-70779600D02*
X131633000Y-72679600D01*
X131633000Y-72679600D02*
X129733000Y-72679600D01*
%TO.C,R4*%
X145400500Y-67945724D02*
X145400500Y-67436276D01*
X146445500Y-67945724D02*
X146445500Y-67436276D01*
%TO.C,C3*%
X130373400Y-68013252D02*
X130373400Y-67490748D01*
X131843400Y-68013252D02*
X131843400Y-67490748D01*
%TD*%
%LPC*%
D15*
X142697200Y-68529200D02*
X142697200Y-68529200D01*
%TO.C,U1*%
D16*
X138289000Y-66855600D02*
X137549000Y-66855600D01*
X137549000Y-66475600D01*
X138289000Y-66475600D01*
X138289000Y-66855600D01*
G36*
X138289000Y-66855600D02*
G01*
X137549000Y-66855600D01*
X137549000Y-66475600D01*
X138289000Y-66475600D01*
X138289000Y-66855600D01*
G37*
X138289000Y-67355600D02*
X137549000Y-67355600D01*
X137549000Y-66975600D01*
X138289000Y-66975600D01*
X138289000Y-67355600D01*
G36*
X138289000Y-67355600D02*
G01*
X137549000Y-67355600D01*
X137549000Y-66975600D01*
X138289000Y-66975600D01*
X138289000Y-67355600D01*
G37*
X138289000Y-67855600D02*
X137549000Y-67855600D01*
X137549000Y-67475600D01*
X138289000Y-67475600D01*
X138289000Y-67855600D01*
G36*
X138289000Y-67855600D02*
G01*
X137549000Y-67855600D01*
X137549000Y-67475600D01*
X138289000Y-67475600D01*
X138289000Y-67855600D01*
G37*
X138289000Y-68355600D02*
X137549000Y-68355600D01*
X137549000Y-67975600D01*
X138289000Y-67975600D01*
X138289000Y-68355600D01*
G36*
X138289000Y-68355600D02*
G01*
X137549000Y-68355600D01*
X137549000Y-67975600D01*
X138289000Y-67975600D01*
X138289000Y-68355600D01*
G37*
X138289000Y-68855600D02*
X137549000Y-68855600D01*
X137549000Y-68475600D01*
X138289000Y-68475600D01*
X138289000Y-68855600D01*
G36*
X138289000Y-68855600D02*
G01*
X137549000Y-68855600D01*
X137549000Y-68475600D01*
X138289000Y-68475600D01*
X138289000Y-68855600D01*
G37*
X141089000Y-66855600D02*
X140349000Y-66855600D01*
X140349000Y-66475600D01*
X141089000Y-66475600D01*
X141089000Y-66855600D01*
G36*
X141089000Y-66855600D02*
G01*
X140349000Y-66855600D01*
X140349000Y-66475600D01*
X141089000Y-66475600D01*
X141089000Y-66855600D01*
G37*
X141089000Y-67355600D02*
X140349000Y-67355600D01*
X140349000Y-66975600D01*
X141089000Y-66975600D01*
X141089000Y-67355600D01*
G36*
X141089000Y-67355600D02*
G01*
X140349000Y-67355600D01*
X140349000Y-66975600D01*
X141089000Y-66975600D01*
X141089000Y-67355600D01*
G37*
X141089000Y-67855600D02*
X140349000Y-67855600D01*
X140349000Y-67475600D01*
X141089000Y-67475600D01*
X141089000Y-67855600D01*
G36*
X141089000Y-67855600D02*
G01*
X140349000Y-67855600D01*
X140349000Y-67475600D01*
X141089000Y-67475600D01*
X141089000Y-67855600D01*
G37*
X141089000Y-68355600D02*
X140349000Y-68355600D01*
X140349000Y-67975600D01*
X141089000Y-67975600D01*
X141089000Y-68355600D01*
G36*
X141089000Y-68355600D02*
G01*
X140349000Y-68355600D01*
X140349000Y-67975600D01*
X141089000Y-67975600D01*
X141089000Y-68355600D01*
G37*
X141089000Y-68855600D02*
X140349000Y-68855600D01*
X140349000Y-68475600D01*
X141089000Y-68475600D01*
X141089000Y-68855600D01*
G36*
X141089000Y-68855600D02*
G01*
X140349000Y-68855600D01*
X140349000Y-68475600D01*
X141089000Y-68475600D01*
X141089000Y-68855600D01*
G37*
X139264000Y-66395600D02*
X139374000Y-66395600D01*
X139374000Y-65895600D01*
X139764000Y-65895600D01*
X139764000Y-66395600D01*
X140214000Y-66395600D01*
X140214000Y-68935600D01*
X139764000Y-68935600D01*
X139764000Y-69435600D01*
X139374000Y-69435600D01*
X139374000Y-68935600D01*
X139264000Y-68935600D01*
X139264000Y-69435600D01*
X138874000Y-69435600D01*
X138874000Y-68935600D01*
X138424000Y-68935600D01*
X138424000Y-66395600D01*
X138874000Y-66395600D01*
X138874000Y-65895600D01*
X139264000Y-65895600D01*
X139264000Y-66395600D01*
G36*
X139264000Y-66395600D02*
G01*
X139374000Y-66395600D01*
X139374000Y-65895600D01*
X139764000Y-65895600D01*
X139764000Y-66395600D01*
X140214000Y-66395600D01*
X140214000Y-68935600D01*
X139764000Y-68935600D01*
X139764000Y-69435600D01*
X139374000Y-69435600D01*
X139374000Y-68935600D01*
X139264000Y-68935600D01*
X139264000Y-69435600D01*
X138874000Y-69435600D01*
X138874000Y-68935600D01*
X138424000Y-68935600D01*
X138424000Y-66395600D01*
X138874000Y-66395600D01*
X138874000Y-65895600D01*
X139264000Y-65895600D01*
X139264000Y-66395600D01*
G37*
%TD*%
D17*
%TO.C,R3*%
X139744000Y-71501000D03*
X137919000Y-71501000D03*
%TD*%
D18*
%TO.C,TP5*%
X130683000Y-59639200D03*
%TD*%
%TO.C,TP8*%
X146800000Y-59639200D03*
%TD*%
D19*
%TO.C,C2*%
X144018000Y-65799000D03*
X144018000Y-64249000D03*
%TD*%
D20*
%TO.C,D1*%
X145923000Y-63197500D03*
X145923000Y-65072500D03*
%TD*%
D21*
%TO.C,R2*%
X142494000Y-70357050D03*
X142494000Y-68532050D03*
%TD*%
D22*
%TO.C,C5*%
X135337600Y-68702000D03*
X135337600Y-66802000D03*
%TD*%
%TO.C,C4*%
X133223000Y-68702000D03*
X133223000Y-66802000D03*
%TD*%
D23*
%TO.C,L1*%
X137871200Y-61226700D03*
X137871200Y-63487300D03*
%TD*%
D18*
%TO.C,TP6*%
X146800000Y-71729600D03*
%TD*%
D21*
%TO.C,R1*%
X142494000Y-66063500D03*
X142494000Y-64238500D03*
%TD*%
D24*
%TO.C,C1*%
X133731000Y-61153000D03*
X133731000Y-63053000D03*
%TD*%
D19*
%TO.C,C6*%
X144145000Y-70082050D03*
X144145000Y-68532050D03*
%TD*%
D18*
%TO.C,TP7*%
X130683000Y-71729600D03*
%TD*%
D21*
%TO.C,R4*%
X145923000Y-68603500D03*
X145923000Y-66778500D03*
%TD*%
D22*
%TO.C,C3*%
X131108400Y-68702000D03*
X131108400Y-66802000D03*
%TD*%
%LPD*%
M02*
