%TF.GenerationSoftware,KiCad,Pcbnew,7.0.10*%
%TF.CreationDate,2024-08-19T14:49:08+08:00*%
%TF.ProjectId,TPS61230_Booster_5V_Layout-240812_JLCPCB,54505336-3132-4333-905f-426f6f737465,rev?*%
%TF.SameCoordinates,Original*%
%TF.FileFunction,Copper,L2,Bot*%
%TF.FilePolarity,Positive*%
%FSLAX46Y46*%
G04 Gerber Fmt 4.6, Leading zero omitted, Abs format (unit mm)*
G04 Created by KiCad (PCBNEW 7.0.10) date 2024-08-19 14:49:08*
%MOMM*%
%LPD*%
G01*
G04 APERTURE LIST*
%TA.AperFunction,ComponentPad*%
%ADD10R,1.500000X1.500000*%
%TD*%
%TA.AperFunction,ComponentPad*%
%ADD11C,0.300000*%
%TD*%
%TA.AperFunction,ViaPad*%
%ADD12C,0.600000*%
%TD*%
%TA.AperFunction,Conductor*%
%ADD13C,0.254000*%
%TD*%
G04 APERTURE END LIST*
D10*
%TO.P,TP5,1,1*%
%TO.N,/VIN*%
X130683000Y-59639200D03*
%TD*%
D11*
%TO.P,U1,12,GND*%
%TO.N,GND*%
X139319000Y-68615600D03*
%TO.P,U1,13,GND*%
X138744000Y-67665600D03*
%TO.P,U1,14,GND*%
%TO.N,unconnected-(U1-GND-Pad14)*%
X139894000Y-67665600D03*
%TO.P,U1,15*%
%TO.N,N/C*%
X139319000Y-66715600D03*
%TD*%
D10*
%TO.P,TP8,1,1*%
%TO.N,GND*%
X146800000Y-59639200D03*
%TD*%
%TO.P,TP6,1,1*%
%TO.N,GND*%
X146800000Y-71729600D03*
%TD*%
%TO.P,TP7,1,1*%
%TO.N,Net-(U1-VOUT)*%
X130683000Y-71729600D03*
%TD*%
D12*
%TO.N,GND*%
X132829300Y-64592200D03*
X131038600Y-64592200D03*
X134620000Y-64592200D03*
X131064000Y-62852300D03*
%TO.N,Net-(U1-SS)*%
X141198600Y-70078600D03*
X144018000Y-66929000D03*
%TD*%
D13*
%TO.N,Net-(U1-SS)*%
X144018000Y-66929000D02*
X144018000Y-69342000D01*
X143281400Y-70078600D02*
X141198600Y-70078600D01*
X144018000Y-69342000D02*
X143281400Y-70078600D01*
%TD*%
%TA.AperFunction,Conductor*%
%TO.N,GND*%
G36*
X147707594Y-57956206D02*
G01*
X147725900Y-58000400D01*
X147725900Y-72657200D01*
X147707594Y-72701394D01*
X147663400Y-72719700D01*
X131630639Y-72719700D01*
X131586445Y-72701394D01*
X131568139Y-72657200D01*
X131578672Y-72622477D01*
X131621866Y-72557832D01*
X131621867Y-72557831D01*
X131633500Y-72499348D01*
X131633500Y-70959852D01*
X131621867Y-70901369D01*
X131621866Y-70901367D01*
X131577552Y-70835047D01*
X131511232Y-70790733D01*
X131511230Y-70790732D01*
X131452748Y-70779100D01*
X129913252Y-70779100D01*
X129854769Y-70790732D01*
X129854767Y-70790733D01*
X129790123Y-70833928D01*
X129743207Y-70843260D01*
X129703433Y-70816684D01*
X129692900Y-70781961D01*
X129692900Y-70078600D01*
X140692953Y-70078600D01*
X140713434Y-70221055D01*
X140713435Y-70221057D01*
X140750469Y-70302150D01*
X140773223Y-70351972D01*
X140773223Y-70351974D01*
X140823405Y-70409887D01*
X140867472Y-70460743D01*
X140988547Y-70538553D01*
X140988549Y-70538553D01*
X140988550Y-70538554D01*
X141126636Y-70579099D01*
X141126638Y-70579100D01*
X141126639Y-70579100D01*
X141270562Y-70579100D01*
X141270562Y-70579099D01*
X141408653Y-70538553D01*
X141529728Y-70460743D01*
X141558385Y-70427671D01*
X141601160Y-70406259D01*
X141605619Y-70406100D01*
X143264375Y-70406100D01*
X143269823Y-70406338D01*
X143310384Y-70409887D01*
X143349715Y-70399347D01*
X143355027Y-70398169D01*
X143395139Y-70391097D01*
X143400684Y-70387895D01*
X143415763Y-70381650D01*
X143421940Y-70379995D01*
X143421940Y-70379994D01*
X143421943Y-70379994D01*
X143455303Y-70356633D01*
X143459876Y-70353720D01*
X143495160Y-70333350D01*
X143521348Y-70302138D01*
X143525012Y-70298140D01*
X144237546Y-69585607D01*
X144241544Y-69581943D01*
X144272750Y-69555760D01*
X144293115Y-69520484D01*
X144296021Y-69515922D01*
X144319395Y-69482543D01*
X144321052Y-69476360D01*
X144327298Y-69461280D01*
X144330496Y-69455741D01*
X144330496Y-69455740D01*
X144330497Y-69455739D01*
X144337569Y-69415621D01*
X144338741Y-69410338D01*
X144349287Y-69370984D01*
X144345738Y-69330421D01*
X144345500Y-69324973D01*
X144345500Y-67338640D01*
X144360765Y-67297712D01*
X144443377Y-67202373D01*
X144503165Y-67071457D01*
X144523647Y-66929000D01*
X144503165Y-66786543D01*
X144443377Y-66655627D01*
X144443376Y-66655625D01*
X144349128Y-66546857D01*
X144337963Y-66539682D01*
X144228053Y-66469047D01*
X144228051Y-66469046D01*
X144228049Y-66469045D01*
X144089963Y-66428500D01*
X144089961Y-66428500D01*
X143946039Y-66428500D01*
X143946037Y-66428500D01*
X143807950Y-66469045D01*
X143686871Y-66546857D01*
X143592623Y-66655625D01*
X143592623Y-66655627D01*
X143532834Y-66786544D01*
X143512353Y-66929000D01*
X143532834Y-67071455D01*
X143532835Y-67071457D01*
X143592623Y-67202373D01*
X143675234Y-67297712D01*
X143690500Y-67338640D01*
X143690500Y-69180457D01*
X143672194Y-69224651D01*
X143164052Y-69732794D01*
X143119858Y-69751100D01*
X141605619Y-69751100D01*
X141561425Y-69732794D01*
X141558385Y-69729529D01*
X141529728Y-69696457D01*
X141408653Y-69618647D01*
X141408651Y-69618646D01*
X141408649Y-69618645D01*
X141270563Y-69578100D01*
X141270561Y-69578100D01*
X141126639Y-69578100D01*
X141126637Y-69578100D01*
X140988550Y-69618645D01*
X140867471Y-69696457D01*
X140773223Y-69805225D01*
X140773223Y-69805227D01*
X140713434Y-69936144D01*
X140692953Y-70078600D01*
X129692900Y-70078600D01*
X129692900Y-67665604D01*
X139539131Y-67665604D01*
X139540033Y-67671303D01*
X139540589Y-67686230D01*
X139539868Y-67694940D01*
X139539868Y-67694945D01*
X139549612Y-67733427D01*
X139550754Y-67738989D01*
X139556499Y-67775260D01*
X139560690Y-67783486D01*
X139565586Y-67796510D01*
X139568581Y-67808333D01*
X139568584Y-67808341D01*
X139572333Y-67814080D01*
X139588420Y-67838702D01*
X139591785Y-67844512D01*
X139606904Y-67874186D01*
X139615872Y-67883154D01*
X139623997Y-67893158D01*
X139632563Y-67906269D01*
X139632564Y-67906270D01*
X139632565Y-67906271D01*
X139658478Y-67926439D01*
X139664285Y-67931567D01*
X139685413Y-67952695D01*
X139699792Y-67960021D01*
X139709799Y-67966384D01*
X139724874Y-67978117D01*
X139752700Y-67987669D01*
X139760770Y-67991091D01*
X139784339Y-68003100D01*
X139803673Y-68006161D01*
X139814187Y-68008778D01*
X139835512Y-68016100D01*
X139861500Y-68016100D01*
X139871276Y-68016869D01*
X139894000Y-68020469D01*
X139917721Y-68016711D01*
X139922317Y-68016159D01*
X139923019Y-68016100D01*
X139923040Y-68016100D01*
X139950115Y-68011581D01*
X139950326Y-68011547D01*
X140003661Y-68003100D01*
X140003664Y-68003098D01*
X140005138Y-68002865D01*
X140008000Y-68002166D01*
X140009375Y-68001694D01*
X140009377Y-68001692D01*
X140009381Y-68001692D01*
X140056392Y-67976250D01*
X140057588Y-67975622D01*
X140102587Y-67952695D01*
X140102589Y-67952693D01*
X140106570Y-67949801D01*
X140106936Y-67950305D01*
X140108263Y-67949313D01*
X140108173Y-67949197D01*
X140112254Y-67946019D01*
X140112258Y-67946018D01*
X140146100Y-67909254D01*
X140147840Y-67907440D01*
X140181095Y-67874187D01*
X140181098Y-67874182D01*
X140183990Y-67870203D01*
X140184037Y-67870237D01*
X140190268Y-67861275D01*
X140191484Y-67859956D01*
X140210181Y-67817327D01*
X140211720Y-67814080D01*
X140231500Y-67775261D01*
X140231859Y-67772987D01*
X140236353Y-67757663D01*
X140238473Y-67752832D01*
X140242035Y-67709833D01*
X140242586Y-67705262D01*
X140248869Y-67665600D01*
X140247965Y-67659899D01*
X140247410Y-67644961D01*
X140248132Y-67636256D01*
X140238385Y-67597770D01*
X140237248Y-67592234D01*
X140231500Y-67555939D01*
X140227308Y-67547711D01*
X140222411Y-67534687D01*
X140219416Y-67522859D01*
X140209655Y-67507919D01*
X140199574Y-67492488D01*
X140196209Y-67486677D01*
X140181094Y-67457011D01*
X140172129Y-67448047D01*
X140163997Y-67438033D01*
X140155439Y-67424933D01*
X140155438Y-67424931D01*
X140129520Y-67404759D01*
X140123714Y-67399632D01*
X140102585Y-67378503D01*
X140088214Y-67371181D01*
X140078203Y-67364817D01*
X140063126Y-67353083D01*
X140063121Y-67353080D01*
X140035304Y-67343531D01*
X140027227Y-67340107D01*
X140003661Y-67328100D01*
X140003659Y-67328099D01*
X140003658Y-67328099D01*
X139984328Y-67325037D01*
X139973815Y-67322421D01*
X139952488Y-67315100D01*
X139952487Y-67315100D01*
X139926500Y-67315100D01*
X139916723Y-67314330D01*
X139911318Y-67313474D01*
X139894002Y-67310731D01*
X139893998Y-67310731D01*
X139870316Y-67314482D01*
X139865707Y-67315038D01*
X139864958Y-67315100D01*
X139838000Y-67319597D01*
X139837495Y-67319679D01*
X139782901Y-67328326D01*
X139779969Y-67329043D01*
X139778620Y-67329506D01*
X139731680Y-67354908D01*
X139730311Y-67355627D01*
X139685412Y-67378505D01*
X139681436Y-67381394D01*
X139681084Y-67380910D01*
X139679748Y-67381903D01*
X139679826Y-67382003D01*
X139675740Y-67385183D01*
X139641922Y-67421918D01*
X139640136Y-67423779D01*
X139606905Y-67457012D01*
X139604016Y-67460989D01*
X139603970Y-67460956D01*
X139597742Y-67469911D01*
X139596516Y-67471242D01*
X139596514Y-67471246D01*
X139577820Y-67513862D01*
X139576274Y-67517128D01*
X139556499Y-67555939D01*
X139556498Y-67555944D01*
X139556137Y-67558222D01*
X139551650Y-67573524D01*
X139549526Y-67578367D01*
X139549526Y-67578368D01*
X139545966Y-67621326D01*
X139545411Y-67625939D01*
X139539131Y-67665600D01*
X139539131Y-67665604D01*
X129692900Y-67665604D01*
X129692900Y-66715604D01*
X138964131Y-66715604D01*
X138965033Y-66721303D01*
X138965589Y-66736230D01*
X138964868Y-66744940D01*
X138964868Y-66744945D01*
X138974612Y-66783427D01*
X138975754Y-66788989D01*
X138981499Y-66825260D01*
X138985690Y-66833486D01*
X138990586Y-66846510D01*
X138993581Y-66858333D01*
X138993584Y-66858341D01*
X138997333Y-66864080D01*
X139013420Y-66888702D01*
X139016785Y-66894512D01*
X139031904Y-66924186D01*
X139040872Y-66933154D01*
X139048997Y-66943158D01*
X139057563Y-66956269D01*
X139057564Y-66956270D01*
X139057565Y-66956271D01*
X139083478Y-66976439D01*
X139089285Y-66981567D01*
X139110413Y-67002695D01*
X139124792Y-67010021D01*
X139134799Y-67016384D01*
X139149874Y-67028117D01*
X139177700Y-67037669D01*
X139185770Y-67041091D01*
X139209339Y-67053100D01*
X139228673Y-67056161D01*
X139239187Y-67058778D01*
X139260512Y-67066100D01*
X139286500Y-67066100D01*
X139296276Y-67066869D01*
X139319000Y-67070469D01*
X139342721Y-67066711D01*
X139347317Y-67066159D01*
X139348019Y-67066100D01*
X139348040Y-67066100D01*
X139375115Y-67061581D01*
X139375326Y-67061547D01*
X139428661Y-67053100D01*
X139428664Y-67053098D01*
X139430138Y-67052865D01*
X139433000Y-67052166D01*
X139434375Y-67051694D01*
X139434377Y-67051692D01*
X139434381Y-67051692D01*
X139481392Y-67026250D01*
X139482588Y-67025622D01*
X139527587Y-67002695D01*
X139527589Y-67002693D01*
X139531570Y-66999801D01*
X139531936Y-67000305D01*
X139533263Y-66999313D01*
X139533173Y-66999197D01*
X139537254Y-66996019D01*
X139537258Y-66996018D01*
X139571100Y-66959254D01*
X139572840Y-66957440D01*
X139606095Y-66924187D01*
X139606098Y-66924182D01*
X139608990Y-66920203D01*
X139609037Y-66920237D01*
X139615268Y-66911275D01*
X139616484Y-66909956D01*
X139635181Y-66867327D01*
X139636720Y-66864080D01*
X139656500Y-66825261D01*
X139656859Y-66822987D01*
X139661353Y-66807663D01*
X139663473Y-66802832D01*
X139667035Y-66759833D01*
X139667586Y-66755262D01*
X139673869Y-66715600D01*
X139672965Y-66709899D01*
X139672410Y-66694961D01*
X139673132Y-66686256D01*
X139663385Y-66647770D01*
X139662248Y-66642234D01*
X139656500Y-66605939D01*
X139652308Y-66597711D01*
X139647411Y-66584687D01*
X139644416Y-66572859D01*
X139627428Y-66546857D01*
X139624574Y-66542488D01*
X139621209Y-66536677D01*
X139606094Y-66507011D01*
X139597129Y-66498047D01*
X139588997Y-66488033D01*
X139580439Y-66474933D01*
X139580438Y-66474931D01*
X139554520Y-66454759D01*
X139548714Y-66449632D01*
X139527585Y-66428503D01*
X139513214Y-66421181D01*
X139503203Y-66414817D01*
X139488126Y-66403083D01*
X139488121Y-66403080D01*
X139460304Y-66393531D01*
X139452227Y-66390107D01*
X139428661Y-66378100D01*
X139428659Y-66378099D01*
X139428658Y-66378099D01*
X139409328Y-66375037D01*
X139398815Y-66372421D01*
X139377488Y-66365100D01*
X139377487Y-66365100D01*
X139351500Y-66365100D01*
X139341723Y-66364330D01*
X139336829Y-66363554D01*
X139319002Y-66360731D01*
X139318998Y-66360731D01*
X139295316Y-66364482D01*
X139290707Y-66365038D01*
X139289958Y-66365100D01*
X139263000Y-66369597D01*
X139262495Y-66369679D01*
X139207901Y-66378326D01*
X139204969Y-66379043D01*
X139203620Y-66379506D01*
X139156680Y-66404908D01*
X139155311Y-66405627D01*
X139110412Y-66428505D01*
X139106436Y-66431394D01*
X139106084Y-66430910D01*
X139104748Y-66431903D01*
X139104826Y-66432003D01*
X139100740Y-66435183D01*
X139066922Y-66471918D01*
X139065136Y-66473779D01*
X139031905Y-66507012D01*
X139029016Y-66510989D01*
X139028970Y-66510956D01*
X139022742Y-66519911D01*
X139021516Y-66521242D01*
X139021514Y-66521246D01*
X139002820Y-66563862D01*
X139001274Y-66567128D01*
X138981499Y-66605939D01*
X138981498Y-66605944D01*
X138981137Y-66608222D01*
X138976650Y-66623524D01*
X138974526Y-66628367D01*
X138974526Y-66628368D01*
X138970966Y-66671326D01*
X138970411Y-66675939D01*
X138964131Y-66715600D01*
X138964131Y-66715604D01*
X129692900Y-66715604D01*
X129692900Y-60586838D01*
X129711206Y-60542644D01*
X129755400Y-60524338D01*
X129790124Y-60534872D01*
X129854766Y-60578065D01*
X129854769Y-60578067D01*
X129913252Y-60589700D01*
X131452748Y-60589700D01*
X131511231Y-60578067D01*
X131577552Y-60533752D01*
X131621867Y-60467431D01*
X131633500Y-60408948D01*
X131633500Y-58869452D01*
X131621867Y-58810969D01*
X131621866Y-58810967D01*
X131577552Y-58744647D01*
X131511232Y-58700333D01*
X131511230Y-58700332D01*
X131452748Y-58688700D01*
X129913252Y-58688700D01*
X129854769Y-58700332D01*
X129854767Y-58700333D01*
X129790123Y-58743528D01*
X129743207Y-58752860D01*
X129703433Y-58726284D01*
X129692900Y-58691561D01*
X129692900Y-58000400D01*
X129711206Y-57956206D01*
X129755400Y-57937900D01*
X147663400Y-57937900D01*
X147707594Y-57956206D01*
G37*
%TD.AperFunction*%
%TD*%
M02*
